<svg width="105" height="106" viewBox="0 0 105 106" fill="none" xmlns="http://www.w3.org/2000/svg">
<path d="M61.0142 0.673111C66.4324 -0.132635 71.9227 1.57277 75.9309 5.30656L98.3454 26.1866C102.354 29.9204 104.443 35.2762 104.023 40.7379L101.674 71.2807C101.254 76.7424 98.3693 81.7156 93.8372 84.7924L68.493 101.999C63.9609 105.076 58.2744 105.921 53.0431 104.296L23.7889 95.2093C18.5576 93.5843 14.3509 89.6657 12.3597 84.5625L1.22446 56.025C-0.766758 50.9219 -0.325822 45.1897 2.42245 40.4512L17.7913 13.9525C20.5395 9.21392 25.296 5.98472 30.7143 5.17898L61.0142 0.673111Z" fill="#8717F8"/>
</svg>
