<svg width="12" height="12" viewBox="0 0 12 12" fill="none" xmlns="http://www.w3.org/2000/svg">
<g clip-path="url(#clip0_96_12169)">
<path d="M11.5605 4.53553L7.76801 0.742532C7.29863 0.274526 6.66284 0.0117187 6.00001 0.0117188C5.33718 0.0117187 4.70139 0.274526 4.23201 0.742532L0.439506 4.53553C0.299719 4.67442 0.188891 4.83968 0.113447 5.02172C0.0380036 5.20377 -0.0005552 5.39897 6.03974e-06 5.59603V10.5045C6.03974e-06 10.9024 0.158041 11.2839 0.439346 11.5652C0.72065 11.8465 1.10218 12.0045 1.50001 12.0045H10.5C10.8978 12.0045 11.2794 11.8465 11.5607 11.5652C11.842 11.2839 12 10.9024 12 10.5045V5.59603C12.0006 5.39897 11.962 5.20377 11.8866 5.02172C11.8111 4.83968 11.7003 4.67442 11.5605 4.53553ZM7.50001 11.0045H4.50001V9.03753C4.50001 8.63971 4.65804 8.25818 4.93935 7.97687C5.22065 7.69557 5.60218 7.53753 6.00001 7.53753C6.39783 7.53753 6.77936 7.69557 7.06067 7.97687C7.34197 8.25818 7.50001 8.63971 7.50001 9.03753V11.0045ZM11 10.5045C11 10.6371 10.9473 10.7643 10.8536 10.8581C10.7598 10.9519 10.6326 11.0045 10.5 11.0045H8.50001V9.03753C8.50001 8.37449 8.23662 7.73861 7.76777 7.26976C7.29893 6.80092 6.66305 6.53753 6.00001 6.53753C5.33697 6.53753 4.70108 6.80092 4.23224 7.26976C3.7634 7.73861 3.50001 8.37449 3.50001 9.03753V11.0045H1.50001C1.3674 11.0045 1.24022 10.9519 1.14645 10.8581C1.05268 10.7643 1.00001 10.6371 1.00001 10.5045V5.59603C1.00047 5.46352 1.0531 5.33652 1.14651 5.24253L4.93901 1.45103C5.22086 1.1705 5.60234 1.013 6.00001 1.013C6.39767 1.013 6.77916 1.1705 7.06101 1.45103L10.8535 5.24403C10.9465 5.33765 10.9992 5.46404 11 5.59603V10.5045Z" fill="white"/>
</g>
<defs>
<clipPath id="clip0_96_12169">
<rect width="12" height="12" fill="white"/>
</clipPath>
</defs>
</svg>
