<svg width="15" height="16" viewBox="0 0 15 16" fill="none" xmlns="http://www.w3.org/2000/svg">
<path d="M11.875 0.5H3.125C2.2965 0.500992 1.50222 0.830551 0.916387 1.41639C0.330551 2.00222 0.000992411 2.7965 0 3.625L0 12.375C0.000992411 13.2035 0.330551 13.9978 0.916387 14.5836C1.50222 15.1694 2.2965 15.499 3.125 15.5H11.875C12.7035 15.499 13.4978 15.1694 14.0836 14.5836C14.6694 13.9978 14.999 13.2035 15 12.375V3.625C14.999 2.7965 14.6694 2.00222 14.0836 1.41639C13.4978 0.830551 12.7035 0.500992 11.875 0.5V0.5ZM3.125 1.75H11.875C12.3723 1.75 12.8492 1.94754 13.2008 2.29917C13.5525 2.65081 13.75 3.12772 13.75 3.625V12.375C13.7489 12.6534 13.6848 12.928 13.5625 13.1781L7.83562 7.45125C7.54543 7.16098 7.2009 6.93072 6.8217 6.77362C6.4425 6.61653 6.03608 6.53567 5.62563 6.53567C5.21518 6.53567 4.80875 6.61653 4.42955 6.77362C4.05035 6.93072 3.70582 7.16098 3.41563 7.45125L1.25 9.61625V3.625C1.25 3.12772 1.44754 2.65081 1.79917 2.29917C2.15081 1.94754 2.62772 1.75 3.125 1.75ZM3.125 14.25C2.62772 14.25 2.15081 14.0525 1.79917 13.7008C1.44754 13.3492 1.25 12.8723 1.25 12.375V11.3837L4.29875 8.335C4.47288 8.16076 4.67963 8.02254 4.90719 7.92824C5.13475 7.83394 5.37867 7.7854 5.625 7.7854C5.87133 7.7854 6.11525 7.83394 6.34281 7.92824C6.57037 8.02254 6.77712 8.16076 6.95125 8.335L12.6781 14.0625C12.428 14.1848 12.1534 14.2489 11.875 14.25H3.125Z" fill="white"/>
<path d="M10.0002 7.0625C10.4329 7.0625 10.8558 6.93421 11.2156 6.69384C11.5753 6.45348 11.8557 6.11183 12.0212 5.71212C12.1868 5.31241 12.2301 4.87257 12.1457 4.44824C12.0613 4.02391 11.853 3.63413 11.547 3.32821C11.2411 3.02228 10.8513 2.81394 10.427 2.72953C10.0027 2.64513 9.56284 2.68845 9.16312 2.85401C8.76341 3.01958 8.42177 3.29996 8.1814 3.65969C7.94104 4.01942 7.81274 4.44235 7.81274 4.875C7.81274 5.45516 8.04321 6.01156 8.45345 6.4218C8.86368 6.83203 9.42008 7.0625 10.0002 7.0625ZM10.0002 3.9375C10.1857 3.9375 10.3669 3.99248 10.5211 4.0955C10.6753 4.19851 10.7954 4.34493 10.8664 4.51624C10.9373 4.68754 10.9559 4.87604 10.9197 5.0579C10.8836 5.23976 10.7943 5.4068 10.6632 5.53791C10.532 5.66903 10.365 5.75831 10.1831 5.79449C10.0013 5.83066 9.81278 5.8121 9.64148 5.74114C9.47017 5.67018 9.32376 5.55002 9.22074 5.39585C9.11773 5.24168 9.06274 5.06042 9.06274 4.875C9.06274 4.62636 9.16152 4.3879 9.33733 4.21209C9.51315 4.03627 9.7516 3.9375 10.0002 3.9375Z" fill="white"/>
</svg>
