<svg width="12" height="12" viewBox="0 0 12 12" fill="none" xmlns="http://www.w3.org/2000/svg">
<g clip-path="url(#clip0_96_12438)">
<path d="M11.8105 3.417L11.1345 2.004C10.96 1.639 10.6395 1.356 10.2555 1.228L7.10699 0.1785C6.39299 -0.0595 5.60699 -0.0595 4.89299 0.1785L1.74499 1.228C1.36049 1.356 1.03999 1.6395 0.865492 2.005L0.222492 3.3585C-0.0160079 3.7545 -0.0610079 4.2295 0.0989921 4.663C0.253492 5.083 0.580992 5.408 0.999992 5.561L0.997492 8.718C0.996492 9.797 1.68349 10.751 2.70649 11.092L4.88899 11.8195C5.24599 11.9385 5.62099 11.998 5.99599 11.998C6.37099 11.998 6.74599 11.9385 7.10299 11.8195L9.28749 11.091C10.309 10.7505 10.996 9.7985 10.997 8.7215L10.9995 5.5615C11.4225 5.413 11.7535 5.0885 11.909 4.6665C12.0675 4.2375 12.0235 3.767 11.8105 3.417ZM5.20949 1.1275C5.71949 0.9575 6.28099 0.9575 6.79049 1.1275L8.91449 1.8355L6.00349 2.8105L3.08649 1.8355L5.20949 1.1275ZM1.10199 3.832L1.76549 2.441C1.78949 2.4535 5.29399 3.6275 5.29399 3.6275L4.48349 5.2565C4.36399 5.4555 4.11599 5.5475 3.89699 5.4735L1.35649 4.627C1.20799 4.5775 1.09149 4.4645 1.03699 4.3175C0.982492 4.1705 0.997992 4.0095 1.10149 3.8325L1.10199 3.832ZM3.02249 10.1435C2.40849 9.939 1.99649 9.3665 1.99699 8.7195L1.99949 5.8955L3.58049 6.4225C4.25249 6.6465 4.97649 6.379 5.35999 5.737L5.49899 5.4585L5.49649 10.949C5.39799 10.929 5.30099 10.9035 5.20599 10.8715L3.02299 10.144L3.02249 10.1435ZM8.97099 10.143L6.78599 10.8715C6.69099 10.903 6.59399 10.929 6.49549 10.949L6.49799 5.4515L6.65749 5.7715C6.93549 6.2355 7.42349 6.501 7.93799 6.501C8.09749 6.501 8.25949 6.4755 8.41799 6.4225L9.99849 5.896L9.99599 8.7215C9.99599 9.3675 9.58299 9.939 8.96999 10.1435L8.97099 10.143ZM10.971 4.321C10.9185 4.4635 10.8055 4.573 10.6615 4.621L8.10249 5.474C7.88349 5.5475 7.63549 5.4565 7.53449 5.2915L6.70699 3.63C6.70699 3.63 10.21 2.4545 10.234 2.4415L10.9305 3.892C11.009 4.0225 11.0235 4.179 10.971 4.3215V4.321Z" fill="white"/>
</g>
<defs>
<clipPath id="clip0_96_12438">
<rect width="12" height="12" fill="white"/>
</clipPath>
</defs>
</svg>
