<svg width="16" height="16" viewBox="0 0 16 16" fill="none" xmlns="http://www.w3.org/2000/svg">
<g clip-path="url(#clip0_96_12364)">
<path d="M14 2.66667H11.9333C11.7786 1.91428 11.3692 1.23823 10.7742 0.752479C10.1791 0.266727 9.4348 0.000969683 8.66667 0L7.33333 0C6.5652 0.000969683 5.82088 0.266727 5.22583 0.752479C4.63079 1.23823 4.2214 1.91428 4.06667 2.66667H2C1.82319 2.66667 1.65362 2.7369 1.52859 2.86193C1.40357 2.98695 1.33333 3.15652 1.33333 3.33333C1.33333 3.51014 1.40357 3.67971 1.52859 3.80474C1.65362 3.92976 1.82319 4 2 4H2.66667V12.6667C2.66772 13.5504 3.01925 14.3976 3.64415 15.0225C4.26904 15.6474 5.11627 15.9989 6 16H10C10.8837 15.9989 11.731 15.6474 12.3559 15.0225C12.9807 14.3976 13.3323 13.5504 13.3333 12.6667V4H14C14.1768 4 14.3464 3.92976 14.4714 3.80474C14.5964 3.67971 14.6667 3.51014 14.6667 3.33333C14.6667 3.15652 14.5964 2.98695 14.4714 2.86193C14.3464 2.7369 14.1768 2.66667 14 2.66667ZM7.33333 1.33333H8.66667C9.08018 1.33384 9.48342 1.46225 9.82108 1.70096C10.1587 1.93967 10.4143 2.27699 10.5527 2.66667H5.44733C5.58572 2.27699 5.84127 1.93967 6.17892 1.70096C6.51658 1.46225 6.91982 1.33384 7.33333 1.33333ZM12 12.6667C12 13.1971 11.7893 13.7058 11.4142 14.0809C11.0391 14.456 10.5304 14.6667 10 14.6667H6C5.46957 14.6667 4.96086 14.456 4.58579 14.0809C4.21071 13.7058 4 13.1971 4 12.6667V4H12V12.6667Z" fill="#FF0F0F"/>
<path d="M6.66667 12.0013C6.84348 12.0013 7.01305 11.9311 7.13807 11.806C7.2631 11.681 7.33333 11.5114 7.33333 11.3346V7.33464C7.33333 7.15782 7.2631 6.98826 7.13807 6.86323C7.01305 6.73821 6.84348 6.66797 6.66667 6.66797C6.48986 6.66797 6.32029 6.73821 6.19526 6.86323C6.07024 6.98826 6 7.15782 6 7.33464V11.3346C6 11.5114 6.07024 11.681 6.19526 11.806C6.32029 11.9311 6.48986 12.0013 6.66667 12.0013Z" fill="#FF0F0F"/>
<path d="M9.33333 12.0013C9.51014 12.0013 9.67971 11.9311 9.80474 11.806C9.92976 11.681 10 11.5114 10 11.3346V7.33464C10 7.15782 9.92976 6.98826 9.80474 6.86323C9.67971 6.73821 9.51014 6.66797 9.33333 6.66797C9.15652 6.66797 8.98695 6.73821 8.86193 6.86323C8.7369 6.98826 8.66666 7.15782 8.66666 7.33464V11.3346C8.66666 11.5114 8.7369 11.681 8.86193 11.806C8.98695 11.9311 9.15652 12.0013 9.33333 12.0013Z" fill="#FF0F0F"/>
</g>
<defs>
<clipPath id="clip0_96_12364">
<rect width="16" height="16" fill="white"/>
</clipPath>
</defs>
</svg>
