<svg width="12" height="12" viewBox="0 0 12 12" fill="none" xmlns="http://www.w3.org/2000/svg">
<g clip-path="url(#clip0_96_12173)">
<path d="M9.5 0.5H2.5C1.12 0.5 0 1.62 0 3V9C0 10.38 1.12 11.5 2.5 11.5H9.5C10.88 11.5 12 10.38 12 9V3C12 1.62 10.88 0.5 9.5 0.5ZM2.5 1.5H9.5C10.325 1.5 11 2.175 11 3V4H1V3C1 2.175 1.675 1.5 2.5 1.5ZM9.5 10.5H2.5C1.675 10.5 1 9.825 1 9V5H11V9C11 9.825 10.325 10.5 9.5 10.5ZM9 2.75C9 2.335 9.335 2 9.75 2C10.165 2 10.5 2.335 10.5 2.75C10.5 3.165 10.165 3.5 9.75 3.5C9.335 3.5 9 3.165 9 2.75ZM7 2.75C7 2.335 7.335 2 7.75 2C8.165 2 8.5 2.335 8.5 2.75C8.5 3.165 8.165 3.5 7.75 3.5C7.335 3.5 7 3.165 7 2.75ZM5 2.75C5 2.335 5.335 2 5.75 2C6.165 2 6.5 2.335 6.5 2.75C6.5 3.165 6.165 3.5 5.75 3.5C5.335 3.5 5 3.165 5 2.75Z" fill="white"/>
</g>
<defs>
<clipPath id="clip0_96_12173">
<rect width="12" height="12" fill="white"/>
</clipPath>
</defs>
</svg>
