<svg width="23" height="23" viewBox="0 0 23 23" fill="none" xmlns="http://www.w3.org/2000/svg">
<path fill-rule="evenodd" clip-rule="evenodd" d="M16.554 7.38729C14.0227 4.85601 9.9187 4.85601 7.38743 7.38729C4.85616 9.91856 4.85616 14.0226 7.38743 16.5538C9.9187 19.0851 14.0227 19.0851 16.554 16.5538C19.0853 14.0226 19.0853 9.91856 16.554 7.38729ZM6.47077 6.47063C9.5083 3.43311 14.4331 3.43311 17.4706 6.47063C20.5082 9.50816 20.5082 14.433 17.4706 17.4705C14.4331 20.508 9.5083 20.508 6.47077 17.4705C3.43325 14.433 3.43325 9.50816 6.47077 6.47063Z" fill="white"/>
<rect x="14.7205" y="13.8027" width="1.29635" height="6.48173" rx="0.648173" transform="rotate(135 14.7205 13.8027)" fill="white"/>
<rect x="10.1377" y="14.7207" width="1.29635" height="6.48173" rx="0.648173" transform="rotate(-135 10.1377 14.7207)" fill="white"/>
</svg>
