<svg width="15" height="15" viewBox="0 0 15 15" fill="none" xmlns="http://www.w3.org/2000/svg">
<path d="M0.348954 14.651C0.572457 14.8745 0.875553 15 1.19159 15C1.50762 15 1.81071 14.8745 2.03422 14.651L7.5 9.18526L12.9658 14.651C13.1893 14.8745 13.4924 15 13.8084 15C14.1244 15 14.4275 14.8745 14.651 14.651C14.8745 14.4275 15 14.1244 15 13.8084C15 13.4924 14.8745 13.1893 14.651 12.9658L9.18526 7.5L14.651 2.03422C14.8745 1.81071 15 1.50762 15 1.19159C15 0.875553 14.8745 0.572457 14.651 0.348954C14.4275 0.125518 14.1244 0 13.8084 0C13.4924 0 13.1893 0.125518 12.9658 0.348954L7.5 5.81474L2.03422 0.348954C1.81071 0.125518 1.50762 0 1.19159 0C0.875553 0 0.572457 0.125518 0.348954 0.348954C0.125518 0.572457 0 0.875553 0 1.19159C0 1.50762 0.125518 1.81071 0.348954 2.03422L5.81474 7.5L0.348954 12.9658C0.125518 13.1893 0 13.4924 0 13.8084C0 14.1244 0.125518 14.4275 0.348954 14.651Z" fill="#00103C"/>
</svg>
