<svg width="188" height="41" viewBox="0 0 188 41" fill="none" xmlns="http://www.w3.org/2000/svg">
<g clip-path="url(#clip0_96_2924)">
<path d="M0.92985 24.6724C-0.30995 23.4178 -0.30995 21.3857 0.92985 20.1311L19.8892 0.940955C21.129 -0.313652 23.1371 -0.313652 24.3769 0.940955C25.6167 2.19556 25.6167 4.22767 24.3769 5.48228L5.41758 24.6724C4.17778 25.9271 2.16965 25.9271 0.92985 24.6724Z" fill="#01EA88"/>
<path d="M14.0314 26.8592C12.7916 25.6046 12.7916 23.5725 14.0314 22.3179L22.0508 14.2027C23.2906 12.9481 25.2988 12.9481 26.5386 14.2027C27.7784 15.4573 27.7784 17.4894 26.5386 18.744L18.5191 26.8592C17.2793 28.1138 15.2712 28.1138 14.0314 26.8592Z" fill="#FFCE00"/>
<path d="M16.1408 40.0587C14.901 38.8041 14.901 36.7719 16.1408 35.5173L35.1001 16.3316C36.3399 15.077 38.3481 15.077 39.5879 16.3316C40.8277 17.5862 40.8277 19.6183 39.5879 20.8729L20.6285 40.0587C19.3887 41.3133 17.3806 41.3133 16.1408 40.0587Z" fill="#1C7CFF"/>
<path d="M55.9062 29.509V9.81079C55.9062 8.93168 56.1594 8.31321 56.6702 7.9598C57.181 7.60639 57.8489 7.42969 58.674 7.42969C59.2895 7.42969 59.8352 7.50479 60.311 7.65499C60.7869 7.80519 61.0925 7.90237 61.2191 7.94655V29.5134H55.9062V29.509Z" fill="#00103C"/>
<path d="M64.7148 19.563C64.7148 18.4498 64.9287 17.4558 65.3522 16.5856C65.7757 15.7153 66.3606 14.9908 67.1028 14.4121C67.8449 13.8334 68.7049 13.3916 69.6784 13.0912C70.6519 12.7908 71.704 12.6406 72.8259 12.6406C73.9479 12.6406 74.9738 12.7908 75.9604 13.0912C76.947 13.3916 77.807 13.8334 78.536 14.4121C79.265 14.9908 79.8456 15.7153 80.2691 16.5856C80.6925 17.4558 80.9065 18.4454 80.9065 19.563V29.5071H75.7857V20.7514C75.7857 19.6161 75.5325 18.7723 75.0218 18.2245C74.511 17.6767 73.782 17.4028 72.8259 17.4028C70.8309 17.4028 69.8356 18.5205 69.8356 20.7514V29.5071H64.7148V19.563Z" fill="#00103C"/>
<path d="M85.2634 24.4843C85.4337 24.6124 85.7131 24.767 86.106 24.9526C86.4989 25.1337 86.966 25.306 87.5073 25.4694C88.0486 25.6329 88.6641 25.7698 89.3539 25.8891C90.0436 26.0084 90.7683 26.0658 91.5323 26.0658C92.401 26.0658 93.0602 25.9863 93.5055 25.8228C93.9508 25.6638 94.1734 25.3766 94.1734 24.9702C94.1734 24.5417 93.9857 24.2457 93.6146 24.0867C93.2435 23.9277 92.6673 23.7907 91.8815 23.6847L90.227 23.4903C89.4019 23.3843 88.603 23.2297 87.8434 23.022C87.0795 22.8188 86.4072 22.5184 85.8222 22.1209C85.2372 21.7233 84.7789 21.2152 84.4383 20.5924C84.0978 19.9695 83.9276 19.1875 83.9276 18.2422C83.9276 17.447 84.0716 16.7137 84.3554 16.0378C84.6435 15.3619 85.0932 14.7699 85.7087 14.2663C86.3242 13.7627 87.11 13.3651 88.0617 13.0736C89.0178 12.782 90.1484 12.6406 91.4668 12.6406C92.7852 12.6406 93.9508 12.729 94.9199 12.8968C95.8847 13.0691 96.7185 13.3386 97.417 13.7009C97.8186 13.9173 98.1416 14.178 98.3861 14.4916C98.6306 14.8053 98.7528 15.1852 98.7528 15.6358C98.7528 15.9804 98.683 16.2852 98.5476 16.5546C98.4079 16.8241 98.2508 17.0538 98.0718 17.2482C97.8928 17.4426 97.7225 17.5928 97.561 17.6988C97.4039 17.8048 97.2991 17.8711 97.2598 17.8932C97.1943 17.8269 97.0197 17.7121 96.7359 17.5398C96.4478 17.3675 96.068 17.204 95.5922 17.0406C95.1163 16.8815 94.5445 16.7358 93.8765 16.6077C93.2086 16.4795 92.449 16.4133 91.6021 16.4133C90.6461 16.4133 89.9825 16.5237 89.6158 16.749C89.2491 16.9743 89.0614 17.2703 89.0614 17.6325C89.0614 17.9948 89.2317 18.2554 89.5722 18.4056C89.9127 18.5558 90.4191 18.6839 91.1001 18.7944L93.9944 19.2141C94.7147 19.3201 95.4088 19.4747 96.0768 19.6823C96.7447 19.89 97.3384 20.1815 97.8579 20.5658C98.3774 20.9546 98.7921 21.445 99.0977 22.0458C99.4033 22.6466 99.5604 23.3755 99.5604 24.2369C99.5604 26.0393 98.8838 27.4441 97.5261 28.4513C96.1684 29.4585 94.2913 29.9621 91.8946 29.9621C90.6417 29.9621 89.5372 29.8738 88.5725 29.7059C87.6077 29.5336 86.7739 29.3348 86.0754 29.1095C85.3769 28.8842 84.8094 28.6501 84.3729 28.4027C83.9363 28.1553 83.6351 27.9698 83.4648 27.8373L85.2765 24.4887L85.2634 24.4843Z" fill="#00103C"/>
<path d="M101.961 35.9441V22.0374C101.961 20.6635 102.101 19.4752 102.376 18.4636C102.651 17.4563 103.044 16.6082 103.554 15.919C104.362 14.8455 105.388 14.0327 106.641 13.4717C107.894 12.915 109.282 12.6367 110.805 12.6367C112.058 12.6367 113.215 12.8443 114.289 13.264C115.359 13.6837 116.288 14.2668 117.074 15.0178C117.86 15.7688 118.476 16.6833 118.921 17.7523C119.366 18.8258 119.589 20.0053 119.589 21.2909C119.589 22.5764 119.384 23.7824 118.969 24.8294C118.554 25.8808 117.995 26.782 117.284 27.533C116.572 28.284 115.743 28.8627 114.787 29.2691C113.831 29.6755 112.814 29.8787 111.735 29.8787C110.548 29.8787 109.566 29.6888 108.793 29.3177C108.02 28.9422 107.44 28.5623 107.06 28.1735V35.9309H101.97L101.961 35.9441ZM110.674 25.227C111.735 25.227 112.608 24.8559 113.298 24.1181C113.988 23.376 114.333 22.4262 114.333 21.2688C114.333 20.1113 113.988 19.1748 113.298 18.468C112.608 17.7612 111.735 17.4078 110.674 17.4078C109.614 17.4078 108.741 17.7523 108.051 18.4371C107.361 19.1262 107.016 20.0672 107.016 21.2688C107.016 21.8254 107.108 22.3467 107.287 22.8282C107.466 23.3097 107.723 23.7294 108.051 24.0828C108.378 24.4362 108.767 24.7145 109.212 24.9177C109.657 25.1209 110.146 25.2225 110.674 25.2225V25.227Z" fill="#00103C"/>
<path d="M122.32 8.68261C122.32 7.86535 122.591 7.18062 123.132 6.62399C123.674 6.06737 124.346 5.78906 125.154 5.78906C125.961 5.78906 126.638 6.06737 127.188 6.62399C127.738 7.18062 128.013 7.86977 128.013 8.68261C128.013 9.49545 127.738 10.1802 127.188 10.728C126.638 11.2758 125.957 11.5496 125.154 11.5496C124.35 11.5496 123.674 11.2758 123.132 10.728C122.591 10.1802 122.32 9.49987 122.32 8.68261ZM122.608 15.3797C122.608 14.5448 122.853 13.9528 123.342 13.6083C123.831 13.2637 124.477 13.0914 125.28 13.0914C125.852 13.0914 126.371 13.1621 126.839 13.299C127.306 13.4404 127.603 13.5287 127.729 13.5729V29.5073H122.608V15.3753V15.3797Z" fill="#00103C"/>
<path d="M131.38 19.2052C131.38 18.1538 131.554 17.2217 131.904 16.4044C132.253 15.5872 132.737 14.9024 133.349 14.3458C133.964 13.7892 134.706 13.3651 135.575 13.0736C136.444 12.782 137.4 12.6406 138.439 12.6406C139.709 12.6406 140.7 12.782 141.412 13.0603C142.123 13.3386 142.638 13.639 142.953 13.9615C143.145 14.178 143.293 14.4033 143.398 14.6374C143.503 14.8759 143.555 15.1543 143.555 15.4723C143.555 15.7904 143.507 16.0952 143.411 16.3735C143.315 16.6518 143.197 16.8992 143.062 17.1157C142.922 17.3321 142.791 17.5133 142.665 17.6635C142.538 17.8137 142.442 17.9197 142.377 17.986C142.014 17.8137 141.582 17.6546 141.071 17.5044C140.56 17.3542 140.002 17.2791 139.386 17.2791C138.579 17.2791 137.898 17.5177 137.334 17.986C136.771 18.4586 136.492 19.2406 136.492 20.3361V29.5115H131.371V19.2096L131.38 19.2052Z" fill="#00103C"/>
<path d="M149.798 23.455C149.841 23.7112 149.95 23.963 150.129 24.2104C150.308 24.4578 150.566 24.6875 150.893 24.904C151.221 25.1204 151.64 25.2883 152.151 25.4208C152.661 25.5489 153.273 25.6152 153.997 25.6152C154.547 25.6152 155.067 25.5666 155.556 25.4694C156.045 25.3722 156.468 25.2706 156.83 25.1646C157.193 25.0586 157.485 24.9481 157.721 24.8421C157.952 24.7361 158.092 24.661 158.136 24.6168L159.917 28.2216C159.747 28.3276 159.467 28.4778 159.074 28.6722C158.681 28.8666 158.188 29.0565 157.594 29.2509C157.001 29.4453 156.307 29.6087 155.512 29.7501C154.718 29.8915 153.84 29.9577 152.888 29.9577C151.701 29.9577 150.588 29.7633 149.549 29.379C148.51 28.9903 147.602 28.4292 146.829 27.6871C146.056 26.9449 145.445 26.0393 145 24.9658C144.555 23.8923 144.332 22.6686 144.332 21.2948C144.332 20.0092 144.555 18.8297 145 17.7562C145.445 16.6828 146.061 15.7727 146.847 15.0217C147.632 14.2707 148.553 13.6876 149.614 13.2679C150.675 12.8483 151.819 12.6406 153.05 12.6406C154.194 12.6406 155.224 12.7952 156.136 13.1089C157.049 13.4225 157.817 13.8422 158.441 14.3812C159.066 14.9157 159.546 15.5298 159.873 16.2145C160.201 16.8992 160.366 17.6105 160.366 18.3394C160.366 19.1345 160.227 19.8458 159.952 20.4819C159.677 21.1136 159.183 21.6526 158.472 22.0899C157.76 22.5317 156.796 22.8674 155.578 23.106C154.36 23.3401 152.805 23.4594 150.92 23.4594H149.806L149.798 23.455ZM149.544 20.1064C150.963 20.1064 152.068 20.0534 152.853 19.9474C153.639 19.8414 154.22 19.7 154.604 19.5277C154.988 19.3554 155.22 19.161 155.303 18.949C155.385 18.7325 155.429 18.5205 155.429 18.304C155.429 17.8534 155.228 17.4603 154.827 17.1289C154.425 16.7976 153.818 16.6297 153.015 16.6297C152.443 16.6297 151.945 16.7313 151.522 16.9346C151.099 17.1378 150.741 17.4028 150.457 17.7253C150.169 18.0478 149.955 18.4189 149.806 18.8341C149.658 19.2538 149.571 19.6779 149.553 20.1064H149.544Z" fill="#00103C"/>
<path d="M163 8.06958C163 7.23465 163.244 6.64269 163.733 6.29811C164.222 5.95354 164.868 5.78125 165.672 5.78125C166.244 5.78125 166.763 5.85193 167.23 5.98888C167.697 6.13024 167.994 6.2186 168.121 6.26277V29.5039H163V8.06958Z" fill="#00103C"/>
<path d="M173.656 31.2816C173.739 31.3258 173.927 31.3921 174.211 31.4893C174.499 31.5865 174.853 31.6836 175.276 31.7808C175.7 31.878 176.184 31.9619 176.721 32.037C177.262 32.1121 177.817 32.1475 178.393 32.1475C180.026 32.1475 181.204 31.7941 181.925 31.0873C182.645 30.3804 183.007 29.2098 183.007 27.5797C182.606 28.0744 181.99 28.4632 181.161 28.7548C180.336 29.0463 179.506 29.1877 178.681 29.1877C177.708 29.1877 176.8 29.064 175.961 28.8166C175.123 28.5692 174.39 28.1893 173.766 27.6724C173.141 27.1556 172.652 26.5106 172.303 25.7243C171.954 24.9423 171.779 24.0146 171.779 22.9412V15.3782C171.779 14.5432 172.024 13.9513 172.513 13.6067C173.002 13.2621 173.648 13.0898 174.451 13.0898C175.023 13.0898 175.542 13.1605 176.009 13.2975C176.477 13.4388 176.773 13.5272 176.9 13.5714V21.8765C176.9 22.9058 177.14 23.648 177.616 24.0986C178.092 24.5492 178.838 24.7745 179.86 24.7745C180.816 24.7745 181.554 24.4962 182.086 23.9395C182.614 23.3829 182.881 22.5215 182.881 21.3641V15.3782C182.881 14.5432 183.125 13.9513 183.614 13.6067C184.103 13.2621 184.749 13.0898 185.552 13.0898C186.124 13.0898 186.644 13.1605 187.111 13.2975C187.578 13.4388 187.875 13.5272 188.001 13.5714V27.2174C188.001 28.8475 187.788 30.2391 187.364 31.3877C186.941 32.5362 186.334 33.4684 185.552 34.1884C184.767 34.9085 183.837 35.4342 182.754 35.7655C181.672 36.0968 180.462 36.2647 179.126 36.2647C178.192 36.2647 177.332 36.2117 176.551 36.1057C175.765 35.9997 175.075 35.876 174.482 35.7346C173.888 35.5932 173.412 35.4607 173.05 35.3326C172.687 35.2045 172.478 35.1161 172.412 35.0764L173.652 31.2772L173.656 31.2816Z" fill="#00103C"/>
</g>
<defs>
<clipPath id="clip0_96_2924">
<rect width="188" height="41" fill="white"/>
</clipPath>
</defs>
</svg>
