<svg width="176" height="38" viewBox="0 0 176 38" fill="none" xmlns="http://www.w3.org/2000/svg">
<path d="M0.870498 22.8671C-0.290166 21.7043 -0.290166 19.8209 0.870498 18.6581L18.6197 0.872104C19.7803 -0.290701 21.6603 -0.290701 22.8209 0.872104C23.9816 2.03491 23.9816 3.91833 22.8209 5.08113L5.07178 22.8671C3.91111 24.03 2.03116 24.03 0.870498 22.8671Z" fill="#01EA88"/>
<path d="M13.1351 24.8935C11.9745 23.7307 11.9745 21.8473 13.1351 20.6845L20.6427 13.1631C21.8033 12.0003 23.6833 12.0003 24.844 13.1631C26.0046 14.3259 26.0046 16.2093 24.844 17.3721L17.3364 24.8935C16.1758 26.0563 14.2958 26.0563 13.1351 24.8935Z" fill="#FFCE00"/>
<path d="M15.1088 37.1287C13.9481 35.9659 13.9481 34.0825 15.1088 32.9196L32.858 15.1377C34.0186 13.9749 35.8986 13.9749 37.0592 15.1377C38.2199 16.3005 38.2199 18.184 37.0592 19.3468L19.3101 37.1287C18.1494 38.2915 16.2694 38.2915 15.1088 37.1287Z" fill="#1C7CFF"/>
<path d="M52.3359 27.3505V9.09359C52.3359 8.27881 52.573 7.7056 53.0511 7.37805C53.5293 7.05049 54.1546 6.88672 54.927 6.88672C55.5032 6.88672 56.0141 6.95632 56.4596 7.09553C56.905 7.23474 57.1911 7.32482 57.3096 7.36576V27.3546H52.3359V27.3505Z" fill="white"/>
<path d="M60.583 18.1347C60.583 17.1029 60.7833 16.1816 61.1797 15.375C61.5761 14.5684 62.1237 13.897 62.8185 13.3606C63.5133 12.8242 64.3184 12.4148 65.2297 12.1364C66.1411 11.858 67.126 11.7188 68.1764 11.7188C69.2267 11.7188 70.1871 11.858 71.1107 12.1364C72.0343 12.4148 72.8395 12.8242 73.522 13.3606C74.2045 13.897 74.748 14.5684 75.1444 15.375C75.5409 16.1816 75.7411 17.0988 75.7411 18.1347V27.3511H70.9472V19.236C70.9472 18.1838 70.7102 17.4018 70.232 16.8941C69.7539 16.3863 69.0714 16.1325 68.1764 16.1325C66.3087 16.1325 65.3769 17.1684 65.3769 19.236V27.3511H60.583V18.1347Z" fill="white"/>
<path d="M79.8195 22.6958C79.9789 22.8145 80.2405 22.9578 80.6083 23.1298C80.9761 23.2977 81.4134 23.4574 81.9202 23.6088C82.4269 23.7603 83.0032 23.8873 83.6489 23.9978C84.2946 24.1084 84.973 24.1616 85.6882 24.1616C86.5015 24.1616 87.1186 24.0879 87.5355 23.9364C87.9523 23.789 88.1608 23.5229 88.1608 23.1462C88.1608 22.749 87.985 22.4747 87.6377 22.3273C87.2903 22.1799 86.7508 22.053 86.0152 21.9547L84.4663 21.7746C83.6938 21.6763 82.946 21.533 82.2348 21.3406C81.5196 21.1522 80.8903 20.8738 80.3426 20.5053C79.795 20.1368 79.3659 19.666 79.0471 19.0886C78.7283 18.5113 78.5689 17.7866 78.5689 16.9104C78.5689 16.1734 78.7038 15.4938 78.9695 14.8673C79.2392 14.2409 79.6601 13.6922 80.2364 13.2255C80.8126 12.7587 81.5483 12.3902 82.4392 12.12C83.3342 11.8498 84.3927 11.7188 85.6269 11.7188C86.8612 11.7188 87.9523 11.8006 88.8596 11.9562C89.7628 12.1159 90.5434 12.3657 91.1973 12.7014C91.5733 12.902 91.8757 13.1436 92.1046 13.4343C92.3334 13.725 92.4479 14.0771 92.4479 14.4947C92.4479 14.8141 92.3825 15.0966 92.2558 15.3464C92.125 15.5961 91.9779 15.809 91.8103 15.9892C91.6428 16.1693 91.4834 16.3086 91.3322 16.4068C91.185 16.5051 91.087 16.5665 91.0502 16.587C90.9889 16.5256 90.8254 16.4191 90.5597 16.2594C90.29 16.0997 89.9345 15.9483 89.489 15.7968C89.0435 15.6494 88.5082 15.5142 87.8829 15.3955C87.2576 15.2768 86.5465 15.2154 85.7536 15.2154C84.8586 15.2154 84.2374 15.3177 83.8941 15.5265C83.5508 15.7353 83.3751 16.0097 83.3751 16.3454C83.3751 16.6811 83.5345 16.9227 83.8532 17.0619C84.172 17.2011 84.6461 17.3199 85.2836 17.4222L87.9932 17.8112C88.6675 17.9095 89.3174 18.0528 89.9426 18.2452C90.5679 18.4376 91.1237 18.7079 91.6101 19.0641C92.0964 19.4244 92.4847 19.8789 92.7707 20.4357C93.0568 20.9925 93.2039 21.6681 93.2039 22.4665C93.2039 24.137 92.5705 25.439 91.2995 26.3726C90.0285 27.3061 88.2711 27.7728 86.0274 27.7728C84.8545 27.7728 83.8205 27.691 82.9174 27.5354C82.0142 27.3757 81.2336 27.1914 80.5797 26.9826C79.9258 26.7738 79.3945 26.5568 78.9858 26.3275C78.5771 26.0982 78.2951 25.9263 78.1357 25.8034L79.8318 22.6999L79.8195 22.6958Z" fill="white"/>
<path d="M95.4521 33.3149V20.4257C95.4521 19.1524 95.5829 18.051 95.8404 17.1134C96.0979 16.1799 96.4657 15.3937 96.9439 14.755C97.6999 13.7601 98.6603 13.0067 99.8332 12.4867C101.006 11.9708 102.306 11.7129 103.732 11.7129C104.905 11.7129 105.988 11.9053 106.993 12.2943C107.995 12.6833 108.865 13.2237 109.601 13.9198C110.336 14.6158 110.913 15.4633 111.33 16.4542C111.746 17.4491 111.955 18.5423 111.955 19.7338C111.955 20.9253 111.763 22.043 111.374 23.0134C110.986 23.9879 110.463 24.8231 109.797 25.5192C109.131 26.2152 108.354 26.7516 107.459 27.1283C106.564 27.5049 105.612 27.6933 104.603 27.6933C103.491 27.6933 102.571 27.5172 101.848 27.1733C101.125 26.8253 100.581 26.4732 100.226 26.1128V33.3026H95.4603L95.4521 33.3149ZM103.609 23.3819C104.603 23.3819 105.42 23.038 106.066 22.3542C106.711 21.6663 107.034 20.7861 107.034 19.7133C107.034 18.6406 106.711 17.7726 106.066 17.1175C105.42 16.4624 104.603 16.1348 103.609 16.1348C102.616 16.1348 101.799 16.4542 101.153 17.0888C100.508 17.7275 100.185 18.5996 100.185 19.7133C100.185 20.2292 100.271 20.7124 100.438 21.1586C100.606 21.6049 100.847 21.9939 101.153 22.3214C101.46 22.649 101.824 22.9069 102.24 23.0953C102.657 23.2836 103.115 23.3778 103.609 23.3778V23.3819Z" fill="white"/>
<path d="M114.509 8.04901C114.509 7.29155 114.762 6.65692 115.269 6.14103C115.776 5.62513 116.405 5.36719 117.161 5.36719C117.917 5.36719 118.551 5.62513 119.066 6.14103C119.581 6.65692 119.838 7.29564 119.838 8.04901C119.838 8.80238 119.581 9.43701 119.066 9.94471C118.551 10.4524 117.913 10.7063 117.161 10.7063C116.409 10.7063 115.776 10.4524 115.269 9.94471C114.762 9.43701 114.509 8.80647 114.509 8.04901ZM114.779 14.2561C114.779 13.4823 115.007 12.9336 115.465 12.6143C115.923 12.2949 116.528 12.1352 117.28 12.1352C117.815 12.1352 118.301 12.2007 118.739 12.3276C119.176 12.4587 119.454 12.5406 119.572 12.5815V27.3499H114.779V14.252V14.2561Z" fill="white"/>
<path d="M122.994 17.803C122.994 16.8285 123.157 15.9646 123.484 15.2072C123.811 14.4497 124.265 13.8151 124.837 13.2992C125.413 12.7833 126.108 12.3902 126.921 12.12C127.734 11.8498 128.629 11.7188 129.602 11.7188C130.791 11.7188 131.719 11.8498 132.385 12.1077C133.051 12.3657 133.533 12.6441 133.828 12.943C134.008 13.1436 134.147 13.3524 134.245 13.5694C134.343 13.7905 134.392 14.0485 134.392 14.3433C134.392 14.638 134.347 14.9206 134.257 15.1785C134.167 15.4365 134.057 15.6657 133.93 15.8664C133.799 16.067 133.677 16.2349 133.558 16.3741C133.44 16.5133 133.35 16.6115 133.288 16.673C132.949 16.5133 132.544 16.3659 132.066 16.2267C131.588 16.0875 131.065 16.0179 130.489 16.0179C129.733 16.0179 129.095 16.239 128.568 16.673C128.041 17.1111 127.779 17.8358 127.779 18.8512V27.3552H122.985V17.8071L122.994 17.803Z" fill="white"/>
<path d="M140.236 21.7418C140.277 21.9793 140.379 22.2127 140.546 22.4419C140.714 22.6712 140.955 22.8841 141.262 23.0848C141.568 23.2854 141.961 23.441 142.439 23.5638C142.917 23.6825 143.489 23.744 144.167 23.744C144.682 23.744 145.169 23.6989 145.626 23.6088C146.084 23.5188 146.481 23.4246 146.82 23.3263C147.159 23.2281 147.433 23.1257 147.654 23.0274C147.87 22.9292 148.001 22.8596 148.042 22.8186L149.709 26.1596C149.55 26.2579 149.288 26.3971 148.92 26.5773C148.553 26.7574 148.091 26.9335 147.535 27.1136C146.979 27.2938 146.329 27.4453 145.586 27.5763C144.842 27.7073 144.02 27.7687 143.129 27.7687C142.018 27.7687 140.976 27.5886 140.003 27.2324C139.03 26.8721 138.18 26.3521 137.457 25.6642C136.733 24.9764 136.161 24.137 135.744 23.1421C135.328 22.1472 135.119 21.013 135.119 19.7397C135.119 18.5482 135.328 17.455 135.744 16.46C136.161 15.4651 136.738 14.6217 137.473 13.9256C138.209 13.2296 139.071 12.6891 140.064 12.3002C141.057 11.9112 142.128 11.7188 143.281 11.7188C144.351 11.7188 145.316 11.8621 146.17 12.1528C147.024 12.4435 147.743 12.8324 148.328 13.3319C148.912 13.8274 149.362 14.3965 149.668 15.0311C149.975 15.6657 150.13 16.3249 150.13 17.0005C150.13 17.7375 149.999 18.3967 149.742 18.9863C149.484 19.5718 149.023 20.0713 148.356 20.4766C147.69 20.8861 146.787 21.1973 145.647 21.4184C144.507 21.6354 143.052 21.7459 141.286 21.7459H140.244L140.236 21.7418ZM139.999 18.6383C141.327 18.6383 142.361 18.5891 143.097 18.4909C143.832 18.3926 144.376 18.2616 144.735 18.1019C145.095 17.9422 145.312 17.7621 145.389 17.5655C145.467 17.3649 145.508 17.1684 145.508 16.9678C145.508 16.5501 145.32 16.1857 144.944 15.8786C144.568 15.5716 144 15.416 143.248 15.416C142.713 15.416 142.247 15.5102 141.85 15.6985C141.454 15.8868 141.119 16.1325 140.853 16.4314C140.583 16.7303 140.383 17.0742 140.244 17.4591C140.105 17.848 140.023 18.2411 140.007 18.6383H139.999Z" fill="white"/>
<path d="M152.595 7.48027C152.595 6.70643 152.824 6.15778 153.281 5.83842C153.739 5.51906 154.344 5.35938 155.096 5.35938C155.631 5.35938 156.118 5.42489 156.555 5.55181C156.992 5.68283 157.27 5.76472 157.389 5.80566V27.3462H152.595V7.48027Z" fill="white"/>
<path d="M162.571 28.9915C162.648 29.0325 162.824 29.0939 163.09 29.184C163.36 29.2741 163.691 29.3641 164.087 29.4542C164.483 29.5443 164.937 29.6221 165.44 29.6917C165.947 29.7613 166.466 29.794 167.005 29.794C168.534 29.794 169.637 29.4665 170.311 28.8114C170.986 28.1563 171.325 27.0713 171.325 25.5604C170.949 26.019 170.373 26.3793 169.596 26.6496C168.824 26.9198 168.047 27.0508 167.275 27.0508C166.363 27.0508 165.513 26.9362 164.729 26.7069C163.944 26.4776 163.257 26.1255 162.673 25.6464C162.089 25.1674 161.631 24.5696 161.304 23.8408C160.977 23.1161 160.813 22.2563 160.813 21.2613V14.2518C160.813 13.4779 161.042 12.9293 161.5 12.6099C161.958 12.2905 162.563 12.1309 163.315 12.1309C163.85 12.1309 164.336 12.1964 164.774 12.3233C165.211 12.4543 165.489 12.5362 165.607 12.5771V20.2746C165.607 21.2286 165.832 21.9164 166.278 22.3341C166.723 22.7517 167.422 22.9605 168.378 22.9605C169.273 22.9605 169.964 22.7026 170.463 22.1867C170.957 21.6708 171.206 20.8724 171.206 19.7996V14.2518C171.206 13.4779 171.435 12.9293 171.893 12.6099C172.351 12.2905 172.956 12.1309 173.707 12.1309C174.243 12.1309 174.729 12.1964 175.166 12.3233C175.604 12.4543 175.882 12.5362 176 12.5771V25.2247C176 26.7355 175.8 28.0253 175.404 29.0898C175.007 30.1544 174.439 31.0183 173.707 31.6856C172.972 32.353 172.101 32.8403 171.088 33.1473C170.074 33.4544 168.942 33.61 167.692 33.61C166.817 33.61 166.012 33.5609 165.28 33.4626C164.545 33.3643 163.899 33.2497 163.343 33.1187C162.787 32.9877 162.342 32.8648 162.003 32.7461C161.664 32.6274 161.467 32.5455 161.406 32.5086L162.567 28.9874L162.571 28.9915Z" fill="white"/>
</svg>
