<svg width="169" height="228" viewBox="0 0 169 228" fill="none" xmlns="http://www.w3.org/2000/svg">
<path d="M16.7982 147.71C27.7796 154.32 41.1415 155.721 53.4612 157.915C67.2313 160.373 81.1073 162.841 94.5221 167.014C115.906 173.697 133.868 185.025 147.464 201.419C143.69 198.955 139.982 196.298 135.781 194.518C130.963 192.466 126.453 199.064 131.091 202.175C141.302 208.993 150.464 216.19 158.62 225.299C163.031 230.199 170.623 226.302 168.5 220.195C163.963 207.062 162.288 193.346 162.337 179.738C162.342 171.508 150.153 170.978 150.463 179.361C150.629 183.795 151.322 188.155 151.853 192.538C143.416 181.748 131.756 173.007 119.325 166.682C94.3437 154.016 66.521 150.776 39.5884 145.051C27.4161 142.473 10.9138 136.204 12.3941 121.625C13.6439 109.536 23.8022 98.6364 32.8621 91.1721C52.7878 74.7038 78.699 66.911 99.3991 51.5036C109.34 44.0878 119.331 33.5323 117.752 20.2389C116.587 10.29 109.396 0.956027 98.4376 0.337818L97.0951 5.2749C111.122 9.77872 109.234 25.896 101.86 34.3146C93.4989 43.7814 80.5697 49.6397 69.4031 55.5913C48.5342 66.7058 26.0683 77.2142 11.8006 96.2166C5.59905 104.434 0.0739385 114.706 1.06021 125.409C1.96507 134.812 8.51145 142.742 16.7982 147.71Z" fill="#260056"/>
</svg>
