<svg width="169" height="228" viewBox="0 0 169 228" fill="none" xmlns="http://www.w3.org/2000/svg">
<path d="M152.669 147.71C141.687 154.32 128.325 155.721 116.006 157.915C102.235 160.373 88.3595 162.841 74.9447 167.014C53.5604 173.697 35.5988 185.025 22.003 201.419C25.7764 198.955 29.4851 196.298 33.6858 194.518C38.5041 192.466 43.0137 199.064 38.3757 202.175C28.1647 208.993 19.0031 216.19 10.847 225.299C6.43554 230.199 -1.15624 226.302 0.966866 220.195C5.50394 207.062 7.17915 193.346 7.12962 179.738C7.12469 171.508 19.3137 170.978 19.0036 179.361C18.8375 183.795 18.145 188.155 17.6134 192.538C26.0512 181.748 37.711 173.007 50.1419 166.682C75.1231 154.016 102.946 150.776 129.878 145.051C142.051 142.473 158.553 136.204 157.073 121.625C155.823 109.536 145.665 98.6364 136.605 91.1721C116.679 74.7038 90.7678 66.911 70.0677 51.5036C60.1272 44.0878 50.1359 33.5323 51.7144 20.2389C52.8801 10.29 60.0711 0.956027 71.0292 0.337818L72.3717 5.2749C58.3452 9.77872 60.2325 25.896 67.607 34.3146C75.9678 43.7814 88.8971 49.6397 100.064 55.5913C120.933 66.7058 143.398 77.2142 157.666 96.2166C163.868 104.434 169.393 114.706 168.407 125.409C167.502 134.812 160.955 142.742 152.669 147.71Z" fill="#0E0E0E"/>
</svg>
