<svg width="332" height="725" viewBox="0 0 332 725" fill="none" xmlns="http://www.w3.org/2000/svg">
<rect x="1" y="1" width="330" height="86" rx="22" fill="#001757" stroke="#0F52FF" stroke-width="2"/>
<rect x="1" y="204" width="330" height="86" rx="22" fill="#001757" stroke="#7000FF" stroke-width="2"/>
<rect x="1" y="407" width="330" height="86" rx="22" fill="#001757" stroke="#0CFF00" stroke-width="2"/>
<path d="M114.045 455.068C113.336 456.868 111.736 457.277 109.245 456.295C106.482 455.204 104.409 452.859 103.027 449.259L96.1727 453.123C96.1091 453.168 96.0545 453.204 96 453.268V435.123C96 432.113 98.4455 429.668 101.455 429.668H109.245C107.164 430.777 105.682 432.45 104.791 434.704C104.182 436.259 103.9 437.732 103.964 439.123C104.027 440.513 104.418 441.832 105.145 443.086C105.882 444.313 106.655 445.368 107.445 446.259C108.273 447.159 109.336 448.159 110.636 449.241C112.3 450.659 113.373 451.768 113.845 452.559C114.336 453.332 114.4 454.168 114.045 455.068Z" fill="#0CFF00"/>
<path d="M129.353 437.368V457.568C129.353 460.578 126.908 463.023 123.899 463.023H117.908C118.708 462.559 119.472 461.95 120.19 461.205C121.172 460.159 121.962 458.896 122.553 457.405C122.835 456.687 123.035 455.996 123.153 455.323C123.281 454.65 123.353 454.05 123.381 453.523C123.444 453.014 123.362 452.441 123.144 451.814C122.935 451.159 122.781 450.65 122.672 450.287C122.562 449.914 122.253 449.414 121.753 448.787C121.29 448.141 120.953 447.678 120.735 447.414C120.553 447.132 120.099 446.641 119.372 445.959C118.672 445.259 118.208 444.805 117.962 444.596C117.735 444.359 117.199 443.859 116.353 443.096C114.735 441.632 113.69 440.514 113.199 439.75C112.744 438.996 112.672 438.268 112.981 437.568C113.29 436.787 113.799 436.268 114.517 436.014C115.253 435.768 116.099 435.832 117.026 436.196C118.926 436.95 120.772 438.896 122.581 442.059L129.353 437.368Z" fill="#0CFF00"/>
<path d="M114.045 455.068C113.336 456.868 111.736 457.277 109.245 456.295C106.482 455.204 104.409 452.859 103.027 449.259L96.1727 453.123C96.1091 453.168 96.0545 453.204 96 453.268V435.123C96 432.113 98.4455 429.668 101.455 429.668H109.245C107.164 430.777 105.682 432.45 104.791 434.704C104.182 436.259 103.9 437.732 103.964 439.123C104.027 440.513 104.418 441.832 105.145 443.086C105.882 444.313 106.655 445.368 107.445 446.259C108.273 447.159 109.336 448.159 110.636 449.241C112.3 450.659 113.373 451.768 113.845 452.559C114.336 453.332 114.4 454.168 114.045 455.068Z" fill="#0CFF00"/>
<path d="M129.353 437.368V457.568C129.353 460.578 126.908 463.023 123.899 463.023H117.908C118.708 462.559 119.472 461.95 120.19 461.205C121.172 460.159 121.962 458.896 122.553 457.405C122.835 456.687 123.035 455.996 123.153 455.323C123.281 454.65 123.353 454.05 123.381 453.523C123.444 453.014 123.362 452.441 123.144 451.814C122.935 451.159 122.781 450.65 122.672 450.287C122.562 449.914 122.253 449.414 121.753 448.787C121.29 448.141 120.953 447.678 120.735 447.414C120.553 447.132 120.099 446.641 119.372 445.959C118.672 445.259 118.208 444.805 117.962 444.596C117.735 444.359 117.199 443.859 116.353 443.096C114.735 441.632 113.69 440.514 113.199 439.75C112.744 438.996 112.672 438.268 112.981 437.568C113.29 436.787 113.799 436.268 114.517 436.014C115.253 435.768 116.099 435.832 117.026 436.196C118.926 436.95 120.772 438.896 122.581 442.059L129.353 437.368Z" fill="#0CFF00"/>
<path d="M147.045 456.848C144.845 456.848 142.972 456.294 141.427 455.175C139.881 454.057 138.817 452.694 138.227 451.066L141.808 449.994C142.208 451.039 142.917 451.93 143.845 452.557C144.808 453.221 145.954 453.557 147.272 453.557C148.354 453.557 149.227 453.321 149.908 452.839C150.59 452.357 150.917 451.803 150.917 451.148C150.917 450.903 150.872 450.657 150.772 450.43C150.672 450.203 150.527 450.003 150.345 449.83C149.963 449.457 149.308 449.13 148.39 448.848L143.517 447.321C142.181 446.912 141.136 446.284 140.345 445.457C139.554 444.63 139.172 443.639 139.19 442.457C139.181 440.957 139.827 439.666 141.136 438.603C142.445 437.539 144.081 437.012 146.036 437.012C147.99 437.012 149.754 437.475 151.236 438.403C152.717 439.33 153.727 440.484 154.272 441.884L150.79 442.894C150.39 442.112 149.763 441.484 148.927 441.003C148.063 440.521 147.081 440.266 146.09 440.284C145.181 440.284 144.454 440.484 143.881 440.884C143.308 441.284 143.027 441.775 143.027 442.348C143.027 443.184 143.636 443.784 144.854 444.139L149.599 445.666C151.263 446.175 152.545 446.812 153.427 447.575C154.308 448.348 154.745 449.448 154.745 450.884C154.745 452.548 154.036 453.939 152.627 455.084C151.217 456.23 149.372 456.803 147.127 456.803L147.063 456.839L147.045 456.848Z" fill="white"/>
<path d="M164.056 456.805C161.919 456.805 160.165 456.114 158.765 454.723C157.365 453.332 156.674 451.605 156.674 449.532C156.674 447.459 157.383 445.732 158.783 444.35C160.183 442.968 161.937 442.277 164.074 442.277C166.21 442.277 167.965 442.968 169.365 444.35C170.765 445.732 171.456 447.459 171.456 449.532C171.456 451.605 170.765 453.332 169.365 454.723C167.965 456.114 166.21 456.805 164.092 456.805H164.065H164.056ZM166.856 452.405C167.574 451.65 167.937 450.686 167.937 449.532C167.937 448.377 167.574 447.423 166.856 446.659C166.137 445.905 165.201 445.532 164.056 445.532C162.91 445.532 161.974 445.905 161.256 446.659C160.537 447.414 160.174 448.377 160.174 449.532C160.174 450.686 160.537 451.641 161.256 452.405C161.974 453.159 162.91 453.532 164.056 453.532C165.201 453.532 166.137 453.159 166.856 452.405Z" fill="white"/>
<path d="M180.609 456.849C178.49 456.849 176.745 456.149 175.363 454.749C173.981 453.358 173.281 451.612 173.281 449.54C173.281 447.467 173.972 445.74 175.363 444.358C176.745 442.976 178.49 442.285 180.581 442.285C182.354 442.285 183.845 442.749 185.054 443.676C186.263 444.603 187.027 445.64 187.336 446.794L183.981 447.749C183.818 447.122 183.436 446.594 182.818 446.14C182.209 445.685 181.472 445.458 180.609 445.458C179.499 445.458 178.599 445.858 177.899 446.64C177.209 447.422 176.863 448.376 176.863 449.512C176.845 450.567 177.218 451.594 177.918 452.385C178.627 453.194 179.527 453.594 180.636 453.594C181.49 453.594 182.218 453.385 182.845 452.94C183.472 452.503 183.854 451.985 184.018 451.385L187.372 452.312C187.063 453.494 186.318 454.531 185.118 455.431C183.918 456.331 182.436 456.785 180.672 456.785L180.609 456.822V456.849Z" fill="white"/>
<path d="M191.818 440.742C191.536 440.742 191.254 440.696 190.99 440.596C190.727 440.487 190.49 440.333 190.29 440.133C190.09 439.933 189.927 439.696 189.818 439.442C189.709 439.178 189.654 438.905 189.663 438.624C189.663 438.351 189.709 438.078 189.818 437.824C189.927 437.569 190.09 437.342 190.29 437.151C190.699 436.769 191.245 436.551 191.809 436.551C192.372 436.551 192.918 436.769 193.327 437.151C193.527 437.342 193.69 437.569 193.799 437.824C193.909 438.078 193.963 438.351 193.954 438.624C193.954 438.905 193.909 439.178 193.799 439.442C193.69 439.696 193.536 439.933 193.327 440.124C193.127 440.324 192.89 440.469 192.627 440.578C192.363 440.678 192.09 440.733 191.809 440.724V440.751L191.818 440.742ZM189.954 442.678H193.581V456.442H189.954V442.678Z" fill="white"/>
<path d="M203.155 456.823C201.228 456.823 199.61 456.132 198.31 454.741C197.001 453.35 196.355 451.623 196.355 449.559C196.355 447.496 197.01 445.732 198.31 444.35C199.619 442.968 201.237 442.277 203.174 442.277C205.11 442.277 206.546 442.959 207.61 444.323V442.659H211.246V456.423H207.61V454.732C206.546 456.114 205.065 456.805 203.174 456.805H203.165L203.155 456.823ZM203.783 453.577C204.301 453.586 204.819 453.486 205.301 453.296C205.783 453.096 206.219 452.805 206.574 452.423C207.337 451.65 207.71 450.686 207.71 449.496C207.71 448.305 207.337 447.386 206.574 446.623C206.21 446.25 205.774 445.959 205.292 445.759C204.81 445.559 204.292 445.468 203.774 445.477C202.646 445.477 201.71 445.85 200.974 446.605C200.237 447.359 199.883 448.332 199.883 449.514C199.883 450.696 200.246 451.696 200.974 452.45C201.71 453.205 202.637 453.596 203.774 453.596V453.568L203.783 453.577Z" fill="white"/>
<path d="M218.373 436.559H214.773V456.422H218.373V436.559Z" fill="white"/>
<path d="M235.992 442.66L227.692 462.142H223.992L226.492 456.124L220.246 442.66H224.201L228.292 451.96L232.146 442.66H236.001H235.992Z" fill="white"/>
<rect x="1" y="610" width="330" height="86" rx="22" fill="#001757" stroke="#FF800A" stroke-width="2"/>
<rect x="53" y="686" width="226" height="39" rx="12" fill="#FF800A"/>
<g clip-path="url(#clip0_321_959)">
<path d="M84.8111 44.6636C83.7296 43.562 83.7296 41.7777 84.8111 40.6761L101.35 23.8262C102.432 22.7246 104.183 22.7246 105.265 23.8262C106.346 24.9278 106.346 26.7121 105.265 27.8137L88.726 44.6636C87.6444 45.7652 85.8927 45.7652 84.8111 44.6636Z" fill="#01EA88"/>
<path d="M96.2389 46.5838C95.1574 45.4822 95.1574 43.6979 96.2389 42.5963L103.235 35.4707C104.316 34.3691 106.068 34.3691 107.149 35.4707C108.231 36.5723 108.231 38.3566 107.149 39.4582L100.154 46.5838C99.0722 47.6854 97.3204 47.6854 96.2389 46.5838Z" fill="#FFCE00"/>
<path d="M98.0787 58.1754C96.9972 57.0738 96.9972 55.2895 98.0787 54.1879L114.618 37.3418C115.699 36.2402 117.451 36.2402 118.533 37.3418C119.614 38.4434 119.614 40.2277 118.533 41.3293L101.994 58.1754C100.912 59.277 99.1603 59.277 98.0787 58.1754Z" fill="#1C7CFF"/>
<path d="M132.768 48.9101V31.6142C132.768 30.8423 132.988 30.2992 133.434 29.9889C133.88 29.6786 134.462 29.5234 135.182 29.5234C135.719 29.5234 136.195 29.5894 136.61 29.7213C137.025 29.8531 137.292 29.9385 137.402 29.9773V48.914H132.768V48.9101Z" fill="white"/>
<path d="M140.453 40.1798C140.453 39.2023 140.64 38.3296 141.009 37.5654C141.379 36.8013 141.889 36.1651 142.536 35.657C143.184 35.1489 143.934 34.761 144.783 34.4972C145.632 34.2334 146.55 34.1016 147.529 34.1016C148.507 34.1016 149.402 34.2334 150.263 34.4972C151.124 34.761 151.874 35.1489 152.51 35.657C153.146 36.1651 153.652 36.8013 154.022 37.5654C154.391 38.3296 154.578 39.1984 154.578 40.1798V48.9112H150.111V41.2232C150.111 40.2263 149.89 39.4855 149.444 39.0045C148.999 38.5235 148.363 38.283 147.529 38.283C145.788 38.283 144.92 39.2644 144.92 41.2232V48.9112H140.453V40.1798Z" fill="white"/>
<path d="M158.378 44.5009C158.526 44.6134 158.77 44.7491 159.113 44.912C159.455 45.0711 159.863 45.2223 160.335 45.3659C160.807 45.5094 161.344 45.6296 161.946 45.7344C162.548 45.8391 163.18 45.8895 163.846 45.8895C164.604 45.8895 165.179 45.8197 165.567 45.6762C165.956 45.5365 166.15 45.2844 166.15 44.9276C166.15 44.5513 165.986 44.2914 165.663 44.1518C165.339 44.0121 164.836 43.8919 164.151 43.7988L162.707 43.6281C161.988 43.535 161.291 43.3993 160.628 43.217C159.962 43.0385 159.375 42.7748 158.865 42.4257C158.355 42.0766 157.955 41.6305 157.658 41.0836C157.361 40.5366 157.212 39.8501 157.212 39.02C157.212 38.3218 157.338 37.6779 157.585 37.0844C157.837 36.491 158.229 35.9712 158.766 35.529C159.303 35.0868 159.988 34.7377 160.819 34.4817C161.653 34.2257 162.639 34.1016 163.789 34.1016C164.939 34.1016 165.956 34.1791 166.801 34.3265C167.643 34.4778 168.37 34.7144 168.98 35.0325C169.33 35.2226 169.612 35.4514 169.825 35.7268C170.038 36.0022 170.145 36.3358 170.145 36.7315C170.145 37.034 170.084 37.3016 169.966 37.5383C169.844 37.7749 169.707 37.9766 169.551 38.1472C169.395 38.3179 169.246 38.4498 169.105 38.5429C168.968 38.636 168.877 38.6942 168.842 38.7136C168.785 38.6554 168.633 38.5545 168.386 38.4033C168.134 38.252 167.803 38.1085 167.388 37.9649C166.973 37.8253 166.474 37.6973 165.891 37.5848C165.308 37.4723 164.646 37.4141 163.907 37.4141C163.073 37.4141 162.494 37.5111 162.174 37.7089C161.854 37.9068 161.691 38.1666 161.691 38.4847C161.691 38.8028 161.839 39.0316 162.136 39.1635C162.433 39.2954 162.875 39.4079 163.469 39.5049L165.994 39.8734C166.622 39.9664 167.228 40.1022 167.81 40.2845C168.393 40.4668 168.911 40.7228 169.364 41.0603C169.817 41.4016 170.179 41.8322 170.446 42.3597C170.712 42.8873 170.849 43.5273 170.849 44.2837C170.849 45.8662 170.259 47.0997 169.075 47.9841C167.89 48.8685 166.253 49.3107 164.162 49.3107C163.069 49.3107 162.106 49.2331 161.264 49.0857C160.423 48.9344 159.695 48.7599 159.086 48.5621C158.477 48.3642 157.982 48.1587 157.601 47.9415C157.22 47.7242 156.957 47.5613 156.809 47.445L158.389 44.5048L158.378 44.5009Z" fill="white"/>
<path d="M172.943 54.5627V42.3519C172.943 41.1456 173.065 40.1022 173.305 39.2139C173.545 38.3295 173.888 37.5848 174.333 36.9797C175.038 36.0371 175.933 35.3234 177.026 34.8308C178.119 34.342 179.33 34.0977 180.659 34.0977C181.752 34.0977 182.761 34.28 183.698 34.6485C184.631 35.017 185.442 35.529 186.127 36.1884C186.813 36.8478 187.35 37.6507 187.738 38.5894C188.127 39.532 188.321 40.5676 188.321 41.6964C188.321 42.8252 188.142 43.8841 187.78 44.8034C187.418 45.7266 186.931 46.5179 186.31 47.1773C185.689 47.8367 184.966 48.3448 184.132 48.7017C183.298 49.0585 182.411 49.237 181.47 49.237C180.434 49.237 179.577 49.0702 178.903 48.7444C178.229 48.4146 177.723 48.0811 177.391 47.7397V54.5511H172.951L172.943 54.5627ZM180.545 45.1525C181.47 45.1525 182.232 44.8267 182.833 44.1789C183.435 43.5272 183.736 42.6933 183.736 41.677C183.736 40.6607 183.435 39.8384 182.833 39.2178C182.232 38.5972 181.47 38.2869 180.545 38.2869C179.619 38.2869 178.857 38.5894 178.256 39.1906C177.654 39.7958 177.353 40.622 177.353 41.677C177.353 42.1658 177.433 42.6235 177.589 43.0463C177.745 43.4691 177.97 43.8376 178.256 44.1479C178.541 44.4582 178.88 44.7025 179.269 44.881C179.657 45.0594 180.084 45.1486 180.545 45.1486V45.1525Z" fill="white"/>
<path d="M190.701 30.6266C190.701 29.909 190.937 29.3078 191.409 28.819C191.882 28.3303 192.468 28.0859 193.173 28.0859C193.877 28.0859 194.467 28.3303 194.947 28.819C195.427 29.3078 195.667 29.9129 195.667 30.6266C195.667 31.3403 195.427 31.9416 194.947 32.4225C194.467 32.9035 193.873 33.144 193.173 33.144C192.472 33.144 191.882 32.9035 191.409 32.4225C190.937 31.9416 190.701 31.3442 190.701 30.6266ZM190.953 36.507C190.953 35.7739 191.166 35.2541 191.592 34.9516C192.019 34.649 192.582 34.4977 193.283 34.4977C193.782 34.4977 194.235 34.5598 194.643 34.6801C195.05 34.8042 195.309 34.8818 195.42 34.9205V48.9117H190.953V36.5031V36.507Z" fill="white"/>
<path d="M198.607 39.8656C198.607 38.9424 198.76 38.124 199.064 37.4064C199.369 36.6888 199.792 36.0876 200.325 35.5988C200.862 35.1101 201.509 34.7377 202.267 34.4817C203.025 34.2257 203.859 34.1016 204.765 34.1016C205.873 34.1016 206.738 34.2257 207.358 34.4701C207.979 34.7144 208.429 34.9782 208.703 35.2614C208.87 35.4514 209 35.6492 209.091 35.8548C209.183 36.0643 209.228 36.3087 209.228 36.5879C209.228 36.8672 209.186 37.1349 209.103 37.3792C209.019 37.6236 208.916 37.8408 208.798 38.0309C208.676 38.2209 208.562 38.38 208.451 38.5119C208.341 38.6437 208.257 38.7368 208.2 38.795C207.884 38.6437 207.507 38.5041 207.061 38.3722C206.616 38.2403 206.128 38.1744 205.591 38.1744C204.887 38.1744 204.293 38.3839 203.802 38.795C203.31 39.2101 203.067 39.8966 203.067 40.8586V48.9151H198.6V39.8695L198.607 39.8656Z" fill="white"/>
<path d="M214.674 43.5971C214.712 43.8221 214.807 44.0432 214.964 44.2604C215.12 44.4776 215.344 44.6793 215.63 44.8694C215.916 45.0594 216.281 45.2068 216.727 45.3232C217.172 45.4357 217.705 45.4939 218.338 45.4939C218.817 45.4939 219.271 45.4512 219.697 45.3659C220.124 45.2805 220.493 45.1913 220.809 45.0982C221.125 45.0051 221.38 44.9082 221.586 44.8151C221.788 44.722 221.91 44.656 221.948 44.6172L223.502 47.7824C223.353 47.8755 223.109 48.0074 222.767 48.1781C222.424 48.3487 221.993 48.5155 221.476 48.6862C220.958 48.8569 220.352 49.0004 219.659 49.1245C218.966 49.2486 218.201 49.3068 217.37 49.3068C216.334 49.3068 215.363 49.1361 214.457 48.7987C213.551 48.4573 212.759 47.9647 212.085 47.3131C211.41 46.6614 210.877 45.8662 210.489 44.9237C210.1 43.9811 209.906 42.9066 209.906 41.7003C209.906 40.5716 210.1 39.5359 210.489 38.5933C210.877 37.6507 211.414 36.8517 212.1 36.1923C212.785 35.5329 213.589 35.0209 214.514 34.6524C215.44 34.2839 216.437 34.1016 217.511 34.1016C218.509 34.1016 219.408 34.2373 220.204 34.5127C221 34.7881 221.67 35.1566 222.214 35.6298C222.759 36.0992 223.178 36.6384 223.463 37.2396C223.749 37.8408 223.894 38.4653 223.894 39.1053C223.894 39.8035 223.772 40.428 223.532 40.9866C223.292 41.5413 222.862 42.0145 222.241 42.3985C221.62 42.7864 220.779 43.0812 219.716 43.2907C218.654 43.4962 217.298 43.601 215.653 43.601H214.682L214.674 43.5971ZM214.453 40.6569C215.691 40.6569 216.654 40.6103 217.34 40.5173C218.025 40.4242 218.532 40.3 218.867 40.1488C219.202 39.9975 219.404 39.8268 219.476 39.6406C219.549 39.4506 219.587 39.2644 219.587 39.0743C219.587 38.6787 219.412 38.3334 219.061 38.0425C218.711 37.7516 218.181 37.6042 217.481 37.6042C216.982 37.6042 216.548 37.6934 216.178 37.8718C215.809 38.0503 215.497 38.283 215.249 38.5662C214.998 38.8493 214.811 39.1752 214.682 39.5398C214.552 39.9083 214.476 40.2806 214.461 40.6569H214.453Z" fill="white"/>
<path d="M226.189 30.0874C226.189 29.3543 226.403 28.8345 226.829 28.532C227.256 28.2294 227.819 28.0781 228.52 28.0781C229.019 28.0781 229.472 28.1402 229.88 28.2604C230.287 28.3846 230.546 28.4621 230.656 28.5009V48.9078H226.189V30.0874Z" fill="white"/>
<path d="M235.485 50.4655C235.558 50.5043 235.721 50.5624 235.969 50.6478C236.22 50.7331 236.529 50.8184 236.898 50.9038C237.267 50.9891 237.69 51.0628 238.159 51.1288C238.631 51.1947 239.114 51.2257 239.617 51.2257C241.041 51.2257 242.07 50.9154 242.698 50.2948C243.326 49.6742 243.642 48.6463 243.642 47.215C243.292 47.6494 242.755 47.9907 242.031 48.2467C241.312 48.5027 240.588 48.6269 239.868 48.6269C239.019 48.6269 238.227 48.5183 237.496 48.301C236.765 48.0838 236.125 47.7502 235.58 47.2964C235.036 46.8426 234.609 46.2763 234.305 45.5858C234 44.8993 233.848 44.0847 233.848 43.1421V36.5015C233.848 35.7683 234.061 35.2486 234.487 34.946C234.914 34.6435 235.478 34.4922 236.178 34.4922C236.677 34.4922 237.13 34.5543 237.538 34.6745C237.945 34.7986 238.204 34.8762 238.315 34.915V42.2073C238.315 43.1111 238.524 43.7627 238.939 44.1584C239.354 44.554 240.006 44.7519 240.897 44.7519C241.731 44.7519 242.374 44.5075 242.839 44.0187C243.3 43.53 243.532 42.7736 243.532 41.7574V36.5015C243.532 35.7683 243.745 35.2486 244.172 34.946C244.598 34.6435 245.162 34.4922 245.863 34.4922C246.361 34.4922 246.815 34.5543 247.222 34.6745C247.63 34.7986 247.888 34.8762 247.999 34.915V46.8969C247.999 48.3282 247.812 49.55 247.443 50.5586C247.074 51.5671 246.544 52.3855 245.863 53.0178C245.177 53.65 244.366 54.1116 243.421 54.4025C242.477 54.6935 241.422 54.8409 240.257 54.8409C239.442 54.8409 238.692 54.7943 238.01 54.7012C237.325 54.6081 236.723 54.4995 236.205 54.3754C235.687 54.2513 235.272 54.1349 234.956 54.0224C234.64 53.9099 234.457 53.8323 234.4 53.7974L235.481 50.4616L235.485 50.4655Z" fill="white"/>
</g>
<path d="M99.072 697.96L98.302 699.01H96.776L98.358 696.952H99.758L101.41 699.01H99.87L99.1 697.96H99.072ZM98.274 710V700.06H99.968V710H98.274ZM104.304 710.112C103.707 710.112 103.24 709.921 102.904 709.538C102.568 709.155 102.4 708.591 102.4 707.844V704.498H101.56V703.168H102.4V700.9L103.968 700.732V703.168H105.97V704.498H103.968V707.69C103.968 708.035 104.019 708.283 104.122 708.432C104.225 708.572 104.393 708.642 104.626 708.642C104.934 708.642 105.27 708.544 105.634 708.348L106.04 709.706C105.545 709.977 104.967 710.112 104.304 710.112ZM103.17 713.066L102.806 712.156C103.086 712.053 103.282 711.937 103.394 711.806C103.515 711.685 103.576 711.512 103.576 711.288C103.576 711.157 103.548 710.975 103.492 710.742H104.92C104.957 710.929 104.976 711.148 104.976 711.4C104.976 711.904 104.803 712.291 104.458 712.562C104.122 712.842 103.693 713.01 103.17 713.066ZM108.957 701.852C108.751 702.057 108.504 702.16 108.215 702.16C107.925 702.16 107.678 702.057 107.473 701.852C107.267 701.647 107.165 701.399 107.165 701.11C107.165 700.83 107.267 700.587 107.473 700.382C107.678 700.177 107.925 700.074 108.215 700.074C108.504 700.074 108.751 700.177 108.957 700.382C109.171 700.587 109.279 700.83 109.279 701.11C109.279 701.399 109.171 701.647 108.957 701.852ZM107.431 710V703.168H108.999V710H107.431ZM115.145 710V704.498H114.389V703.168H115.145V701.922C115.145 701.157 115.322 700.578 115.677 700.186C116.032 699.785 116.545 699.584 117.217 699.584C117.87 699.584 118.44 699.743 118.925 700.06L118.575 701.376C118.08 701.143 117.702 701.026 117.441 701.026C116.956 701.026 116.713 701.381 116.713 702.09V703.168H118.393V704.498H116.713V710H115.145ZM121.316 701.852C121.111 702.057 120.863 702.16 120.574 702.16C120.285 702.16 120.037 702.057 119.832 701.852C119.627 701.647 119.524 701.399 119.524 701.11C119.524 700.83 119.627 700.587 119.832 700.382C120.037 700.177 120.285 700.074 120.574 700.074C120.863 700.074 121.111 700.177 121.316 700.382C121.531 700.587 121.638 700.83 121.638 701.11C121.638 701.399 121.531 701.647 121.316 701.852ZM119.79 710V703.168H121.358V710H119.79ZM127.384 703.07C128.168 703.07 128.78 703.308 129.218 703.784C129.666 704.26 129.89 704.993 129.89 705.982V710H128.322V706.388C128.322 705.697 128.196 705.207 127.944 704.918C127.702 704.629 127.333 704.484 126.838 704.484C126.297 704.484 125.868 704.666 125.55 705.03C125.233 705.394 125.074 705.907 125.074 706.57V710H123.506V703.168H125.074V704.12H125.088C125.676 703.42 126.442 703.07 127.384 703.07ZM136.817 703.168H138.385V710H136.887V709.09H136.859C136.355 709.771 135.632 710.112 134.689 710.112C133.728 710.112 132.935 709.79 132.309 709.146C131.693 708.502 131.385 707.657 131.385 706.612C131.385 705.585 131.698 704.741 132.323 704.078C132.949 703.406 133.733 703.07 134.675 703.07C135.571 703.07 136.276 703.378 136.789 703.994H136.817V703.168ZM134.941 708.684C135.483 708.684 135.94 708.493 136.313 708.11C136.696 707.727 136.887 707.233 136.887 706.626C136.887 706.019 136.701 705.511 136.327 705.1C135.963 704.689 135.501 704.484 134.941 704.484C134.381 704.484 133.915 704.68 133.541 705.072C133.168 705.464 132.981 705.982 132.981 706.626C132.981 707.233 133.163 707.727 133.527 708.11C133.891 708.493 134.363 708.684 134.941 708.684ZM144.242 703.07C145.026 703.07 145.637 703.308 146.076 703.784C146.524 704.26 146.748 704.993 146.748 705.982V710H145.18V706.388C145.18 705.697 145.054 705.207 144.802 704.918C144.559 704.629 144.19 704.484 143.696 704.484C143.154 704.484 142.725 704.666 142.408 705.03C142.09 705.394 141.932 705.907 141.932 706.57V710H140.364V703.168H141.932V704.12H141.946C142.534 703.42 143.299 703.07 144.242 703.07ZM150.693 710.112C150.095 710.112 149.629 709.921 149.293 709.538C148.957 709.155 148.789 708.591 148.789 707.844V704.498H147.949V703.168H148.789V700.9L150.357 700.732V703.168H152.359V704.498H150.357V707.69C150.357 708.035 150.408 708.283 150.511 708.432C150.613 708.572 150.781 708.642 151.015 708.642C151.323 708.642 151.659 708.544 152.023 708.348L152.429 709.706C151.934 709.977 151.355 710.112 150.693 710.112ZM149.559 713.066L149.195 712.156C149.475 712.053 149.671 711.937 149.783 711.806C149.904 711.685 149.965 711.512 149.965 711.288C149.965 711.157 149.937 710.975 149.881 710.742H151.309C151.346 710.929 151.365 711.148 151.365 711.4C151.365 711.904 151.192 712.291 150.847 712.562C150.511 712.842 150.081 713.01 149.559 713.066ZM159.692 706.5C159.692 706.668 159.678 706.878 159.65 707.13H154.666C154.768 707.615 154.992 707.998 155.338 708.278C155.683 708.549 156.108 708.684 156.612 708.684C157.321 708.684 157.89 708.418 158.32 707.886L159.412 708.824C158.749 709.683 157.788 710.112 156.528 710.112C155.52 710.112 154.684 709.79 154.022 709.146C153.368 708.493 153.042 707.639 153.042 706.584C153.042 705.548 153.354 704.703 153.98 704.05C154.614 703.397 155.412 703.07 156.374 703.07C157.372 703.07 158.175 703.392 158.782 704.036C159.388 704.671 159.692 705.492 159.692 706.5ZM157.536 704.862C157.256 704.61 156.896 704.484 156.458 704.484C156.019 704.484 155.641 704.605 155.324 704.848C155.016 705.091 154.806 705.431 154.694 705.87H158.11C158.007 705.441 157.816 705.105 157.536 704.862ZM166.321 703.168H167.889V710H166.391V709.09H166.363C165.859 709.771 165.136 710.112 164.193 710.112C163.232 710.112 162.438 709.79 161.813 709.146C161.197 708.502 160.889 707.657 160.889 706.612C160.889 705.585 161.202 704.741 161.827 704.078C162.452 703.406 163.236 703.07 164.179 703.07C165.075 703.07 165.78 703.378 166.293 703.994H166.321V703.168ZM164.445 708.684C164.986 708.684 165.444 708.493 165.817 708.11C166.2 707.727 166.391 707.233 166.391 706.626C166.391 706.019 166.204 705.511 165.831 705.1C165.467 704.689 165.005 704.484 164.445 704.484C163.885 704.484 163.418 704.68 163.045 705.072C162.672 705.464 162.485 705.982 162.485 706.626C162.485 707.233 162.667 707.727 163.031 708.11C163.395 708.493 163.866 708.684 164.445 708.684ZM175.076 704.246L171.506 708.656V708.67H175.02V710H169.406V708.894L172.92 704.54V704.498H169.644V703.168H175.076V704.246ZM179.719 702.286C179.131 702.286 178.632 702.109 178.221 701.754C177.811 701.39 177.582 700.886 177.535 700.242H178.767C178.786 700.522 178.879 700.751 179.047 700.928C179.215 701.105 179.439 701.194 179.719 701.194C179.99 701.194 180.214 701.11 180.391 700.942C180.569 700.765 180.662 700.531 180.671 700.242H181.903C181.857 700.849 181.633 701.343 181.231 701.726C180.839 702.099 180.335 702.286 179.719 702.286ZM181.483 703.168H183.051V710H181.553V709.09H181.525C181.021 709.771 180.298 710.112 179.355 710.112C178.394 710.112 177.601 709.79 176.975 709.146C176.359 708.502 176.051 707.657 176.051 706.612C176.051 705.585 176.364 704.741 176.989 704.078C177.615 703.406 178.399 703.07 179.341 703.07C180.237 703.07 180.942 703.378 181.455 703.994H181.483V703.168ZM179.607 708.684C180.149 708.684 180.606 708.493 180.979 708.11C181.362 707.727 181.553 707.233 181.553 706.626C181.553 706.019 181.367 705.511 180.993 705.1C180.629 704.689 180.167 704.484 179.607 704.484C179.047 704.484 178.581 704.68 178.207 705.072C177.834 705.464 177.647 705.982 177.647 706.626C177.647 707.233 177.829 707.727 178.193 708.11C178.557 708.493 179.029 708.684 179.607 708.684ZM192.654 703.07C193.438 703.07 194.049 703.308 194.488 703.784C194.936 704.26 195.16 704.993 195.16 705.982V710H193.592V706.388C193.592 705.697 193.466 705.207 193.214 704.918C192.971 704.629 192.603 704.484 192.108 704.484C191.567 704.484 191.137 704.666 190.82 705.03C190.503 705.394 190.344 705.907 190.344 706.57V710H188.776V703.168H190.344V704.12H190.358C190.946 703.42 191.711 703.07 192.654 703.07ZM203.319 706.5C203.319 706.668 203.305 706.878 203.277 707.13H198.293C198.395 707.615 198.619 707.998 198.965 708.278C199.31 708.549 199.735 708.684 200.239 708.684C200.948 708.684 201.517 708.418 201.947 707.886L203.039 708.824C202.376 709.683 201.415 710.112 200.155 710.112C199.147 710.112 198.311 709.79 197.649 709.146C196.995 708.493 196.669 707.639 196.669 706.584C196.669 705.548 196.981 704.703 197.607 704.05C198.241 703.397 199.039 703.07 200.001 703.07C200.999 703.07 201.802 703.392 202.409 704.036C203.015 704.671 203.319 705.492 203.319 706.5ZM201.163 704.862C200.883 704.61 200.523 704.484 200.085 704.484C199.646 704.484 199.268 704.605 198.951 704.848C198.643 705.091 198.433 705.431 198.321 705.87H201.737C201.634 705.441 201.443 705.105 201.163 704.862ZM209.047 703.168H210.727L208.025 710H206.527L203.811 703.168H205.477L207.269 708.04H207.283L209.047 703.168ZM214.786 710.112C213.722 710.112 212.859 709.781 212.196 709.118C211.533 708.455 211.202 707.615 211.202 706.598C211.202 705.581 211.533 704.741 212.196 704.078C212.859 703.406 213.722 703.07 214.786 703.07C215.841 703.07 216.699 703.397 217.362 704.05C218.034 704.703 218.37 705.553 218.37 706.598C218.37 707.634 218.034 708.479 217.362 709.132C216.699 709.785 215.841 710.112 214.786 710.112ZM214.786 708.684C215.346 708.684 215.817 708.488 216.2 708.096C216.583 707.704 216.774 707.205 216.774 706.598C216.774 705.973 216.583 705.464 216.2 705.072C215.827 704.68 215.355 704.484 214.786 704.484C214.198 704.484 213.717 704.685 213.344 705.086C212.98 705.487 212.798 705.991 212.798 706.598C212.798 707.186 212.985 707.681 213.358 708.082C213.731 708.483 214.207 708.684 214.786 708.684ZM221.626 701.852C221.421 702.057 221.174 702.16 220.884 702.16C220.595 702.16 220.348 702.057 220.142 701.852C219.937 701.647 219.834 701.399 219.834 701.11C219.834 700.83 219.937 700.587 220.142 700.382C220.348 700.177 220.595 700.074 220.884 700.074C221.174 700.074 221.421 700.177 221.626 700.382C221.841 700.587 221.948 700.83 221.948 701.11C221.948 701.399 221.841 701.647 221.626 701.852ZM220.1 710V703.168H221.668V710H220.1ZM223.915 710V699.696H225.483V710H223.915ZM233.875 706.5C233.875 706.668 233.861 706.878 233.833 707.13H228.849C228.952 707.615 229.176 707.998 229.521 708.278C229.867 708.549 230.291 708.684 230.795 708.684C231.505 708.684 232.074 708.418 232.503 707.886L233.595 708.824C232.933 709.683 231.971 710.112 230.711 710.112C229.703 710.112 228.868 709.79 228.205 709.146C227.552 708.493 227.225 707.639 227.225 706.584C227.225 705.548 227.538 704.703 228.163 704.05C228.798 703.397 229.596 703.07 230.557 703.07C231.556 703.07 232.359 703.392 232.965 704.036C233.572 704.671 233.875 705.492 233.875 706.5ZM231.719 704.862C231.439 704.61 231.08 704.484 230.641 704.484C230.203 704.484 229.825 704.605 229.507 704.848C229.199 705.091 228.989 705.431 228.877 705.87H232.293C232.191 705.441 231.999 705.105 231.719 704.862Z" fill="white"/>
<path d="M118.258 243.617C118.258 242.015 118.519 240.592 119.041 239.35C119.572 238.099 120.292 237.046 121.201 236.191C122.11 235.336 123.177 234.684 124.401 234.234C125.634 233.775 126.957 233.545 128.37 233.545C129.126 233.545 129.81 233.595 130.422 233.694C131.034 233.784 131.574 233.901 132.042 234.045C132.51 234.189 132.91 234.346 133.243 234.517C133.577 234.679 133.842 234.828 134.04 234.963C134.463 235.278 134.765 235.606 134.945 235.948C135.134 236.281 135.228 236.632 135.228 237.001C135.228 237.352 135.161 237.685 135.026 238C134.891 238.315 134.724 238.599 134.526 238.851C134.337 239.094 134.144 239.305 133.946 239.485C133.757 239.656 133.595 239.778 133.459 239.85C133.279 239.67 133.045 239.454 132.757 239.202C132.469 238.95 132.123 238.725 131.718 238.527C131.313 238.32 130.849 238.144 130.327 238C129.805 237.856 129.22 237.784 128.572 237.784C127.762 237.784 127.024 237.919 126.358 238.189C125.692 238.45 125.116 238.837 124.63 239.35C124.144 239.854 123.766 240.466 123.496 241.187C123.226 241.898 123.091 242.708 123.091 243.617C123.091 244.535 123.24 245.345 123.537 246.047C123.834 246.749 124.239 247.334 124.752 247.802C125.274 248.27 125.886 248.625 126.588 248.868C127.299 249.102 128.068 249.219 128.896 249.219C129.931 249.219 130.822 249.093 131.569 248.841C132.316 248.58 132.883 248.31 133.27 248.031L135.35 251.609H135.404C135.197 251.753 134.904 251.933 134.526 252.149C134.148 252.356 133.671 252.563 133.095 252.77C132.528 252.968 131.857 253.139 131.083 253.283C130.309 253.436 129.436 253.513 128.464 253.513C127.078 253.513 125.769 253.306 124.536 252.892C123.303 252.478 122.218 251.856 121.282 251.028C120.355 250.191 119.617 249.156 119.068 247.923C118.528 246.69 118.258 245.255 118.258 243.617Z" fill="white"/>
<path d="M135.691 245.966C135.691 244.895 135.893 243.909 136.298 243.009C136.703 242.1 137.257 241.317 137.959 240.66C138.67 239.994 139.494 239.472 140.43 239.094C141.375 238.716 142.392 238.527 143.481 238.527C144.552 238.527 145.56 238.716 146.505 239.094C147.459 239.472 148.291 239.994 149.002 240.66C149.714 241.317 150.272 242.1 150.677 243.009C151.082 243.909 151.284 244.895 151.284 245.966C151.284 247.037 151.082 248.022 150.677 248.922C150.272 249.822 149.714 250.605 149.002 251.271C148.291 251.937 147.459 252.46 146.505 252.838C145.56 253.216 144.552 253.405 143.481 253.405C142.392 253.405 141.375 253.216 140.43 252.838C139.494 252.46 138.67 251.937 137.959 251.271C137.257 250.605 136.703 249.822 136.298 248.922C135.893 248.022 135.691 247.037 135.691 245.966ZM140.254 245.966C140.254 246.461 140.331 246.92 140.484 247.343C140.637 247.766 140.862 248.13 141.159 248.436C141.456 248.742 141.798 248.985 142.185 249.165C142.572 249.336 143.004 249.422 143.481 249.422C143.94 249.422 144.367 249.336 144.763 249.165C145.159 248.985 145.506 248.742 145.803 248.436C146.1 248.13 146.325 247.766 146.478 247.343C146.64 246.92 146.721 246.461 146.721 245.966C146.721 245.471 146.64 245.012 146.478 244.589C146.325 244.157 146.1 243.792 145.803 243.495C145.506 243.189 145.159 242.951 144.763 242.78C144.367 242.6 143.94 242.51 143.481 242.51C143.004 242.51 142.572 242.6 142.185 242.78C141.798 242.951 141.456 243.189 141.159 243.495C140.862 243.792 140.637 244.152 140.484 244.575C140.331 244.998 140.254 245.462 140.254 245.966Z" fill="white"/>
<path d="M152.935 253.013V244.467C152.935 243.513 153.119 242.663 153.488 241.916C153.857 241.169 154.361 240.547 155.001 240.052C155.649 239.548 156.396 239.17 157.242 238.918C158.097 238.657 159.01 238.527 159.982 238.527C160.936 238.527 161.841 238.657 162.696 238.918C163.56 239.17 164.307 239.548 164.937 240.052C165.576 240.547 166.08 241.169 166.449 241.916C166.818 242.663 167.003 243.513 167.003 244.467V253.013H162.561V245.493C162.561 244.512 162.336 243.788 161.886 243.32C161.445 242.852 160.81 242.618 159.982 242.618C158.245 242.618 157.381 243.576 157.39 245.493V253.013H152.935Z" fill="white"/>
<path d="M168.788 251.582L170.368 248.706C170.512 248.814 170.755 248.949 171.097 249.111C171.439 249.264 171.844 249.408 172.312 249.543C172.789 249.678 173.325 249.8 173.919 249.908C174.522 250.007 175.152 250.056 175.809 250.056C176.565 250.056 177.136 249.989 177.523 249.854C177.91 249.71 178.104 249.462 178.104 249.111C178.104 248.742 177.942 248.49 177.618 248.355C177.303 248.22 176.803 248.103 176.119 248.004L174.675 247.842C173.955 247.752 173.262 247.622 172.596 247.451C171.939 247.271 171.354 247.01 170.841 246.668C170.337 246.326 169.936 245.889 169.639 245.358C169.351 244.818 169.207 244.143 169.207 243.333C169.207 242.649 169.328 242.019 169.571 241.443C169.823 240.858 170.215 240.349 170.746 239.917C171.286 239.485 171.97 239.148 172.798 238.905C173.626 238.653 174.612 238.527 175.755 238.527C176.916 238.527 177.915 238.603 178.752 238.756C179.598 238.9 180.322 239.125 180.925 239.431C181.276 239.611 181.556 239.836 181.763 240.106C181.979 240.376 182.087 240.705 182.087 241.092C182.087 241.389 182.028 241.655 181.911 241.889C181.794 242.114 181.655 242.312 181.493 242.483C181.339 242.645 181.191 242.775 181.047 242.874C180.912 242.964 180.826 243.018 180.79 243.036C180.736 242.982 180.583 242.883 180.331 242.739C180.088 242.586 179.755 242.442 179.332 242.307C178.918 242.163 178.419 242.037 177.834 241.929C177.258 241.812 176.601 241.754 175.863 241.754C175.035 241.754 174.459 241.853 174.135 242.051C173.82 242.24 173.662 242.492 173.662 242.807C173.662 243.122 173.806 243.347 174.094 243.482C174.391 243.608 174.837 243.716 175.431 243.806L177.942 244.17C178.572 244.26 179.175 244.395 179.751 244.575C180.336 244.746 180.853 244.998 181.303 245.331C181.754 245.664 182.109 246.087 182.37 246.6C182.64 247.113 182.775 247.739 182.775 248.477C182.775 250.025 182.186 251.235 181.006 252.109C179.827 252.973 178.198 253.405 176.119 253.405C175.03 253.405 174.067 253.328 173.23 253.175C172.393 253.031 171.669 252.865 171.057 252.676C170.454 252.478 169.963 252.275 169.585 252.068C169.207 251.852 168.941 251.69 168.788 251.582Z" fill="white"/>
<path d="M184.25 247.262V240.876C184.25 240.156 184.462 239.652 184.885 239.364C185.308 239.067 185.87 238.918 186.573 238.918C187.068 238.918 187.518 238.977 187.923 239.094C188.328 239.211 188.584 239.287 188.692 239.323V246.438C188.692 248.355 189.561 249.314 191.298 249.314C193.035 249.314 193.899 248.355 193.89 246.438V240.876C193.89 240.156 194.101 239.652 194.524 239.364C194.956 239.067 195.519 238.918 196.212 238.918C196.707 238.918 197.157 238.977 197.562 239.094C197.976 239.211 198.237 239.287 198.345 239.323V247.262C198.345 248.297 198.165 249.197 197.805 249.962C197.445 250.727 196.95 251.361 196.32 251.865C195.699 252.37 194.952 252.752 194.079 253.013C193.215 253.274 192.288 253.405 191.298 253.405C190.299 253.405 189.367 253.274 188.503 253.013C187.639 252.752 186.892 252.37 186.262 251.865C185.641 251.361 185.15 250.727 184.79 249.962C184.43 249.197 184.25 248.297 184.25 247.262Z" fill="white"/>
<path d="M201.116 253.013V234.598C201.116 233.878 201.328 233.374 201.751 233.086C202.174 232.789 202.737 232.641 203.439 232.641C203.934 232.641 204.384 232.699 204.789 232.816C205.194 232.933 205.455 233.01 205.572 233.046V253.013H201.116Z" fill="white"/>
<path d="M208.343 248.369V236.731C208.343 236.011 208.555 235.503 208.978 235.206C209.401 234.909 209.963 234.76 210.665 234.76C211.16 234.76 211.61 234.823 212.015 234.949C212.42 235.066 212.677 235.143 212.785 235.179V238.918H215.971C216.799 238.918 217.388 239.085 217.739 239.418C218.09 239.742 218.266 240.237 218.266 240.903C218.266 241.38 218.189 241.826 218.036 242.24C217.892 242.654 217.784 242.928 217.712 243.063H212.785V247.397C212.785 247.82 212.848 248.157 212.974 248.409C213.109 248.661 213.271 248.859 213.46 249.003C213.658 249.147 213.878 249.246 214.121 249.3C214.373 249.345 214.63 249.368 214.891 249.368C215.404 249.368 215.872 249.291 216.295 249.138C216.727 248.976 217.033 248.841 217.213 248.733L218.955 251.771C218.793 251.915 218.554 252.082 218.239 252.271C217.924 252.451 217.546 252.626 217.105 252.797C216.664 252.959 216.164 253.099 215.606 253.216C215.057 253.342 214.477 253.405 213.865 253.405C212.128 253.405 210.773 252.95 209.801 252.041C208.829 251.123 208.343 249.899 208.343 248.369Z" fill="white"/>
<path d="M220.092 235.125C220.092 234.423 220.326 233.833 220.794 233.356C221.271 232.879 221.861 232.641 222.563 232.641C223.265 232.641 223.855 232.879 224.332 233.356C224.809 233.833 225.047 234.423 225.047 235.125C225.047 235.827 224.809 236.412 224.332 236.88C223.855 237.348 223.265 237.582 222.563 237.582C221.861 237.582 221.271 237.348 220.794 236.88C220.326 236.412 220.092 235.827 220.092 235.125ZM220.349 253.013V240.876C220.349 240.156 220.56 239.652 220.983 239.364C221.406 239.067 221.969 238.918 222.671 238.918C223.166 238.918 223.616 238.977 224.021 239.094C224.426 239.211 224.687 239.287 224.804 239.323V253.013H220.349Z" fill="white"/>
<path d="M227.71 253.013V238.473C227.71 237.456 227.85 236.578 228.129 235.84C228.417 235.102 228.818 234.499 229.331 234.031C229.853 233.563 230.478 233.217 231.207 232.992C231.936 232.758 232.742 232.641 233.624 232.641C234.398 232.641 235.073 232.699 235.649 232.816C236.234 232.933 236.738 233.122 237.161 233.383C237.386 233.509 237.597 233.698 237.795 233.95C238.002 234.202 238.106 234.531 238.106 234.936C238.106 235.359 237.98 235.75 237.728 236.11C237.485 236.47 237.215 236.722 236.918 236.866C236.693 236.659 236.346 236.479 235.878 236.326C235.41 236.173 234.929 236.097 234.434 236.097C233.732 236.097 233.178 236.281 232.773 236.65C232.368 237.019 232.166 237.568 232.166 238.297V238.918H235.23C236.058 238.918 236.648 239.085 236.999 239.418C237.35 239.742 237.525 240.237 237.525 240.903C237.525 241.38 237.449 241.826 237.296 242.24C237.152 242.654 237.044 242.928 236.972 243.063H232.166V253.013H227.71Z" fill="white"/>
<path d="M238.906 247.37V240.876C238.906 240.156 239.118 239.652 239.541 239.364C239.964 239.067 240.526 238.918 241.228 238.918C241.723 238.918 242.173 238.977 242.578 239.094C242.983 239.211 243.24 239.287 243.348 239.323V246.465C243.348 247.347 243.555 247.982 243.969 248.369C244.392 248.756 245.045 248.949 245.927 248.949C246.755 248.949 247.398 248.711 247.857 248.234C248.316 247.748 248.546 247.01 248.546 246.02V240.876C248.546 240.156 248.757 239.652 249.18 239.364C249.612 239.067 250.175 238.918 250.868 238.918C251.363 238.918 251.813 238.977 252.218 239.094C252.632 239.211 252.893 239.287 253.001 239.323V251.055C253.001 252.46 252.816 253.652 252.447 254.633C252.078 255.614 251.552 256.415 250.868 257.036C250.193 257.657 249.383 258.107 248.438 258.386C247.502 258.674 246.453 258.818 245.292 258.818C244.482 258.818 243.735 258.773 243.051 258.683C242.367 258.593 241.764 258.485 241.242 258.359C240.729 258.242 240.315 258.125 240 258.008C239.694 257.9 239.514 257.828 239.46 257.792L240.526 254.539C240.598 254.575 240.76 254.633 241.012 254.714C241.264 254.795 241.575 254.876 241.944 254.957C242.313 255.047 242.731 255.124 243.199 255.187C243.667 255.25 244.154 255.281 244.658 255.281C246.08 255.281 247.101 254.975 247.722 254.363C248.352 253.76 248.667 252.757 248.667 251.352C248.316 251.775 247.781 252.113 247.061 252.365C246.341 252.617 245.621 252.743 244.901 252.743C244.054 252.743 243.267 252.635 242.538 252.419C241.809 252.203 241.17 251.874 240.621 251.433C240.081 250.992 239.658 250.439 239.352 249.773C239.055 249.098 238.906 248.297 238.906 247.37Z" fill="white"/>
<path fill-rule="evenodd" clip-rule="evenodd" d="M97.6503 251.298L97.6678 251.316C98.6077 252.258 98.1316 253.865 96.831 254.146C94.989 254.543 93.0276 254.52 91.0829 253.997C84.5225 252.235 80.6616 245.508 82.448 238.954C84.2343 232.4 90.9237 228.6 97.4397 230.353C99.4311 230.888 101.175 231.886 102.588 233.198C103.557 234.1 103.159 235.714 101.88 236.056L101.856 236.062C101.298 236.211 100.703 236.063 100.28 235.67C99.2592 234.723 97.9994 234.004 96.5613 233.617C91.8638 232.353 87.0319 235.112 85.7249 239.786C84.4037 244.511 87.1512 249.393 91.8774 250.71C93.305 251.108 94.7466 251.133 96.1002 250.845C96.6612 250.725 97.2451 250.893 97.6503 251.299V251.298Z" fill="#7000FF"/>
<path d="M106.081 245.355C105.486 247.569 104.32 249.477 102.784 250.964C102.12 251.606 101.064 251.595 100.413 250.942C99.7478 250.276 99.7529 249.192 100.429 248.538C101.541 247.462 102.386 246.08 102.817 244.477C103.241 242.903 103.213 241.314 102.812 239.847C102.565 238.944 103.103 238.014 104.008 237.772C104.903 237.534 105.828 238.059 106.072 238.954C106.628 240.981 106.667 243.179 106.081 245.355V245.355Z" fill="#BA63FF"/>
<path d="M87.8283 239.762C88.3522 238.258 89.2563 236.995 90.3957 236.043C90.8845 235.634 91.612 235.698 92.0282 236.18C92.4542 236.674 92.3993 237.424 91.8991 237.842C91.0749 238.531 90.421 239.445 90.042 240.533C89.6695 241.602 89.6098 242.704 89.8147 243.74C89.9401 244.375 89.5191 244.989 88.8839 245.11L88.8812 245.11C88.2466 245.231 87.6364 244.815 87.5118 244.181C87.2316 242.753 87.3151 241.234 87.8283 239.761V239.762Z" fill="#8717F8"/>
<path d="M100.079 255.879H89.2304C88.333 255.879 87.6055 256.606 87.6055 257.504C87.6055 258.401 88.333 259.129 89.2304 259.129H100.079C100.976 259.129 101.704 258.401 101.704 257.504C101.704 256.606 100.976 255.879 100.079 255.879Z" fill="#BA63FF"/>
<path d="M84.6986 229.734L81.5343 225.96C80.9577 225.272 79.9328 225.182 79.2451 225.759C78.5574 226.336 78.4674 227.36 79.044 228.048L82.2082 231.822C82.7849 232.51 83.8098 232.6 84.4975 232.023C85.1852 231.446 85.2752 230.421 84.6986 229.734Z" fill="#7000FF"/>
<path d="M106.655 231.82L109.819 228.046C110.396 227.358 110.306 226.333 109.618 225.757C108.93 225.18 107.906 225.27 107.329 225.958L104.165 229.731C103.588 230.419 103.678 231.444 104.366 232.021C105.053 232.597 106.078 232.507 106.655 231.82Z" fill="#7000FF"/>
<path d="M95.8848 226.55V221.625C95.8848 220.728 95.1572 220 94.2598 220C93.3623 220 92.6348 220.728 92.6348 221.625V226.55C92.6348 227.447 93.3623 228.175 94.2598 228.175C95.1572 228.175 95.8848 227.447 95.8848 226.55Z" fill="#7000FF"/>
<path d="M89.612 260.645H99.8122C99.9648 260.645 100.089 260.768 100.089 260.921C100.089 262.235 99.0219 263.302 97.7081 263.302H91.7165C90.4025 263.302 89.3359 262.235 89.3359 260.921C89.3359 260.768 89.4598 260.645 89.6124 260.645H89.612Z" fill="#8717F8"/>
<line x1="166" y1="122" x2="166" y2="203" stroke="#7000FF" stroke-width="2"/>
<line x1="166" y1="325" x2="166" y2="406" stroke="#0CFF00" stroke-width="2"/>
<line x1="166" y1="528" x2="166" y2="609" stroke="#FF800A" stroke-width="2"/>
<circle cx="166" cy="116" r="18" fill="#0F52FF"/>
<circle cx="166" cy="319" r="18" fill="#7000FF"/>
<circle cx="166" cy="522" r="18" fill="#0CFF00"/>
<rect x="53" y="77" width="226" height="39" rx="12" fill="#0F52FF"/>
<path d="M87.672 101L86.916 98.858H82.856L82.114 101H80.35L84.06 91.06H85.712L89.436 101H87.672ZM83.374 97.402H86.412L84.9 93.09H84.872L83.374 97.402ZM95.811 90.696H97.365V101H95.867V100.09H95.839C95.3164 100.771 94.579 101.112 93.627 101.112C92.6657 101.112 91.8724 100.79 91.247 100.146C90.6217 99.502 90.309 98.6573 90.309 97.612C90.309 96.5853 90.6217 95.7407 91.247 95.078C91.8817 94.406 92.6704 94.07 93.613 94.07C94.5277 94.07 95.251 94.378 95.783 94.994H95.811V90.696ZM92.451 99.11C92.8244 99.4927 93.2957 99.684 93.865 99.684C94.4344 99.684 94.9104 99.4927 95.293 99.11C95.6757 98.7273 95.867 98.2327 95.867 97.626C95.867 97.01 95.6804 96.5013 95.307 96.1C94.9337 95.6893 94.4577 95.484 93.879 95.484C93.319 95.484 92.8477 95.68 92.465 96.072C92.0917 96.464 91.905 96.982 91.905 97.626C91.905 98.2327 92.087 98.7273 92.451 99.11ZM103.947 94.168H105.515V101H103.947V100.104C103.387 100.776 102.682 101.112 101.833 101.112C100.125 101.112 99.2707 100.183 99.2707 98.326V94.168H100.839V97.906C100.839 98.5687 100.941 99.0307 101.147 99.292C101.361 99.5533 101.711 99.684 102.197 99.684C102.682 99.684 103.093 99.488 103.429 99.096C103.774 98.6947 103.947 98.144 103.947 97.444V94.168ZM110.584 101.112C109.567 101.112 108.732 100.785 108.078 100.132C107.425 99.4787 107.098 98.634 107.098 97.598C107.098 96.5527 107.43 95.7033 108.092 95.05C108.755 94.3967 109.604 94.07 110.64 94.07C111.191 94.07 111.723 94.182 112.236 94.406C112.75 94.6207 113.174 94.9333 113.51 95.344L112.446 96.268C111.998 95.7453 111.424 95.484 110.724 95.484C110.118 95.484 109.628 95.68 109.254 96.072C108.881 96.4547 108.694 96.9587 108.694 97.584C108.694 98.2093 108.881 98.718 109.254 99.11C109.628 99.4927 110.118 99.684 110.724 99.684C111.434 99.684 112.012 99.4413 112.46 98.956L113.538 99.908C113.23 100.263 112.815 100.552 112.292 100.776C111.779 101 111.21 101.112 110.584 101.112ZM121.2 97.5C121.2 97.668 121.186 97.878 121.158 98.13H116.174C116.276 98.6153 116.5 98.998 116.846 99.278C117.191 99.5487 117.616 99.684 118.12 99.684C118.829 99.684 119.398 99.418 119.828 98.886L120.92 99.824C120.257 100.683 119.296 101.112 118.036 101.112C117.028 101.112 116.192 100.79 115.53 100.146C114.876 99.4927 114.55 98.6387 114.55 97.584C114.55 96.548 114.862 95.7033 115.488 95.05C116.122 94.3967 116.92 94.07 117.882 94.07C118.88 94.07 119.683 94.392 120.29 95.036C120.896 95.6707 121.2 96.492 121.2 97.5ZM119.044 95.862C118.764 95.61 118.404 95.484 117.966 95.484C117.527 95.484 117.149 95.6053 116.832 95.848C116.524 96.0907 116.314 96.4313 116.202 96.87H119.618C119.515 96.4407 119.324 96.1047 119.044 95.862ZM128.747 101.112C127.655 101.112 126.736 100.781 125.989 100.118L126.773 98.942C127.314 99.474 127.972 99.74 128.747 99.74C129.046 99.74 129.279 99.6793 129.447 99.558C129.615 99.4367 129.699 99.2733 129.699 99.068C129.699 98.9093 129.601 98.7787 129.405 98.676C129.218 98.564 128.868 98.4193 128.355 98.242C127.683 98.0087 127.165 97.7287 126.801 97.402C126.446 97.0753 126.269 96.6087 126.269 96.002C126.269 95.442 126.493 94.98 126.941 94.616C127.398 94.252 127.977 94.07 128.677 94.07C129.582 94.07 130.385 94.3547 131.085 94.924L130.301 96.156C129.788 95.6707 129.218 95.428 128.593 95.428C128.406 95.428 128.234 95.4793 128.075 95.582C127.926 95.6753 127.851 95.82 127.851 96.016C127.851 96.296 128.21 96.5713 128.929 96.842C129.816 97.1873 130.371 97.4393 130.595 97.598C131.062 97.9247 131.295 98.4053 131.295 99.04C131.295 99.6467 131.076 100.146 130.637 100.538C130.208 100.921 129.578 101.112 128.747 101.112ZM137.388 94.168H138.956V101H137.388V100.104C136.828 100.776 136.123 101.112 135.274 101.112C133.566 101.112 132.712 100.183 132.712 98.326V94.168H134.28V97.906C134.28 98.5687 134.383 99.0307 134.588 99.292C134.803 99.5533 135.153 99.684 135.638 99.684C136.123 99.684 136.534 99.488 136.87 99.096C137.215 98.6947 137.388 98.144 137.388 97.444V94.168ZM144.026 101.112C143.008 101.112 142.173 100.785 141.52 100.132C140.866 99.4787 140.54 98.634 140.54 97.598C140.54 96.5527 140.871 95.7033 141.534 95.05C142.196 94.3967 143.046 94.07 144.082 94.07C144.632 94.07 145.164 94.182 145.678 94.406C146.191 94.6207 146.616 94.9333 146.952 95.344L145.888 96.268C145.44 95.7453 144.866 95.484 144.166 95.484C143.559 95.484 143.069 95.68 142.696 96.072C142.322 96.4547 142.136 96.9587 142.136 97.584C142.136 98.2093 142.322 98.718 142.696 99.11C143.069 99.4927 143.559 99.684 144.166 99.684C144.875 99.684 145.454 99.4413 145.902 98.956L146.98 99.908C146.672 100.263 146.256 100.552 145.734 100.776C145.22 101 144.651 101.112 144.026 101.112ZM151.477 101.112C150.46 101.112 149.624 100.785 148.971 100.132C148.318 99.4787 147.991 98.634 147.991 97.598C147.991 96.5527 148.322 95.7033 148.985 95.05C149.648 94.3967 150.497 94.07 151.533 94.07C152.084 94.07 152.616 94.182 153.129 94.406C153.642 94.6207 154.067 94.9333 154.403 95.344L153.339 96.268C152.891 95.7453 152.317 95.484 151.617 95.484C151.01 95.484 150.52 95.68 150.147 96.072C149.774 96.4547 149.587 96.9587 149.587 97.584C149.587 98.2093 149.774 98.718 150.147 99.11C150.52 99.4927 151.01 99.684 151.617 99.684C152.326 99.684 152.905 99.4413 153.353 98.956L154.431 99.908C154.123 100.263 153.708 100.552 153.185 100.776C152.672 101 152.102 101.112 151.477 101.112ZM162.092 97.5C162.092 97.668 162.078 97.878 162.05 98.13H157.066C157.169 98.6153 157.393 98.998 157.738 99.278C158.084 99.5487 158.508 99.684 159.012 99.684C159.722 99.684 160.291 99.418 160.72 98.886L161.812 99.824C161.15 100.683 160.188 101.112 158.928 101.112C157.92 101.112 157.085 100.79 156.422 100.146C155.769 99.4927 155.442 98.6387 155.442 97.584C155.442 96.548 155.755 95.7033 156.38 95.05C157.015 94.3967 157.813 94.07 158.774 94.07C159.773 94.07 160.576 94.392 161.182 95.036C161.789 95.6707 162.092 96.492 162.092 97.5ZM159.936 95.862C159.656 95.61 159.297 95.484 158.858 95.484C158.42 95.484 158.042 95.6053 157.724 95.848C157.416 96.0907 157.206 96.4313 157.094 96.87H160.51C160.408 96.4407 160.216 96.1047 159.936 95.862ZM165.894 101.112C164.802 101.112 163.882 100.781 163.136 100.118L163.92 98.942C164.461 99.474 165.119 99.74 165.894 99.74C166.192 99.74 166.426 99.6793 166.594 99.558C166.762 99.4367 166.846 99.2733 166.846 99.068C166.846 98.9093 166.748 98.7787 166.552 98.676C166.365 98.564 166.015 98.4193 165.502 98.242C164.83 98.0087 164.312 97.7287 163.948 97.402C163.593 97.0753 163.416 96.6087 163.416 96.002C163.416 95.442 163.64 94.98 164.088 94.616C164.545 94.252 165.124 94.07 165.824 94.07C166.729 94.07 167.532 94.3547 168.232 94.924L167.448 96.156C166.934 95.6707 166.365 95.428 165.74 95.428C165.553 95.428 165.38 95.4793 165.222 95.582C165.072 95.6753 164.998 95.82 164.998 96.016C164.998 96.296 165.357 96.5713 166.076 96.842C166.962 97.1873 167.518 97.4393 167.742 97.598C168.208 97.9247 168.442 98.4053 168.442 99.04C168.442 99.6467 168.222 100.146 167.784 100.538C167.354 100.921 166.724 101.112 165.894 101.112ZM174.535 94.168H176.103V101H174.535V100.104C173.975 100.776 173.27 101.112 172.421 101.112C170.713 101.112 169.859 100.183 169.859 98.326V94.168H171.427V97.906C171.427 98.5687 171.529 99.0307 171.735 99.292C171.949 99.5533 172.299 99.684 172.785 99.684C173.27 99.684 173.681 99.488 174.017 99.096C174.362 98.6947 174.535 98.144 174.535 97.444V94.168ZM178.19 101V90.696H179.758V101H178.19ZM186.535 92.194H186.507L185.737 93.244H184.211L185.793 91.186H187.193L188.845 93.244H187.305L186.535 92.194ZM185.751 101V94.168H187.319V101H185.751ZM193.345 94.07C194.129 94.07 194.741 94.308 195.179 94.784C195.627 95.26 195.851 95.9927 195.851 96.982V101H194.283V97.388C194.283 96.6973 194.157 96.2073 193.905 95.918C193.663 95.6287 193.294 95.484 192.799 95.484C192.258 95.484 191.829 95.666 191.511 96.03C191.194 96.394 191.035 96.9073 191.035 97.57V101H189.467V94.168H191.035V95.12H191.049C191.637 94.42 192.403 94.07 193.345 94.07ZM206.006 94.168H207.686L204.984 101H203.486L200.77 94.168H202.436L204.228 99.04H204.242L206.006 94.168ZM210.615 92.852C210.409 93.0573 210.162 93.16 209.873 93.16C209.583 93.16 209.336 93.0573 209.131 92.852C208.925 92.6467 208.823 92.3993 208.823 92.11C208.823 91.83 208.925 91.5873 209.131 91.382C209.336 91.1767 209.583 91.074 209.873 91.074C210.162 91.074 210.409 91.1767 210.615 91.382C210.829 91.5873 210.937 91.83 210.937 92.11C210.937 92.3993 210.829 92.6467 210.615 92.852ZM209.089 101V94.168H210.657V101H209.089ZM217.817 94.168H219.385V101H217.887V100.09H217.859C217.355 100.771 216.632 101.112 215.689 101.112C214.728 101.112 213.935 100.79 213.309 100.146C212.693 99.502 212.385 98.6573 212.385 97.612C212.385 96.5853 212.698 95.7407 213.323 95.078C213.949 94.406 214.733 94.07 215.675 94.07C216.571 94.07 217.276 94.378 217.789 94.994H217.817V94.168ZM215.941 99.684C216.483 99.684 216.94 99.4927 217.313 99.11C217.696 98.7273 217.887 98.2327 217.887 97.626C217.887 97.0193 217.701 96.5107 217.327 96.1C216.963 95.6893 216.501 95.484 215.941 95.484C215.381 95.484 214.915 95.68 214.541 96.072C214.168 96.464 213.981 96.982 213.981 97.626C213.981 98.2327 214.163 98.7273 214.527 99.11C214.891 99.4927 215.363 99.684 215.941 99.684ZM223.394 101.112C222.796 101.112 222.33 100.921 221.994 100.538C221.658 100.155 221.49 99.5907 221.49 98.844V95.498H220.65V94.168H221.49V91.9L223.058 91.732V94.168H225.06V95.498H223.058V98.69C223.058 99.0353 223.109 99.2827 223.212 99.432C223.314 99.572 223.482 99.642 223.716 99.642C224.024 99.642 224.36 99.544 224.724 99.348L225.13 100.706C224.635 100.977 224.056 101.112 223.394 101.112ZM222.26 104.066L221.896 103.156C222.176 103.053 222.372 102.937 222.484 102.806C222.605 102.685 222.666 102.512 222.666 102.288C222.666 102.157 222.638 101.975 222.582 101.742H224.01C224.047 101.929 224.066 102.148 224.066 102.4C224.066 102.904 223.893 103.291 223.548 103.562C223.212 103.842 222.782 104.01 222.26 104.066ZM231.188 94.168H232.756V101H231.258V100.09H231.23C230.726 100.771 230.003 101.112 229.06 101.112C228.099 101.112 227.306 100.79 226.68 100.146C226.064 99.502 225.756 98.6573 225.756 97.612C225.756 96.5853 226.069 95.7407 226.694 95.078C227.32 94.406 228.104 94.07 229.046 94.07C229.942 94.07 230.647 94.378 231.16 94.994H231.188V94.168ZM229.312 99.684C229.854 99.684 230.311 99.4927 230.684 99.11C231.067 98.7273 231.258 98.2327 231.258 97.626C231.258 97.0193 231.072 96.5107 230.698 96.1C230.334 95.6893 229.872 95.484 229.312 95.484C228.752 95.484 228.286 95.68 227.912 96.072C227.539 96.464 227.352 96.982 227.352 97.626C227.352 98.2327 227.534 98.7273 227.898 99.11C228.262 99.4927 228.734 99.684 229.312 99.684ZM240.511 101.112C239.914 101.112 239.447 100.921 239.111 100.538C238.775 100.155 238.607 99.5907 238.607 98.844V95.498H237.767V94.168H238.607V91.9L240.175 91.732V94.168H242.177V95.498H240.175V98.69C240.175 99.0353 240.226 99.2827 240.329 99.432C240.432 99.572 240.6 99.642 240.833 99.642C241.141 99.642 241.477 99.544 241.841 99.348L242.247 100.706C241.752 100.977 241.174 101.112 240.511 101.112ZM248.305 94.168H249.873V101H248.375V100.09H248.347C247.843 100.771 247.12 101.112 246.177 101.112C245.216 101.112 244.423 100.79 243.797 100.146C243.181 99.502 242.873 98.6573 242.873 97.612C242.873 96.5853 243.186 95.7407 243.811 95.078C244.437 94.406 245.221 94.07 246.163 94.07C247.059 94.07 247.764 94.378 248.277 94.994H248.305V94.168ZM246.429 99.684C246.971 99.684 247.428 99.4927 247.801 99.11C248.184 98.7273 248.375 98.2327 248.375 97.626C248.375 97.0193 248.189 96.5107 247.815 96.1C247.451 95.6893 246.989 95.484 246.429 95.484C245.869 95.484 245.403 95.68 245.029 96.072C244.656 96.464 244.469 96.982 244.469 97.626C244.469 98.2327 244.651 98.7273 245.015 99.11C245.379 99.4927 245.851 99.684 246.429 99.684Z" fill="white"/>
<rect x="53" y="280" width="226" height="39" rx="12" fill="#7000FF"/>
<rect x="53" y="483" width="226" height="39" rx="12" fill="#0CFF00"/>
<path d="M76.218 304V294.06H79.816C80.9547 294.06 81.804 294.354 82.364 294.942C82.9333 295.521 83.218 296.3 83.218 297.28C83.218 298.325 82.896 299.119 82.252 299.66C81.608 300.192 80.7307 300.458 79.62 300.458H77.912V304H76.218ZM77.912 298.932H79.452C80.124 298.932 80.628 298.783 80.964 298.484C81.3 298.176 81.468 297.765 81.468 297.252C81.468 296.72 81.3047 296.309 80.978 296.02C80.6513 295.721 80.1847 295.572 79.578 295.572H77.912V298.932ZM88.5367 297.07H88.7327V298.82C88.49 298.801 88.3314 298.792 88.2567 298.792C87.678 298.792 87.2207 298.979 86.8847 299.352C86.558 299.716 86.3947 300.187 86.3947 300.766V304H84.8267V297.168H86.3947V298.204H86.4087C86.9594 297.448 87.6687 297.07 88.5367 297.07ZM93.0223 304.112C91.9583 304.112 91.0949 303.781 90.4323 303.118C89.7696 302.455 89.4383 301.615 89.4383 300.598C89.4383 299.581 89.7696 298.741 90.4323 298.078C91.0949 297.406 91.9583 297.07 93.0223 297.07C94.0769 297.07 94.9356 297.397 95.5983 298.05C96.2703 298.703 96.6063 299.553 96.6063 300.598C96.6063 301.634 96.2703 302.479 95.5983 303.132C94.9356 303.785 94.0769 304.112 93.0223 304.112ZM93.0223 302.684C93.5823 302.684 94.0536 302.488 94.4363 302.096C94.8189 301.704 95.0103 301.205 95.0103 300.598C95.0103 299.973 94.8189 299.464 94.4363 299.072C94.0629 298.68 93.5916 298.484 93.0223 298.484C92.4343 298.484 91.9536 298.685 91.5803 299.086C91.2163 299.487 91.0343 299.991 91.0343 300.598C91.0343 301.186 91.2209 301.681 91.5943 302.082C91.9676 302.483 92.4436 302.684 93.0223 302.684ZM99.8628 295.852C99.6575 296.057 99.4101 296.16 99.1208 296.16C98.8315 296.16 98.5841 296.057 98.3788 295.852C98.1735 295.647 98.0708 295.399 98.0708 295.11C98.0708 294.83 98.1735 294.587 98.3788 294.382C98.5841 294.177 98.8315 294.074 99.1208 294.074C99.4101 294.074 99.6575 294.177 99.8628 294.382C100.077 294.587 100.185 294.83 100.185 295.11C100.185 295.399 100.077 295.647 99.8628 295.852ZM98.3368 304V297.168H99.9048V304H98.3368ZM108.297 300.5C108.297 300.668 108.283 300.878 108.255 301.13H103.271C103.374 301.615 103.598 301.998 103.943 302.278C104.289 302.549 104.713 302.684 105.217 302.684C105.927 302.684 106.496 302.418 106.925 301.886L108.017 302.824C107.355 303.683 106.393 304.112 105.133 304.112C104.125 304.112 103.29 303.79 102.627 303.146C101.974 302.493 101.647 301.639 101.647 300.584C101.647 299.548 101.96 298.703 102.585 298.05C103.22 297.397 104.018 297.07 104.979 297.07C105.978 297.07 106.781 297.392 107.387 298.036C107.994 298.671 108.297 299.492 108.297 300.5ZM106.141 298.862C105.861 298.61 105.502 298.484 105.063 298.484C104.625 298.484 104.247 298.605 103.929 298.848C103.621 299.091 103.411 299.431 103.299 299.87H106.715C106.613 299.441 106.421 299.105 106.141 298.862ZM112.995 304.112C111.977 304.112 111.142 303.785 110.489 303.132C109.835 302.479 109.509 301.634 109.509 300.598C109.509 299.553 109.84 298.703 110.503 298.05C111.165 297.397 112.015 297.07 113.051 297.07C113.601 297.07 114.133 297.182 114.647 297.406C115.16 297.621 115.585 297.933 115.921 298.344L114.857 299.268C114.409 298.745 113.835 298.484 113.135 298.484C112.528 298.484 112.038 298.68 111.665 299.072C111.291 299.455 111.105 299.959 111.105 300.584C111.105 301.209 111.291 301.718 111.665 302.11C112.038 302.493 112.528 302.684 113.135 302.684C113.844 302.684 114.423 302.441 114.871 301.956L115.949 302.908C115.641 303.263 115.225 303.552 114.703 303.776C114.189 304 113.62 304.112 112.995 304.112ZM119.396 304.112C118.798 304.112 118.332 303.921 117.996 303.538C117.66 303.155 117.492 302.591 117.492 301.844V298.498H116.652V297.168H117.492V294.9L119.06 294.732V297.168H121.062V298.498H119.06V301.69C119.06 302.035 119.111 302.283 119.214 302.432C119.316 302.572 119.484 302.642 119.718 302.642C120.026 302.642 120.362 302.544 120.726 302.348L121.132 303.706C120.637 303.977 120.058 304.112 119.396 304.112ZM128.395 300.5C128.395 300.668 128.381 300.878 128.353 301.13H123.369C123.472 301.615 123.696 301.998 124.041 302.278C124.386 302.549 124.811 302.684 125.315 302.684C126.024 302.684 126.594 302.418 127.023 301.886L128.115 302.824C127.452 303.683 126.491 304.112 125.231 304.112C124.223 304.112 123.388 303.79 122.725 303.146C122.072 302.493 121.745 301.639 121.745 300.584C121.745 299.548 122.058 298.703 122.683 298.05C123.318 297.397 124.116 297.07 125.077 297.07C126.076 297.07 126.878 297.392 127.485 298.036C128.092 298.671 128.395 299.492 128.395 300.5ZM126.239 298.862C125.959 298.61 125.6 298.484 125.161 298.484C124.722 298.484 124.344 298.605 124.027 298.848C123.719 299.091 123.509 299.431 123.397 299.87H126.813C126.71 299.441 126.519 299.105 126.239 298.862ZM135.024 297.168H136.592V304H135.094V303.09H135.066C134.562 303.771 133.839 304.112 132.896 304.112C131.935 304.112 131.142 303.79 130.516 303.146C129.9 302.502 129.592 301.657 129.592 300.612C129.592 299.585 129.905 298.741 130.53 298.078C131.156 297.406 131.94 297.07 132.882 297.07C133.778 297.07 134.483 297.378 134.996 297.994H135.024V297.168ZM133.148 302.684C133.69 302.684 134.147 302.493 134.52 302.11C134.903 301.727 135.094 301.233 135.094 300.626C135.094 300.019 134.908 299.511 134.534 299.1C134.17 298.689 133.708 298.484 133.148 298.484C132.588 298.484 132.122 298.68 131.748 299.072C131.375 299.464 131.188 299.982 131.188 300.626C131.188 301.233 131.37 301.727 131.734 302.11C132.098 302.493 132.57 302.684 133.148 302.684ZM143.779 298.246L140.209 302.656V302.67H143.723V304H138.109V302.894L141.623 298.54V298.498H138.347V297.168H143.779V298.246ZM148.422 296.286C147.834 296.286 147.335 296.109 146.924 295.754C146.514 295.39 146.285 294.886 146.238 294.242H147.47C147.489 294.522 147.582 294.751 147.75 294.928C147.918 295.105 148.142 295.194 148.422 295.194C148.693 295.194 148.917 295.11 149.094 294.942C149.272 294.765 149.365 294.531 149.374 294.242H150.606C150.56 294.849 150.336 295.343 149.934 295.726C149.542 296.099 149.038 296.286 148.422 296.286ZM150.186 297.168H151.754V304H150.256V303.09H150.228C149.724 303.771 149.001 304.112 148.058 304.112C147.097 304.112 146.304 303.79 145.678 303.146C145.062 302.502 144.754 301.657 144.754 300.612C144.754 299.585 145.067 298.741 145.692 298.078C146.318 297.406 147.102 297.07 148.044 297.07C148.94 297.07 149.645 297.378 150.158 297.994H150.186V297.168ZM148.31 302.684C148.852 302.684 149.309 302.493 149.682 302.11C150.065 301.727 150.256 301.233 150.256 300.626C150.256 300.019 150.07 299.511 149.696 299.1C149.332 298.689 148.87 298.484 148.31 298.484C147.75 298.484 147.284 298.68 146.91 299.072C146.537 299.464 146.35 299.982 146.35 300.626C146.35 301.233 146.532 301.727 146.896 302.11C147.26 302.493 147.732 302.684 148.31 302.684ZM161.973 297.168H163.653L160.951 304H159.453L156.737 297.168H158.403L160.195 302.04H160.209L161.973 297.168ZM166.582 295.852C166.376 296.057 166.129 296.16 165.84 296.16C165.55 296.16 165.303 296.057 165.098 295.852C164.892 295.647 164.79 295.399 164.79 295.11C164.79 294.83 164.892 294.587 165.098 294.382C165.303 294.177 165.55 294.074 165.84 294.074C166.129 294.074 166.376 294.177 166.582 294.382C166.796 294.587 166.904 294.83 166.904 295.11C166.904 295.399 166.796 295.647 166.582 295.852ZM165.056 304V297.168H166.624V304H165.056ZM170.396 295.852C170.191 296.057 169.943 296.16 169.654 296.16C169.365 296.16 169.117 296.057 168.912 295.852C168.707 295.647 168.604 295.399 168.604 295.11C168.604 294.83 168.707 294.587 168.912 294.382C169.117 294.177 169.365 294.074 169.654 294.074C169.943 294.074 170.191 294.177 170.396 294.382C170.611 294.587 170.718 294.83 170.718 295.11C170.718 295.399 170.611 295.647 170.396 295.852ZM168.87 304V297.168H170.438V304H168.87ZM174.562 304.112C173.964 304.112 173.498 303.921 173.162 303.538C172.826 303.155 172.658 302.591 172.658 301.844V298.498H171.818V297.168H172.658V294.9L174.226 294.732V297.168H176.228V298.498H174.226V301.69C174.226 302.035 174.277 302.283 174.38 302.432C174.482 302.572 174.65 302.642 174.884 302.642C175.192 302.642 175.528 302.544 175.892 302.348L176.298 303.706C175.803 303.977 175.224 304.112 174.562 304.112ZM180.495 304.112C179.431 304.112 178.568 303.781 177.905 303.118C177.242 302.455 176.911 301.615 176.911 300.598C176.911 299.581 177.242 298.741 177.905 298.078C178.568 297.406 179.431 297.07 180.495 297.07C181.55 297.07 182.408 297.397 183.071 298.05C183.743 298.703 184.079 299.553 184.079 300.598C184.079 301.634 183.743 302.479 183.071 303.132C182.408 303.785 181.55 304.112 180.495 304.112ZM180.495 302.684C181.055 302.684 181.526 302.488 181.909 302.096C182.292 301.704 182.483 301.205 182.483 300.598C182.483 299.973 182.292 299.464 181.909 299.072C181.536 298.68 181.064 298.484 180.495 298.484C179.907 298.484 179.426 298.685 179.053 299.086C178.689 299.487 178.507 299.991 178.507 300.598C178.507 301.186 178.694 301.681 179.067 302.082C179.44 302.483 179.916 302.684 180.495 302.684ZM189.421 297.07H189.617V298.82C189.375 298.801 189.216 298.792 189.141 298.792C188.563 298.792 188.105 298.979 187.769 299.352C187.443 299.716 187.279 300.187 187.279 300.766V304H185.711V297.168H187.279V298.204H187.293C187.844 297.448 188.553 297.07 189.421 297.07ZM195.456 297.168H197.024V304H195.456V303.104C194.896 303.776 194.192 304.112 193.342 304.112C191.634 304.112 190.78 303.183 190.78 301.326V297.168H192.348V300.906C192.348 301.569 192.451 302.031 192.656 302.292C192.871 302.553 193.221 302.684 193.706 302.684C194.192 302.684 194.602 302.488 194.938 302.096C195.284 301.695 195.456 301.144 195.456 300.444V297.168ZM199.112 304V293.696H200.68V304H199.112ZM211.587 297.168H213.155V304H211.657V303.09H211.629C211.125 303.771 210.401 304.112 209.459 304.112C208.497 304.112 207.704 303.79 207.079 303.146C206.463 302.502 206.155 301.657 206.155 300.612C206.155 299.585 206.467 298.741 207.093 298.078C207.718 297.406 208.502 297.07 209.445 297.07C210.341 297.07 211.045 297.378 211.559 297.994H211.587V297.168ZM209.711 302.684C210.252 302.684 210.709 302.493 211.083 302.11C211.465 301.727 211.657 301.233 211.657 300.626C211.657 300.019 211.47 299.511 211.097 299.1C210.733 298.689 210.271 298.484 209.711 298.484C209.151 298.484 208.684 298.68 208.311 299.072C207.937 299.464 207.751 299.982 207.751 300.626C207.751 301.233 207.933 301.727 208.297 302.11C208.661 302.493 209.132 302.684 209.711 302.684ZM215.358 304V298.498H214.602V297.168H215.358V295.922C215.358 295.157 215.535 294.578 215.89 294.186C216.245 293.785 216.758 293.584 217.43 293.584C218.083 293.584 218.653 293.743 219.138 294.06L218.788 295.376C218.293 295.143 217.915 295.026 217.654 295.026C217.169 295.026 216.926 295.381 216.926 296.09V297.168H218.606V298.498H216.926V304H215.358ZM224.794 297.168H226.362V304H224.864V303.09H224.836C224.332 303.771 223.608 304.112 222.666 304.112C221.704 304.112 220.911 303.79 220.286 303.146C219.67 302.502 219.362 301.657 219.362 300.612C219.362 299.585 219.674 298.741 220.3 298.078C220.925 297.406 221.709 297.07 222.652 297.07C223.548 297.07 224.252 297.378 224.766 297.994H224.794V297.168ZM222.918 302.684C223.459 302.684 223.916 302.493 224.29 302.11C224.672 301.727 224.864 301.233 224.864 300.626C224.864 300.019 224.677 299.511 224.304 299.1C223.94 298.689 223.478 298.484 222.918 298.484C222.358 298.484 221.891 298.68 221.518 299.072C221.144 299.464 220.958 299.982 220.958 300.626C220.958 301.233 221.14 301.727 221.504 302.11C221.868 302.493 222.339 302.684 222.918 302.684ZM231.42 304.112C230.403 304.112 229.568 303.785 228.914 303.132C228.261 302.479 227.934 301.634 227.934 300.598C227.934 299.553 228.266 298.703 228.928 298.05C229.591 297.397 230.44 297.07 231.476 297.07C232.027 297.07 232.559 297.182 233.072 297.406C233.586 297.621 234.01 297.933 234.346 298.344L233.282 299.268C232.834 298.745 232.26 298.484 231.56 298.484C230.954 298.484 230.464 298.68 230.09 299.072C229.717 299.455 229.53 299.959 229.53 300.584C229.53 301.209 229.717 301.718 230.09 302.11C230.464 302.493 230.954 302.684 231.56 302.684C232.27 302.684 232.848 302.441 233.296 301.956L234.374 302.908C234.066 303.263 233.651 303.552 233.128 303.776C232.615 304 232.046 304.112 231.42 304.112ZM242.036 300.5C242.036 300.668 242.022 300.878 241.994 301.13H237.01C237.112 301.615 237.336 301.998 237.682 302.278C238.027 302.549 238.452 302.684 238.956 302.684C239.665 302.684 240.234 302.418 240.664 301.886L241.756 302.824C241.093 303.683 240.132 304.112 238.872 304.112C237.864 304.112 237.028 303.79 236.366 303.146C235.712 302.493 235.386 301.639 235.386 300.584C235.386 299.548 235.698 298.703 236.324 298.05C236.958 297.397 237.756 297.07 238.718 297.07C239.716 297.07 240.519 297.392 241.126 298.036C241.732 298.671 242.036 299.492 242.036 300.5ZM239.88 298.862C239.6 298.61 239.24 298.484 238.802 298.484C238.363 298.484 237.985 298.605 237.668 298.848C237.36 299.091 237.15 299.431 237.038 299.87H240.454C240.351 299.441 240.16 299.105 239.88 298.862ZM247.363 297.07H247.559V298.82C247.316 298.801 247.158 298.792 247.083 298.792C246.504 298.792 246.047 298.979 245.711 299.352C245.384 299.716 245.221 300.187 245.221 300.766V304H243.653V297.168H245.221V298.204H245.235C245.786 297.448 246.495 297.07 247.363 297.07ZM250.486 295.852C250.281 296.057 250.033 296.16 249.744 296.16C249.455 296.16 249.207 296.057 249.002 295.852C248.797 295.647 248.694 295.399 248.694 295.11C248.694 294.83 248.797 294.587 249.002 294.382C249.207 294.177 249.455 294.074 249.744 294.074C250.033 294.074 250.281 294.177 250.486 294.382C250.701 294.587 250.808 294.83 250.808 295.11C250.808 295.399 250.701 295.647 250.486 295.852ZM248.96 304V297.168H250.528V304H248.96ZM254.3 295.852C254.095 296.057 253.848 296.16 253.558 296.16C253.269 296.16 253.022 296.057 252.816 295.852C252.611 295.647 252.508 295.399 252.508 295.11C252.508 294.83 252.611 294.587 252.816 294.382C253.022 294.177 253.269 294.074 253.558 294.074C253.848 294.074 254.095 294.177 254.3 294.382C254.515 294.587 254.622 294.83 254.622 295.11C254.622 295.399 254.515 295.647 254.3 295.852ZM252.774 304V297.168H254.342V304H252.774Z" fill="white"/>
<path d="M93.072 494.96L92.302 496.01H90.776L92.358 493.952H93.758L95.41 496.01H93.87L93.1 494.96H93.072ZM92.274 507V497.06H93.968V507H92.274ZM98.304 507.112C97.7066 507.112 97.24 506.921 96.904 506.538C96.568 506.155 96.4 505.591 96.4 504.844V501.498H95.56V500.168H96.4V497.9L97.968 497.732V500.168H99.97V501.498H97.968V504.69C97.968 505.035 98.0193 505.283 98.122 505.432C98.2246 505.572 98.3926 505.642 98.626 505.642C98.934 505.642 99.27 505.544 99.634 505.348L100.04 506.706C99.5453 506.977 98.9666 507.112 98.304 507.112ZM97.17 510.066L96.806 509.156C97.086 509.053 97.282 508.937 97.394 508.806C97.5153 508.685 97.576 508.512 97.576 508.288C97.576 508.157 97.548 507.975 97.492 507.742H98.92C98.9573 507.929 98.976 508.148 98.976 508.4C98.976 508.904 98.8033 509.291 98.458 509.562C98.122 509.842 97.6926 510.01 97.17 510.066ZM102.957 498.852C102.751 499.057 102.504 499.16 102.215 499.16C101.925 499.16 101.678 499.057 101.473 498.852C101.267 498.647 101.165 498.399 101.165 498.11C101.165 497.83 101.267 497.587 101.473 497.382C101.678 497.177 101.925 497.074 102.215 497.074C102.504 497.074 102.751 497.177 102.957 497.382C103.171 497.587 103.279 497.83 103.279 498.11C103.279 498.399 103.171 498.647 102.957 498.852ZM101.431 507V500.168H102.999V507H101.431ZM109.145 507V501.498H108.389V500.168H109.145V498.922C109.145 498.157 109.322 497.578 109.677 497.186C110.032 496.785 110.545 496.584 111.217 496.584C111.87 496.584 112.44 496.743 112.925 497.06L112.575 498.376C112.08 498.143 111.702 498.026 111.441 498.026C110.956 498.026 110.713 498.381 110.713 499.09V500.168H112.393V501.498H110.713V507H109.145ZM118.581 500.168H120.149V507H118.651V506.09H118.623C118.119 506.771 117.396 507.112 116.453 507.112C115.492 507.112 114.698 506.79 114.073 506.146C113.457 505.502 113.149 504.657 113.149 503.612C113.149 502.585 113.462 501.741 114.087 501.078C114.712 500.406 115.496 500.07 116.439 500.07C117.335 500.07 118.04 500.378 118.553 500.994H118.581V500.168ZM116.705 505.684C117.246 505.684 117.704 505.493 118.077 505.11C118.46 504.727 118.651 504.233 118.651 503.626C118.651 503.019 118.464 502.511 118.091 502.1C117.727 501.689 117.265 501.484 116.705 501.484C116.145 501.484 115.678 501.68 115.305 502.072C114.932 502.464 114.745 502.982 114.745 503.626C114.745 504.233 114.927 504.727 115.291 505.11C115.655 505.493 116.126 505.684 116.705 505.684ZM125.207 507.112C124.19 507.112 123.355 506.785 122.701 506.132C122.048 505.479 121.721 504.634 121.721 503.598C121.721 502.553 122.053 501.703 122.715 501.05C123.378 500.397 124.227 500.07 125.263 500.07C125.814 500.07 126.346 500.182 126.859 500.406C127.373 500.621 127.797 500.933 128.133 501.344L127.069 502.268C126.621 501.745 126.047 501.484 125.347 501.484C124.741 501.484 124.251 501.68 123.877 502.072C123.504 502.455 123.317 502.959 123.317 503.584C123.317 504.209 123.504 504.718 123.877 505.11C124.251 505.493 124.741 505.684 125.347 505.684C126.057 505.684 126.635 505.441 127.083 504.956L128.161 505.908C127.853 506.263 127.438 506.552 126.915 506.776C126.402 507 125.833 507.112 125.207 507.112ZM135.823 503.5C135.823 503.668 135.809 503.878 135.781 504.13H130.797C130.899 504.615 131.123 504.998 131.469 505.278C131.814 505.549 132.239 505.684 132.743 505.684C133.452 505.684 134.021 505.418 134.451 504.886L135.543 505.824C134.88 506.683 133.919 507.112 132.659 507.112C131.651 507.112 130.815 506.79 130.153 506.146C129.499 505.493 129.173 504.639 129.173 503.584C129.173 502.548 129.485 501.703 130.111 501.05C130.745 500.397 131.543 500.07 132.505 500.07C133.503 500.07 134.306 500.392 134.913 501.036C135.519 501.671 135.823 502.492 135.823 503.5ZM133.667 501.862C133.387 501.61 133.027 501.484 132.589 501.484C132.15 501.484 131.772 501.605 131.455 501.848C131.147 502.091 130.937 502.431 130.825 502.87H134.241C134.138 502.441 133.947 502.105 133.667 501.862ZM146.198 500.168H147.766V507H146.268V506.09H146.24C145.736 506.771 145.013 507.112 144.07 507.112C143.109 507.112 142.315 506.79 141.69 506.146C141.074 505.502 140.766 504.657 140.766 503.612C140.766 502.585 141.079 501.741 141.704 501.078C142.329 500.406 143.113 500.07 144.056 500.07C144.952 500.07 145.657 500.378 146.17 500.994H146.198V500.168ZM144.322 505.684C144.863 505.684 145.321 505.493 145.694 505.11C146.077 504.727 146.268 504.233 146.268 503.626C146.268 503.019 146.081 502.511 145.708 502.1C145.344 501.689 144.882 501.484 144.322 501.484C143.762 501.484 143.295 501.68 142.922 502.072C142.549 502.464 142.362 502.982 142.362 503.626C142.362 504.233 142.544 504.727 142.908 505.11C143.272 505.493 143.743 505.684 144.322 505.684ZM149.969 507V501.498H149.213V500.168H149.969V498.922C149.969 498.157 150.147 497.578 150.501 497.186C150.856 496.785 151.369 496.584 152.041 496.584C152.695 496.584 153.264 496.743 153.749 497.06L153.399 498.376C152.905 498.143 152.527 498.026 152.265 498.026C151.78 498.026 151.537 498.381 151.537 499.09V500.168H153.217V501.498H151.537V507H149.969ZM159.405 500.168H160.973V507H159.475V506.09H159.447C158.943 506.771 158.22 507.112 157.277 507.112C156.316 507.112 155.522 506.79 154.897 506.146C154.281 505.502 153.973 504.657 153.973 503.612C153.973 502.585 154.286 501.741 154.911 501.078C155.536 500.406 156.32 500.07 157.263 500.07C158.159 500.07 158.864 500.378 159.377 500.994H159.405V500.168ZM157.529 505.684C158.07 505.684 158.528 505.493 158.901 505.11C159.284 504.727 159.475 504.233 159.475 503.626C159.475 503.019 159.288 502.511 158.915 502.1C158.551 501.689 158.089 501.484 157.529 501.484C156.969 501.484 156.502 501.68 156.129 502.072C155.756 502.464 155.569 502.982 155.569 503.626C155.569 504.233 155.751 504.727 156.115 505.11C156.479 505.493 156.95 505.684 157.529 505.684ZM166.032 507.112C165.014 507.112 164.179 506.785 163.526 506.132C162.872 505.479 162.546 504.634 162.546 503.598C162.546 502.553 162.877 501.703 163.54 501.05C164.202 500.397 165.052 500.07 166.088 500.07C166.638 500.07 167.17 500.182 167.684 500.406C168.197 500.621 168.622 500.933 168.958 501.344L167.894 502.268C167.446 501.745 166.872 501.484 166.172 501.484C165.565 501.484 165.075 501.68 164.702 502.072C164.328 502.455 164.142 502.959 164.142 503.584C164.142 504.209 164.328 504.718 164.702 505.11C165.075 505.493 165.565 505.684 166.172 505.684C166.881 505.684 167.46 505.441 167.908 504.956L168.986 505.908C168.678 506.263 168.262 506.552 167.74 506.776C167.226 507 166.657 507.112 166.032 507.112ZM176.647 503.5C176.647 503.668 176.633 503.878 176.605 504.13H171.621C171.724 504.615 171.948 504.998 172.293 505.278C172.638 505.549 173.063 505.684 173.567 505.684C174.276 505.684 174.846 505.418 175.275 504.886L176.367 505.824C175.704 506.683 174.743 507.112 173.483 507.112C172.475 507.112 171.64 506.79 170.977 506.146C170.324 505.493 169.997 504.639 169.997 503.584C169.997 502.548 170.31 501.703 170.935 501.05C171.57 500.397 172.368 500.07 173.329 500.07C174.328 500.07 175.13 500.392 175.737 501.036C176.344 501.671 176.647 502.492 176.647 503.5ZM174.491 501.862C174.211 501.61 173.852 501.484 173.413 501.484C172.974 501.484 172.596 501.605 172.279 501.848C171.971 502.091 171.761 502.431 171.649 502.87H175.065C174.962 502.441 174.771 502.105 174.491 501.862ZM181.974 500.07H182.17V501.82C181.928 501.801 181.769 501.792 181.694 501.792C181.116 501.792 180.658 501.979 180.322 502.352C179.996 502.716 179.832 503.187 179.832 503.766V507H178.264V500.168H179.832V501.204H179.846C180.397 500.448 181.106 500.07 181.974 500.07ZM189.526 503.5C189.526 503.668 189.512 503.878 189.484 504.13H184.5C184.602 504.615 184.826 504.998 185.172 505.278C185.517 505.549 185.942 505.684 186.446 505.684C187.155 505.684 187.724 505.418 188.154 504.886L189.246 505.824C188.583 506.683 187.622 507.112 186.362 507.112C185.354 507.112 184.518 506.79 183.856 506.146C183.202 505.493 182.876 504.639 182.876 503.584C182.876 502.548 183.188 501.703 183.814 501.05C184.448 500.397 185.246 500.07 186.208 500.07C187.206 500.07 188.009 500.392 188.616 501.036C189.222 501.671 189.526 502.492 189.526 503.5ZM187.37 501.862C187.09 501.61 186.73 501.484 186.292 501.484C185.853 501.484 185.475 501.605 185.158 501.848C184.85 502.091 184.64 502.431 184.528 502.87H187.944C187.841 502.441 187.65 502.105 187.37 501.862ZM196.155 500.168H197.723V507H196.225V506.09H196.197C195.693 506.771 194.97 507.112 194.027 507.112C193.066 507.112 192.272 506.79 191.647 506.146C191.031 505.502 190.723 504.657 190.723 503.612C190.723 502.585 191.036 501.741 191.661 501.078C192.286 500.406 193.07 500.07 194.013 500.07C194.909 500.07 195.614 500.378 196.127 500.994H196.155V500.168ZM194.279 505.684C194.82 505.684 195.278 505.493 195.651 505.11C196.034 504.727 196.225 504.233 196.225 503.626C196.225 503.019 196.038 502.511 195.665 502.1C195.301 501.689 194.839 501.484 194.279 501.484C193.719 501.484 193.252 501.68 192.879 502.072C192.506 502.464 192.319 502.982 192.319 503.626C192.319 504.233 192.501 504.727 192.865 505.11C193.229 505.493 193.7 505.684 194.279 505.684ZM207.942 500.168H209.622L206.92 507H205.422L202.706 500.168H204.372L206.164 505.04H206.178L207.942 500.168ZM212.55 498.852C212.345 499.057 212.098 499.16 211.808 499.16C211.519 499.16 211.272 499.057 211.066 498.852C210.861 498.647 210.758 498.399 210.758 498.11C210.758 497.83 210.861 497.587 211.066 497.382C211.272 497.177 211.519 497.074 211.808 497.074C212.098 497.074 212.345 497.177 212.55 497.382C212.765 497.587 212.872 497.83 212.872 498.11C212.872 498.399 212.765 498.647 212.55 498.852ZM211.024 507V500.168H212.592V507H211.024ZM218.451 500.07H218.647V501.82C218.404 501.801 218.245 501.792 218.171 501.792C217.592 501.792 217.135 501.979 216.799 502.352C216.472 502.716 216.309 503.187 216.309 503.766V507H214.741V500.168H216.309V501.204H216.323C216.873 500.448 217.583 500.07 218.451 500.07ZM224.77 500.168H226.338V507H224.84V506.09H224.812C224.308 506.771 223.585 507.112 222.642 507.112C221.681 507.112 220.888 506.79 220.262 506.146C219.646 505.502 219.338 504.657 219.338 503.612C219.338 502.585 219.651 501.741 220.276 501.078C220.902 500.406 221.686 500.07 222.628 500.07C223.524 500.07 224.229 500.378 224.742 500.994H224.77V500.168ZM222.894 505.684C223.436 505.684 223.893 505.493 224.266 505.11C224.649 504.727 224.84 504.233 224.84 503.626C224.84 503.019 224.654 502.511 224.28 502.1C223.916 501.689 223.454 501.484 222.894 501.484C222.334 501.484 221.868 501.68 221.494 502.072C221.121 502.464 220.934 502.982 220.934 503.626C220.934 504.233 221.116 504.727 221.48 505.11C221.844 505.493 222.316 505.684 222.894 505.684ZM228.415 507V496.696H229.983V507H228.415ZM235.379 499.286C234.791 499.286 234.292 499.109 233.881 498.754C233.471 498.39 233.242 497.886 233.195 497.242H234.427C234.446 497.522 234.539 497.751 234.707 497.928C234.875 498.105 235.099 498.194 235.379 498.194C235.65 498.194 235.874 498.11 236.051 497.942C236.229 497.765 236.322 497.531 236.331 497.242H237.563C237.517 497.849 237.293 498.343 236.891 498.726C236.499 499.099 235.995 499.286 235.379 499.286ZM237.143 500.168H238.711V507H237.213V506.09H237.185C236.681 506.771 235.958 507.112 235.015 507.112C234.054 507.112 233.261 506.79 232.635 506.146C232.019 505.502 231.711 504.657 231.711 503.612C231.711 502.585 232.024 501.741 232.649 501.078C233.275 500.406 234.059 500.07 235.001 500.07C235.897 500.07 236.602 500.378 237.115 500.994H237.143V500.168ZM235.267 505.684C235.809 505.684 236.266 505.493 236.639 505.11C237.022 504.727 237.213 504.233 237.213 503.626C237.213 503.019 237.027 502.511 236.653 502.1C236.289 501.689 235.827 501.484 235.267 501.484C234.707 501.484 234.241 501.68 233.867 502.072C233.494 502.464 233.307 502.982 233.307 503.626C233.307 504.233 233.489 504.727 233.853 505.11C234.217 505.493 234.689 505.684 235.267 505.684Z" fill="#00103B"/>
<path d="M153.785 650.008C153.555 651.95 152.649 653.448 151.068 654.502C149.503 655.555 147.379 656.082 144.694 656.082C142.669 656.082 140.89 655.769 139.358 655.144C137.843 654.518 136.657 653.588 135.801 652.354C134.961 651.119 134.541 649.604 134.541 647.81C134.541 646.016 134.961 644.493 135.801 643.242C136.657 641.991 137.843 641.052 139.358 640.427C140.89 639.785 142.669 639.464 144.694 639.464C147.379 639.464 149.512 640.007 151.093 641.093C152.674 642.18 153.571 643.694 153.785 645.637H150.525C150.179 644.583 149.52 643.768 148.548 643.192C147.576 642.616 146.292 642.328 144.694 642.328C142.619 642.328 140.972 642.805 139.754 643.76C138.535 644.699 137.925 646.048 137.925 647.81C137.925 649.571 138.535 650.93 139.754 651.884C140.972 652.839 142.619 653.317 144.694 653.317C146.275 653.317 147.552 653.028 148.523 652.452C149.495 651.876 150.162 651.061 150.525 650.008H153.785Z" fill="white"/>
<path d="M159.709 647.168C160.022 646.164 160.565 645.258 161.339 644.452C162.113 643.629 163.142 643.217 164.427 643.217V646.131C163.142 646.131 162.121 646.444 161.364 647.069C160.606 647.695 160.054 648.361 159.709 649.069V655.761H156.497V643.489H159.709V647.168Z" fill="white"/>
<path d="M180.621 651.687C180.407 653.004 179.699 654.066 178.497 654.872C177.311 655.662 175.713 656.058 173.704 656.058C172.123 656.058 170.731 655.802 169.529 655.292C168.327 654.782 167.388 654.049 166.713 653.094C166.054 652.14 165.725 650.995 165.725 649.662C165.725 648.329 166.046 647.176 166.688 646.205C167.347 645.234 168.269 644.493 169.455 643.982C170.641 643.472 172.024 643.217 173.605 643.217C176.043 643.217 177.854 643.793 179.04 644.946C180.243 646.081 180.786 647.81 180.671 650.131H168.961C169.093 651.185 169.562 652.033 170.369 652.675C171.193 653.3 172.28 653.613 173.63 653.613C174.635 653.613 175.483 653.44 176.175 653.094C176.866 652.732 177.311 652.263 177.509 651.687H180.621ZM173.457 645.637C172.321 645.637 171.366 645.892 170.591 646.402C169.834 646.896 169.348 647.547 169.134 648.353H177.484C177.402 647.514 177.006 646.855 176.298 646.378C175.59 645.884 174.643 645.637 173.457 645.637Z" fill="white"/>
<path d="M198.006 638.55V655.761H195.017C194.869 654.576 194.795 653.522 194.795 652.6V651.835C194.416 653.07 193.741 654.082 192.769 654.872C191.814 655.646 190.57 656.033 189.039 656.033C187.804 656.033 186.684 655.769 185.679 655.243C184.691 654.699 183.909 653.942 183.332 652.971C182.756 652 182.468 650.888 182.468 649.637C182.468 648.37 182.748 647.25 183.307 646.279C183.867 645.308 184.642 644.559 185.63 644.032C186.634 643.489 187.771 643.217 189.039 643.217C190.62 643.217 191.88 643.563 192.819 644.254C193.774 644.946 194.433 645.909 194.795 647.143V638.55H198.006ZM190.076 653.563C191.526 653.563 192.67 653.21 193.51 652.502C194.367 651.777 194.795 650.823 194.795 649.637C194.795 648.386 194.375 647.415 193.535 646.723C192.695 646.032 191.542 645.686 190.076 645.686C188.726 645.686 187.664 646.048 186.89 646.773C186.132 647.481 185.753 648.436 185.753 649.637C185.753 650.823 186.148 651.777 186.939 652.502C187.73 653.21 188.775 653.563 190.076 653.563Z" fill="white"/>
<path d="M205.149 640.921H201.418V638.105H205.149V640.921ZM204.902 643.489V655.761H201.69V643.489H204.902Z" fill="white"/>
<path d="M216.7 645.933H213.538V655.761H210.326V645.933H207.164V643.489H210.326V640.13H213.538V643.489H216.7V645.933Z" fill="white"/>
<path d="M226.152 641.143C225.361 641.126 224.777 641.266 224.398 641.563C224.036 641.859 223.855 642.41 223.855 643.217V643.711H227.758V646.155H223.855V655.761H220.643V646.155H217.851V643.711H220.643V642.822C220.643 641.357 221.038 640.278 221.829 639.587C222.619 638.896 223.797 638.55 225.361 638.55H227.931V641.143H226.152Z" fill="white"/>
<path d="M243.651 643.489L235.153 660.7H231.817L234.51 655.638L228.631 643.489H232.04L236.116 652.477L240.217 643.489H243.651Z" fill="white"/>
<path d="M104.151 649.738C104.175 648.956 104.811 648.319 105.593 648.294C106.457 648.266 107.163 648.971 107.135 649.835C107.111 650.617 106.473 651.253 105.692 651.278C104.829 651.305 104.124 650.601 104.151 649.738H104.151Z" fill="url(#paint0_linear_321_959)"/>
<path d="M99.8527 645.445H119.82L119.184 650.936L118.564 656.285C118.522 656.649 118.213 656.924 117.846 656.924H99.3348C98.9023 656.924 98.5662 656.547 98.6163 656.117L99.0571 652.307H105.644C106.34 652.307 106.97 652.025 107.426 651.569C107.883 651.113 108.165 650.483 108.165 649.786C108.165 648.394 107.036 647.266 105.644 647.266H99.6415L99.8521 645.445H99.8527Z" fill="url(#paint1_linear_321_959)"/>
<path d="M120.117 642.88L119.994 643.94H100.027L100.169 642.714C100.212 642.349 100.521 642.074 100.888 642.074H119.399C119.831 642.074 120.167 642.451 120.117 642.88H120.117Z" fill="url(#paint2_linear_321_959)"/>
<path d="M118.387 661.903L113.493 666.797C113.363 666.927 113.187 667 113.004 667H105.5C100.106 667 95.2811 664.559 92.0713 660.722C89.5295 657.683 88 653.77 88 649.5C88 645.23 89.5295 641.317 92.0713 638.278C95.2811 634.441 100.106 632 105.5 632H120.136C120.752 632 121.061 632.746 120.625 633.182L117.263 636.544L115.731 638.076C115.601 638.206 115.425 638.279 115.242 638.279H105.612C99.3989 638.279 94.2818 643.281 94.2782 649.494C94.2765 652.291 95.2987 654.85 96.9901 656.816C99.0476 659.208 102.097 660.722 105.499 660.722H117.896C118.513 660.722 118.822 661.468 118.386 661.904L118.387 661.903Z" fill="url(#paint3_linear_321_959)"/>
<defs>
<linearGradient id="paint0_linear_321_959" x1="104.999" y1="648.383" x2="106.339" y2="651.07" gradientUnits="userSpaceOnUse">
<stop stop-color="#FF7A00"/>
<stop offset="1" stop-color="#FFC58F"/>
</linearGradient>
<linearGradient id="paint1_linear_321_959" x1="104.637" y1="645.793" x2="107.882" y2="657.815" gradientUnits="userSpaceOnUse">
<stop stop-color="#FF7A00"/>
<stop offset="1" stop-color="#FFC58F"/>
</linearGradient>
<linearGradient id="paint2_linear_321_959" x1="105.737" y1="642.131" x2="105.834" y2="644.223" gradientUnits="userSpaceOnUse">
<stop stop-color="#FF7A00"/>
<stop offset="1" stop-color="#FFC58F"/>
</linearGradient>
<linearGradient id="paint3_linear_321_959" x1="97.3279" y1="633.059" x2="113.63" y2="663.721" gradientUnits="userSpaceOnUse">
<stop stop-color="#FF7A00"/>
<stop offset="1" stop-color="#FFC58F"/>
</linearGradient>
<clipPath id="clip0_321_959">
<rect width="164" height="36" fill="white" transform="translate(84 23)"/>
</clipPath>
</defs>
</svg>
