<svg width="1065" height="507" viewBox="0 0 1065 507" fill="none" xmlns="http://www.w3.org/2000/svg">
<circle cx="159" cy="312" r="12" fill="#7000FF"/>
<rect x="2" y="315" width="314" height="120" rx="21" fill="#001757" stroke="#7000FF" stroke-width="4"/>
<rect x="30" y="415" width="258" height="44" rx="12" fill="#7000FF"/>
<path d="M43.566 442V429.22H48.192C49.656 429.22 50.748 429.598 51.468 430.354C52.2 431.098 52.566 432.1 52.566 433.36C52.566 434.704 52.152 435.724 51.324 436.42C50.496 437.104 49.368 437.446 47.94 437.446H45.744V442H43.566ZM45.744 435.484H47.724C48.588 435.484 49.236 435.292 49.668 434.908C50.1 434.512 50.316 433.984 50.316 433.324C50.316 432.64 50.106 432.112 49.686 431.74C49.266 431.356 48.666 431.164 47.886 431.164H45.744V435.484ZM59.4043 433.09H59.6563V435.34C59.3443 435.316 59.1403 435.304 59.0443 435.304C58.3003 435.304 57.7123 435.544 57.2803 436.024C56.8603 436.492 56.6503 437.098 56.6503 437.842V442H54.6343V433.216H56.6503V434.548H56.6683C57.3763 433.576 58.2883 433.09 59.4043 433.09ZM65.1715 442.144C63.8035 442.144 62.6935 441.718 61.8415 440.866C60.9895 440.014 60.5635 438.934 60.5635 437.626C60.5635 436.318 60.9895 435.238 61.8415 434.386C62.6935 433.522 63.8035 433.09 65.1715 433.09C66.5275 433.09 67.6315 433.51 68.4835 434.35C69.3475 435.19 69.7795 436.282 69.7795 437.626C69.7795 438.958 69.3475 440.044 68.4835 440.884C67.6315 441.724 66.5275 442.144 65.1715 442.144ZM65.1715 440.308C65.8915 440.308 66.4975 440.056 66.9895 439.552C67.4815 439.048 67.7275 438.406 67.7275 437.626C67.7275 436.822 67.4815 436.168 66.9895 435.664C66.5095 435.16 65.9035 434.908 65.1715 434.908C64.4155 434.908 63.7975 435.166 63.3175 435.682C62.8495 436.198 62.6155 436.846 62.6155 437.626C62.6155 438.382 62.8555 439.018 63.3355 439.534C63.8155 440.05 64.4275 440.308 65.1715 440.308ZM73.9665 431.524C73.7025 431.788 73.3845 431.92 73.0125 431.92C72.6405 431.92 72.3225 431.788 72.0585 431.524C71.7945 431.26 71.6625 430.942 71.6625 430.57C71.6625 430.21 71.7945 429.898 72.0585 429.634C72.3225 429.37 72.6405 429.238 73.0125 429.238C73.3845 429.238 73.7025 429.37 73.9665 429.634C74.2425 429.898 74.3805 430.21 74.3805 430.57C74.3805 430.942 74.2425 431.26 73.9665 431.524ZM72.0045 442V433.216H74.0205V442H72.0045ZM84.8108 437.5C84.8108 437.716 84.7928 437.986 84.7568 438.31H78.3488C78.4808 438.934 78.7688 439.426 79.2128 439.786C79.6568 440.134 80.2028 440.308 80.8508 440.308C81.7628 440.308 82.4948 439.966 83.0468 439.282L84.4508 440.488C83.5988 441.592 82.3628 442.144 80.7428 442.144C79.4468 442.144 78.3728 441.73 77.5208 440.902C76.6808 440.062 76.2608 438.964 76.2608 437.608C76.2608 436.276 76.6628 435.19 77.4668 434.35C78.2828 433.51 79.3088 433.09 80.5448 433.09C81.8288 433.09 82.8608 433.504 83.6408 434.332C84.4208 435.148 84.8108 436.204 84.8108 437.5ZM82.0388 435.394C81.6788 435.07 81.2168 434.908 80.6528 434.908C80.0888 434.908 79.6028 435.064 79.1948 435.376C78.7988 435.688 78.5288 436.126 78.3848 436.69H82.7768C82.6448 436.138 82.3988 435.706 82.0388 435.394ZM90.8502 442.144C89.5422 442.144 88.4682 441.724 87.6282 440.884C86.7882 440.044 86.3682 438.958 86.3682 437.626C86.3682 436.282 86.7942 435.19 87.6462 434.35C88.4982 433.51 89.5902 433.09 90.9222 433.09C91.6302 433.09 92.3142 433.234 92.9742 433.522C93.6342 433.798 94.1802 434.2 94.6122 434.728L93.2442 435.916C92.6682 435.244 91.9302 434.908 91.0302 434.908C90.2502 434.908 89.6202 435.16 89.1402 435.664C88.6602 436.156 88.4202 436.804 88.4202 437.608C88.4202 438.412 88.6602 439.066 89.1402 439.57C89.6202 440.062 90.2502 440.308 91.0302 440.308C91.9422 440.308 92.6862 439.996 93.2622 439.372L94.6482 440.596C94.2522 441.052 93.7182 441.424 93.0462 441.712C92.3862 442 91.6542 442.144 90.8502 442.144ZM99.0803 442.144C98.3123 442.144 97.7123 441.898 97.2803 441.406C96.8483 440.914 96.6323 440.188 96.6323 439.228V434.926H95.5523V433.216H96.6323V430.3L98.6483 430.084V433.216H101.222V434.926H98.6483V439.03C98.6483 439.474 98.7143 439.792 98.8463 439.984C98.9783 440.164 99.1943 440.254 99.4943 440.254C99.8903 440.254 100.322 440.128 100.79 439.876L101.312 441.622C100.676 441.97 99.9323 442.144 99.0803 442.144ZM110.651 437.5C110.651 437.716 110.633 437.986 110.597 438.31H104.189C104.321 438.934 104.609 439.426 105.053 439.786C105.497 440.134 106.043 440.308 106.691 440.308C107.603 440.308 108.335 439.966 108.887 439.282L110.291 440.488C109.439 441.592 108.203 442.144 106.583 442.144C105.287 442.144 104.213 441.73 103.361 440.902C102.521 440.062 102.101 438.964 102.101 437.608C102.101 436.276 102.503 435.19 103.307 434.35C104.123 433.51 105.149 433.09 106.385 433.09C107.669 433.09 108.701 433.504 109.481 434.332C110.261 435.148 110.651 436.204 110.651 437.5ZM107.879 435.394C107.519 435.07 107.057 434.908 106.493 434.908C105.929 434.908 105.443 435.064 105.035 435.376C104.639 435.688 104.369 436.126 104.225 436.69H108.617C108.485 436.138 108.239 435.706 107.879 435.394ZM119.174 433.216H121.19V442H119.264V440.83H119.228C118.58 441.706 117.65 442.144 116.438 442.144C115.202 442.144 114.182 441.73 113.378 440.902C112.586 440.074 112.19 438.988 112.19 437.644C112.19 436.324 112.592 435.238 113.396 434.386C114.2 433.522 115.208 433.09 116.42 433.09C117.572 433.09 118.478 433.486 119.138 434.278H119.174V433.216ZM116.762 440.308C117.458 440.308 118.046 440.062 118.526 439.57C119.018 439.078 119.264 438.442 119.264 437.662C119.264 436.882 119.024 436.228 118.544 435.7C118.076 435.172 117.482 434.908 116.762 434.908C116.042 434.908 115.442 435.16 114.962 435.664C114.482 436.168 114.242 436.834 114.242 437.662C114.242 438.442 114.476 439.078 114.944 439.57C115.412 440.062 116.018 440.308 116.762 440.308ZM130.43 434.602L125.84 440.272V440.29H130.358V442H123.14V440.578L127.658 434.98V434.926H123.446V433.216H130.43V434.602ZM136.4 432.082C135.644 432.082 135.002 431.854 134.474 431.398C133.946 430.93 133.652 430.282 133.592 429.454H135.176C135.2 429.814 135.32 430.108 135.536 430.336C135.752 430.564 136.04 430.678 136.4 430.678C136.748 430.678 137.036 430.57 137.264 430.354C137.492 430.126 137.612 429.826 137.624 429.454H139.208C139.148 430.234 138.86 430.87 138.344 431.362C137.84 431.842 137.192 432.082 136.4 432.082ZM138.668 433.216H140.684V442H138.758V440.83H138.722C138.074 441.706 137.144 442.144 135.932 442.144C134.696 442.144 133.676 441.73 132.872 440.902C132.08 440.074 131.684 438.988 131.684 437.644C131.684 436.324 132.086 435.238 132.89 434.386C133.694 433.522 134.702 433.09 135.914 433.09C137.066 433.09 137.972 433.486 138.632 434.278H138.668V433.216ZM136.256 440.308C136.952 440.308 137.54 440.062 138.02 439.57C138.512 439.078 138.758 438.442 138.758 437.662C138.758 436.882 138.518 436.228 138.038 435.7C137.57 435.172 136.976 434.908 136.256 434.908C135.536 434.908 134.936 435.16 134.456 435.664C133.976 436.168 133.736 436.834 133.736 437.662C133.736 438.442 133.97 439.078 134.438 439.57C134.906 440.062 135.512 440.308 136.256 440.308ZM153.822 433.216H155.982L152.508 442H150.582L147.09 433.216H149.232L151.536 439.48H151.554L153.822 433.216ZM159.748 431.524C159.484 431.788 159.166 431.92 158.794 431.92C158.422 431.92 158.104 431.788 157.84 431.524C157.576 431.26 157.444 430.942 157.444 430.57C157.444 430.21 157.576 429.898 157.84 429.634C158.104 429.37 158.422 429.238 158.794 429.238C159.166 429.238 159.484 429.37 159.748 429.634C160.024 429.898 160.162 430.21 160.162 430.57C160.162 430.942 160.024 431.26 159.748 431.524ZM157.786 442V433.216H159.802V442H157.786ZM164.652 431.524C164.388 431.788 164.07 431.92 163.698 431.92C163.326 431.92 163.008 431.788 162.744 431.524C162.48 431.26 162.348 430.942 162.348 430.57C162.348 430.21 162.48 429.898 162.744 429.634C163.008 429.37 163.326 429.238 163.698 429.238C164.07 429.238 164.388 429.37 164.652 429.634C164.928 429.898 165.066 430.21 165.066 430.57C165.066 430.942 164.928 431.26 164.652 431.524ZM162.69 442V433.216H164.706V442H162.69ZM170.008 442.144C169.24 442.144 168.64 441.898 168.208 441.406C167.776 440.914 167.56 440.188 167.56 439.228V434.926H166.48V433.216H167.56V430.3L169.576 430.084V433.216H172.15V434.926H169.576V439.03C169.576 439.474 169.642 439.792 169.774 439.984C169.906 440.164 170.122 440.254 170.422 440.254C170.818 440.254 171.25 440.128 171.718 439.876L172.24 441.622C171.604 441.97 170.86 442.144 170.008 442.144ZM177.636 442.144C176.268 442.144 175.158 441.718 174.306 440.866C173.454 440.014 173.028 438.934 173.028 437.626C173.028 436.318 173.454 435.238 174.306 434.386C175.158 433.522 176.268 433.09 177.636 433.09C178.992 433.09 180.096 433.51 180.948 434.35C181.812 435.19 182.244 436.282 182.244 437.626C182.244 438.958 181.812 440.044 180.948 440.884C180.096 441.724 178.992 442.144 177.636 442.144ZM177.636 440.308C178.356 440.308 178.962 440.056 179.454 439.552C179.946 439.048 180.192 438.406 180.192 437.626C180.192 436.822 179.946 436.168 179.454 435.664C178.974 435.16 178.368 434.908 177.636 434.908C176.88 434.908 176.262 435.166 175.782 435.682C175.314 436.198 175.08 436.846 175.08 437.626C175.08 438.382 175.32 439.018 175.8 439.534C176.28 440.05 176.892 440.308 177.636 440.308ZM189.113 433.09H189.365V435.34C189.053 435.316 188.849 435.304 188.753 435.304C188.009 435.304 187.421 435.544 186.989 436.024C186.569 436.492 186.359 437.098 186.359 437.842V442H184.343V433.216H186.359V434.548H186.377C187.085 433.576 187.997 433.09 189.113 433.09ZM196.873 433.216H198.889V442H196.873V440.848C196.153 441.712 195.247 442.144 194.155 442.144C191.959 442.144 190.861 440.95 190.861 438.562V433.216H192.877V438.022C192.877 438.874 193.009 439.468 193.273 439.804C193.549 440.14 193.999 440.308 194.623 440.308C195.247 440.308 195.775 440.056 196.207 439.552C196.651 439.036 196.873 438.328 196.873 437.428V433.216ZM201.573 442V428.752H203.589V442H201.573ZM217.612 433.216H219.628V442H217.702V440.83H217.666C217.018 441.706 216.088 442.144 214.876 442.144C213.64 442.144 212.62 441.73 211.816 440.902C211.024 440.074 210.628 438.988 210.628 437.644C210.628 436.324 211.03 435.238 211.834 434.386C212.638 433.522 213.646 433.09 214.858 433.09C216.01 433.09 216.916 433.486 217.576 434.278H217.612V433.216ZM215.2 440.308C215.896 440.308 216.484 440.062 216.964 439.57C217.456 439.078 217.702 438.442 217.702 437.662C217.702 436.882 217.462 436.228 216.982 435.7C216.514 435.172 215.92 434.908 215.2 434.908C214.48 434.908 213.88 435.16 213.4 435.664C212.92 436.168 212.68 436.834 212.68 437.662C212.68 438.442 212.914 439.078 213.382 439.57C213.85 440.062 214.456 440.308 215.2 440.308ZM222.46 442V434.926H221.488V433.216H222.46V431.614C222.46 430.63 222.688 429.886 223.144 429.382C223.6 428.866 224.26 428.608 225.124 428.608C225.964 428.608 226.696 428.812 227.32 429.22L226.87 430.912C226.234 430.612 225.748 430.462 225.412 430.462C224.788 430.462 224.476 430.918 224.476 431.83V433.216H226.636V434.926H224.476V442H222.46ZM234.592 433.216H236.608V442H234.682V440.83H234.646C233.998 441.706 233.068 442.144 231.856 442.144C230.62 442.144 229.6 441.73 228.796 440.902C228.004 440.074 227.608 438.988 227.608 437.644C227.608 436.324 228.01 435.238 228.814 434.386C229.618 433.522 230.626 433.09 231.838 433.09C232.99 433.09 233.896 433.486 234.556 434.278H234.592V433.216ZM232.18 440.308C232.876 440.308 233.464 440.062 233.944 439.57C234.436 439.078 234.682 438.442 234.682 437.662C234.682 436.882 234.442 436.228 233.962 435.7C233.494 435.172 232.9 434.908 232.18 434.908C231.46 434.908 230.86 435.16 230.38 435.664C229.9 436.168 229.66 436.834 229.66 437.662C229.66 438.442 229.894 439.078 230.362 439.57C230.83 440.062 231.436 440.308 232.18 440.308ZM243.112 442.144C241.804 442.144 240.73 441.724 239.89 440.884C239.05 440.044 238.63 438.958 238.63 437.626C238.63 436.282 239.056 435.19 239.908 434.35C240.76 433.51 241.852 433.09 243.184 433.09C243.892 433.09 244.576 433.234 245.236 433.522C245.896 433.798 246.442 434.2 246.874 434.728L245.506 435.916C244.93 435.244 244.192 434.908 243.292 434.908C242.512 434.908 241.882 435.16 241.402 435.664C240.922 436.156 240.682 436.804 240.682 437.608C240.682 438.412 240.922 439.066 241.402 439.57C241.882 440.062 242.512 440.308 243.292 440.308C244.204 440.308 244.948 439.996 245.524 439.372L246.91 440.596C246.514 441.052 245.98 441.424 245.308 441.712C244.648 442 243.916 442.144 243.112 442.144ZM256.76 437.5C256.76 437.716 256.742 437.986 256.706 438.31H250.298C250.43 438.934 250.718 439.426 251.162 439.786C251.606 440.134 252.152 440.308 252.8 440.308C253.712 440.308 254.444 439.966 254.996 439.282L256.4 440.488C255.548 441.592 254.312 442.144 252.692 442.144C251.396 442.144 250.322 441.73 249.47 440.902C248.63 440.062 248.21 438.964 248.21 437.608C248.21 436.276 248.612 435.19 249.416 434.35C250.232 433.51 251.258 433.09 252.494 433.09C253.778 433.09 254.81 433.504 255.59 434.332C256.37 435.148 256.76 436.204 256.76 437.5ZM253.988 435.394C253.628 435.07 253.166 434.908 252.602 434.908C252.038 434.908 251.552 435.064 251.144 435.376C250.748 435.688 250.478 436.126 250.334 436.69H254.726C254.594 436.138 254.348 435.706 253.988 435.394ZM263.609 433.09H263.861V435.34C263.549 435.316 263.345 435.304 263.249 435.304C262.505 435.304 261.917 435.544 261.485 436.024C261.065 436.492 260.855 437.098 260.855 437.842V442H258.839V433.216H260.855V434.548H260.873C261.581 433.576 262.493 433.09 263.609 433.09ZM267.625 431.524C267.361 431.788 267.043 431.92 266.671 431.92C266.299 431.92 265.981 431.788 265.717 431.524C265.453 431.26 265.321 430.942 265.321 430.57C265.321 430.21 265.453 429.898 265.717 429.634C265.981 429.37 266.299 429.238 266.671 429.238C267.043 429.238 267.361 429.37 267.625 429.634C267.901 429.898 268.039 430.21 268.039 430.57C268.039 430.942 267.901 431.26 267.625 431.524ZM265.663 442V433.216H267.679V442H265.663ZM272.529 431.524C272.265 431.788 271.947 431.92 271.575 431.92C271.203 431.92 270.885 431.788 270.621 431.524C270.357 431.26 270.225 430.942 270.225 430.57C270.225 430.21 270.357 429.898 270.621 429.634C270.885 429.37 271.203 429.238 271.575 429.238C271.947 429.238 272.265 429.37 272.529 429.634C272.805 429.898 272.943 430.21 272.943 430.57C272.943 430.942 272.805 431.26 272.529 431.524ZM270.567 442V433.216H272.583V442H270.567Z" fill="white"/>
<path d="M111.258 371.617C111.258 370.015 111.519 368.592 112.041 367.35C112.572 366.099 113.292 365.046 114.201 364.191C115.11 363.336 116.177 362.684 117.401 362.234C118.634 361.775 119.957 361.545 121.37 361.545C122.126 361.545 122.81 361.595 123.422 361.694C124.034 361.784 124.574 361.901 125.042 362.045C125.51 362.189 125.91 362.346 126.243 362.517C126.577 362.679 126.842 362.828 127.04 362.963C127.463 363.278 127.765 363.606 127.945 363.948C128.134 364.281 128.228 364.632 128.228 365.001C128.228 365.352 128.161 365.685 128.026 366C127.891 366.315 127.724 366.599 127.526 366.851C127.337 367.094 127.144 367.305 126.946 367.485C126.757 367.656 126.595 367.778 126.459 367.85C126.279 367.67 126.045 367.454 125.757 367.202C125.469 366.95 125.123 366.725 124.718 366.527C124.313 366.32 123.849 366.144 123.327 366C122.805 365.856 122.22 365.784 121.572 365.784C120.762 365.784 120.024 365.919 119.358 366.189C118.692 366.45 118.116 366.837 117.63 367.35C117.144 367.854 116.766 368.466 116.496 369.187C116.226 369.898 116.091 370.708 116.091 371.617C116.091 372.535 116.24 373.345 116.537 374.047C116.834 374.749 117.239 375.334 117.752 375.802C118.274 376.27 118.886 376.625 119.588 376.868C120.299 377.102 121.068 377.219 121.896 377.219C122.931 377.219 123.822 377.093 124.569 376.841C125.316 376.58 125.883 376.31 126.27 376.031L128.35 379.609H128.404C128.197 379.753 127.904 379.933 127.526 380.149C127.148 380.356 126.671 380.563 126.095 380.77C125.528 380.968 124.857 381.139 124.083 381.283C123.309 381.436 122.436 381.513 121.464 381.513C120.078 381.513 118.769 381.306 117.536 380.892C116.303 380.478 115.218 379.856 114.282 379.028C113.355 378.191 112.617 377.156 112.068 375.923C111.528 374.69 111.258 373.255 111.258 371.617Z" fill="white"/>
<path d="M128.691 373.966C128.691 372.895 128.893 371.909 129.298 371.009C129.703 370.1 130.257 369.317 130.959 368.66C131.67 367.994 132.494 367.472 133.43 367.094C134.375 366.716 135.392 366.527 136.481 366.527C137.552 366.527 138.56 366.716 139.505 367.094C140.459 367.472 141.291 367.994 142.002 368.66C142.714 369.317 143.272 370.1 143.677 371.009C144.082 371.909 144.284 372.895 144.284 373.966C144.284 375.037 144.082 376.022 143.677 376.922C143.272 377.822 142.714 378.605 142.002 379.271C141.291 379.937 140.459 380.46 139.505 380.838C138.56 381.216 137.552 381.405 136.481 381.405C135.392 381.405 134.375 381.216 133.43 380.838C132.494 380.46 131.67 379.937 130.959 379.271C130.257 378.605 129.703 377.822 129.298 376.922C128.893 376.022 128.691 375.037 128.691 373.966ZM133.254 373.966C133.254 374.461 133.331 374.92 133.484 375.343C133.637 375.766 133.862 376.13 134.159 376.436C134.456 376.742 134.798 376.985 135.185 377.165C135.572 377.336 136.004 377.422 136.481 377.422C136.94 377.422 137.367 377.336 137.763 377.165C138.159 376.985 138.506 376.742 138.803 376.436C139.1 376.13 139.325 375.766 139.478 375.343C139.64 374.92 139.721 374.461 139.721 373.966C139.721 373.471 139.64 373.012 139.478 372.589C139.325 372.157 139.1 371.792 138.803 371.495C138.506 371.189 138.159 370.951 137.763 370.78C137.367 370.6 136.94 370.51 136.481 370.51C136.004 370.51 135.572 370.6 135.185 370.78C134.798 370.951 134.456 371.189 134.159 371.495C133.862 371.792 133.637 372.152 133.484 372.575C133.331 372.998 133.254 373.462 133.254 373.966Z" fill="white"/>
<path d="M145.935 381.013V372.467C145.935 371.513 146.119 370.663 146.488 369.916C146.857 369.169 147.361 368.547 148.001 368.052C148.649 367.548 149.396 367.17 150.242 366.918C151.097 366.657 152.01 366.527 152.982 366.527C153.936 366.527 154.841 366.657 155.696 366.918C156.56 367.17 157.307 367.548 157.937 368.052C158.576 368.547 159.08 369.169 159.449 369.916C159.818 370.663 160.003 371.513 160.003 372.467V381.013H155.561V373.493C155.561 372.512 155.336 371.788 154.886 371.32C154.445 370.852 153.81 370.618 152.982 370.618C151.245 370.618 150.381 371.576 150.39 373.493V381.013H145.935Z" fill="white"/>
<path d="M161.788 379.582L163.368 376.706C163.512 376.814 163.755 376.949 164.097 377.111C164.439 377.264 164.844 377.408 165.312 377.543C165.789 377.678 166.325 377.8 166.919 377.908C167.522 378.007 168.152 378.056 168.809 378.056C169.565 378.056 170.136 377.989 170.523 377.854C170.91 377.71 171.104 377.462 171.104 377.111C171.104 376.742 170.942 376.49 170.618 376.355C170.303 376.22 169.803 376.103 169.119 376.004L167.675 375.842C166.955 375.752 166.262 375.622 165.596 375.451C164.939 375.271 164.354 375.01 163.841 374.668C163.337 374.326 162.936 373.889 162.639 373.358C162.351 372.818 162.207 372.143 162.207 371.333C162.207 370.649 162.328 370.019 162.571 369.443C162.823 368.858 163.215 368.349 163.746 367.917C164.286 367.485 164.97 367.148 165.798 366.905C166.626 366.653 167.612 366.527 168.755 366.527C169.916 366.527 170.915 366.603 171.752 366.756C172.598 366.9 173.322 367.125 173.925 367.431C174.276 367.611 174.556 367.836 174.763 368.106C174.979 368.376 175.087 368.705 175.087 369.092C175.087 369.389 175.028 369.655 174.911 369.889C174.794 370.114 174.655 370.312 174.493 370.483C174.339 370.645 174.191 370.775 174.047 370.874C173.912 370.964 173.826 371.018 173.79 371.036C173.736 370.982 173.583 370.883 173.331 370.739C173.088 370.586 172.755 370.442 172.332 370.307C171.918 370.163 171.419 370.037 170.834 369.929C170.258 369.812 169.601 369.754 168.863 369.754C168.035 369.754 167.459 369.853 167.135 370.051C166.82 370.24 166.662 370.492 166.662 370.807C166.662 371.122 166.806 371.347 167.094 371.482C167.391 371.608 167.837 371.716 168.431 371.806L170.942 372.17C171.572 372.26 172.175 372.395 172.751 372.575C173.336 372.746 173.853 372.998 174.303 373.331C174.754 373.664 175.109 374.087 175.37 374.6C175.64 375.113 175.775 375.739 175.775 376.477C175.775 378.025 175.186 379.235 174.006 380.109C172.827 380.973 171.198 381.405 169.119 381.405C168.03 381.405 167.067 381.328 166.23 381.175C165.393 381.031 164.669 380.865 164.057 380.676C163.454 380.478 162.963 380.275 162.585 380.068C162.207 379.852 161.941 379.69 161.788 379.582Z" fill="white"/>
<path d="M177.25 375.262V368.876C177.25 368.156 177.462 367.652 177.885 367.364C178.308 367.067 178.87 366.918 179.573 366.918C180.068 366.918 180.518 366.977 180.923 367.094C181.328 367.211 181.584 367.287 181.692 367.323V374.438C181.692 376.355 182.561 377.314 184.298 377.314C186.035 377.314 186.899 376.355 186.89 374.438V368.876C186.89 368.156 187.101 367.652 187.524 367.364C187.956 367.067 188.519 366.918 189.212 366.918C189.707 366.918 190.157 366.977 190.562 367.094C190.976 367.211 191.237 367.287 191.345 367.323V375.262C191.345 376.297 191.165 377.197 190.805 377.962C190.445 378.727 189.95 379.361 189.32 379.865C188.699 380.37 187.952 380.752 187.079 381.013C186.215 381.274 185.288 381.405 184.298 381.405C183.299 381.405 182.367 381.274 181.503 381.013C180.639 380.752 179.892 380.37 179.262 379.865C178.641 379.361 178.15 378.727 177.79 377.962C177.43 377.197 177.25 376.297 177.25 375.262Z" fill="white"/>
<path d="M194.116 381.013V362.598C194.116 361.878 194.328 361.374 194.751 361.086C195.174 360.789 195.737 360.641 196.439 360.641C196.934 360.641 197.384 360.699 197.789 360.816C198.194 360.933 198.455 361.01 198.572 361.046V381.013H194.116Z" fill="white"/>
<path d="M201.343 376.369V364.731C201.343 364.011 201.555 363.503 201.978 363.206C202.401 362.909 202.963 362.76 203.665 362.76C204.16 362.76 204.61 362.823 205.015 362.949C205.42 363.066 205.677 363.143 205.785 363.179V366.918H208.971C209.799 366.918 210.388 367.085 210.739 367.418C211.09 367.742 211.266 368.237 211.266 368.903C211.266 369.38 211.189 369.826 211.036 370.24C210.892 370.654 210.784 370.928 210.712 371.063H205.785V375.397C205.785 375.82 205.848 376.157 205.974 376.409C206.109 376.661 206.271 376.859 206.46 377.003C206.658 377.147 206.878 377.246 207.121 377.3C207.373 377.345 207.63 377.368 207.891 377.368C208.404 377.368 208.872 377.291 209.295 377.138C209.727 376.976 210.033 376.841 210.213 376.733L211.955 379.771C211.793 379.915 211.554 380.082 211.239 380.271C210.924 380.451 210.546 380.626 210.105 380.797C209.664 380.959 209.164 381.099 208.606 381.216C208.057 381.342 207.477 381.405 206.865 381.405C205.128 381.405 203.773 380.95 202.801 380.041C201.829 379.123 201.343 377.899 201.343 376.369Z" fill="white"/>
<path d="M213.092 363.125C213.092 362.423 213.326 361.833 213.794 361.356C214.271 360.879 214.861 360.641 215.563 360.641C216.265 360.641 216.855 360.879 217.332 361.356C217.809 361.833 218.047 362.423 218.047 363.125C218.047 363.827 217.809 364.412 217.332 364.88C216.855 365.348 216.265 365.582 215.563 365.582C214.861 365.582 214.271 365.348 213.794 364.88C213.326 364.412 213.092 363.827 213.092 363.125ZM213.349 381.013V368.876C213.349 368.156 213.56 367.652 213.983 367.364C214.406 367.067 214.969 366.918 215.671 366.918C216.166 366.918 216.616 366.977 217.021 367.094C217.426 367.211 217.687 367.287 217.804 367.323V381.013H213.349Z" fill="white"/>
<path d="M220.71 381.013V366.473C220.71 365.456 220.85 364.578 221.129 363.84C221.417 363.102 221.818 362.499 222.331 362.031C222.853 361.563 223.478 361.217 224.207 360.992C224.936 360.758 225.742 360.641 226.624 360.641C227.398 360.641 228.073 360.699 228.649 360.816C229.234 360.933 229.738 361.122 230.161 361.383C230.386 361.509 230.597 361.698 230.795 361.95C231.002 362.202 231.106 362.531 231.106 362.936C231.106 363.359 230.98 363.75 230.728 364.11C230.485 364.47 230.215 364.722 229.918 364.866C229.693 364.659 229.346 364.479 228.878 364.326C228.41 364.173 227.929 364.097 227.434 364.097C226.732 364.097 226.178 364.281 225.773 364.65C225.368 365.019 225.166 365.568 225.166 366.297V366.918H228.23C229.058 366.918 229.648 367.085 229.999 367.418C230.35 367.742 230.525 368.237 230.525 368.903C230.525 369.38 230.449 369.826 230.296 370.24C230.152 370.654 230.044 370.928 229.972 371.063H225.166V381.013H220.71Z" fill="white"/>
<path d="M231.906 375.37V368.876C231.906 368.156 232.118 367.652 232.541 367.364C232.964 367.067 233.526 366.918 234.228 366.918C234.723 366.918 235.173 366.977 235.578 367.094C235.983 367.211 236.24 367.287 236.348 367.323V374.465C236.348 375.347 236.555 375.982 236.969 376.369C237.392 376.756 238.045 376.949 238.927 376.949C239.755 376.949 240.398 376.711 240.857 376.234C241.316 375.748 241.546 375.01 241.546 374.02V368.876C241.546 368.156 241.757 367.652 242.18 367.364C242.612 367.067 243.175 366.918 243.868 366.918C244.363 366.918 244.813 366.977 245.218 367.094C245.632 367.211 245.893 367.287 246.001 367.323V379.055C246.001 380.46 245.816 381.652 245.447 382.633C245.078 383.614 244.552 384.415 243.868 385.036C243.193 385.657 242.383 386.107 241.438 386.386C240.502 386.674 239.453 386.818 238.292 386.818C237.482 386.818 236.735 386.773 236.051 386.683C235.367 386.593 234.764 386.485 234.242 386.359C233.729 386.242 233.315 386.125 233 386.008C232.694 385.9 232.514 385.828 232.46 385.792L233.526 382.539C233.598 382.575 233.76 382.633 234.012 382.714C234.264 382.795 234.575 382.876 234.944 382.957C235.313 383.047 235.731 383.124 236.199 383.187C236.667 383.25 237.154 383.281 237.658 383.281C239.08 383.281 240.101 382.975 240.722 382.363C241.352 381.76 241.667 380.757 241.667 379.352C241.316 379.775 240.781 380.113 240.061 380.365C239.341 380.617 238.621 380.743 237.901 380.743C237.054 380.743 236.267 380.635 235.538 380.419C234.809 380.203 234.17 379.874 233.621 379.433C233.081 378.992 232.658 378.439 232.352 377.773C232.055 377.098 231.906 376.297 231.906 375.37Z" fill="white"/>
<path fill-rule="evenodd" clip-rule="evenodd" d="M90.6503 379.298L90.6678 379.316C91.6077 380.258 91.1316 381.865 89.831 382.146C87.989 382.543 86.0276 382.52 84.0829 381.997C77.5225 380.235 73.6616 373.508 75.448 366.954C77.2343 360.4 83.9237 356.6 90.4397 358.353C92.4311 358.888 94.1753 359.886 95.5875 361.198C96.557 362.1 96.1589 363.714 94.88 364.056L94.8561 364.062C94.2983 364.211 93.7034 364.063 93.2801 363.67C92.2592 362.723 90.9994 362.004 89.5613 361.617C84.8638 360.353 80.0319 363.112 78.7249 367.786C77.4037 372.511 80.1512 377.393 84.8774 378.71C86.305 379.108 87.7466 379.133 89.1002 378.845C89.6612 378.725 90.2451 378.893 90.6503 379.299V379.298Z" fill="#7000FF"/>
<path d="M99.0815 373.355C98.4857 375.569 97.3197 377.477 95.7837 378.964C95.1205 379.606 94.0645 379.595 93.4127 378.942C92.7478 378.276 92.7529 377.192 93.4292 376.538C94.5414 375.462 95.386 374.08 95.8173 372.477C96.2409 370.903 96.2125 369.314 95.8118 367.847C95.5652 366.944 96.1034 366.014 97.0077 365.772C97.9034 365.534 98.8276 366.059 99.0725 366.954C99.6276 368.981 99.6671 371.179 99.0815 373.355V373.355Z" fill="#BA63FF"/>
<path d="M80.8283 367.762C81.3522 366.258 82.2563 364.995 83.3957 364.043C83.8845 363.634 84.612 363.698 85.0282 364.18C85.4542 364.674 85.3993 365.424 84.8991 365.842C84.0749 366.531 83.421 367.445 83.042 368.533C82.6695 369.602 82.6098 370.704 82.8147 371.74C82.9401 372.375 82.5191 372.989 81.8839 373.11L81.8812 373.11C81.2466 373.231 80.6364 372.815 80.5118 372.181C80.2316 370.753 80.3151 369.234 80.8283 367.761V367.762Z" fill="#8717F8"/>
<path d="M93.0787 383.879H82.2304C81.333 383.879 80.6055 384.606 80.6055 385.504C80.6055 386.401 81.333 387.129 82.2304 387.129H93.0787C93.9761 387.129 94.7036 386.401 94.7036 385.504C94.7036 384.606 93.9761 383.879 93.0787 383.879Z" fill="#BA63FF"/>
<path d="M77.6986 357.734L74.5343 353.96C73.9577 353.272 72.9328 353.182 72.2451 353.759C71.5574 354.336 71.4674 355.36 72.044 356.048L75.2082 359.822C75.7849 360.51 76.8098 360.6 77.4975 360.023C78.1852 359.446 78.2752 358.421 77.6986 357.734Z" fill="#7000FF"/>
<path d="M99.6549 359.82L102.819 356.046C103.396 355.358 103.306 354.333 102.618 353.757C101.93 353.18 100.906 353.27 100.329 353.958L97.1646 357.731C96.588 358.419 96.678 359.444 97.3657 360.021C98.0534 360.597 99.0783 360.507 99.6549 359.82Z" fill="#7000FF"/>
<path d="M88.8848 354.55V349.625C88.8848 348.728 88.1572 348 87.2598 348C86.3623 348 85.6348 348.728 85.6348 349.625V354.55C85.6348 355.447 86.3623 356.175 87.2598 356.175C88.1572 356.175 88.8848 355.447 88.8848 354.55Z" fill="#7000FF"/>
<path d="M82.612 388.645H92.8122C92.9648 388.645 93.0886 388.768 93.0886 388.921C93.0886 390.235 92.0219 391.302 90.7081 391.302H84.7165C83.4025 391.302 82.3359 390.235 82.3359 388.921C82.3359 388.768 82.4598 388.645 82.6124 388.645H82.612Z" fill="#8717F8"/>
<path d="M157.5 308.998L533.501 148.498" stroke="#7000FF" stroke-width="4"/>
<path d="M904.999 308.502L530.153 148.504" stroke="#FF800A" stroke-width="4"/>
<line y1="-2" x2="238" y2="-2" transform="matrix(4.37114e-08 -1 -1 -4.37114e-08 530 394)" stroke="#0CFF00" stroke-width="4"/>
<circle cx="531.5" cy="143.5" r="27.5" fill="#0F52FF"/>
<rect x="331" y="2" width="402" height="120" rx="21" fill="#001757" stroke="#0F52FF" stroke-width="4"/>
<rect x="372" y="100" width="320" height="44" rx="12" fill="#0F52FF"/>
<g clip-path="url(#clip0_96_2781)">
<path d="M413.187 67.2919C411.604 65.7007 411.604 63.1234 413.187 61.5322L437.39 37.1934C438.973 35.6022 441.537 35.6022 443.119 37.1934C444.702 38.7846 444.702 41.3619 443.119 42.9531L418.916 67.2919C417.333 68.8831 414.77 68.8831 413.187 67.2919Z" fill="#01EA88"/>
<path d="M429.912 70.0659C428.329 68.4747 428.329 65.8974 429.912 64.3061L440.149 54.0137C441.732 52.4225 444.295 52.4225 445.878 54.0137C447.461 55.6049 447.461 58.1822 445.878 59.7734L435.641 70.0659C434.058 71.6571 431.494 71.6571 429.912 70.0659Z" fill="#FFCE00"/>
<path d="M432.603 86.8058C431.02 85.2146 431.02 82.6373 432.603 81.0461L456.806 56.7129C458.389 55.1217 460.953 55.1217 462.535 56.7129C464.118 58.3041 464.118 60.8815 462.535 62.4727L438.332 86.8058C436.749 88.397 434.186 88.397 432.603 86.8058Z" fill="#1C7CFF"/>
<path d="M483.367 73.4288V48.4457C483.367 47.3307 483.69 46.5464 484.342 46.0981C484.994 45.6499 485.847 45.4258 486.9 45.4258C487.686 45.4258 488.383 45.521 488.99 45.7115C489.598 45.902 489.988 46.0253 490.149 46.0813V73.4344H483.367V73.4288Z" fill="white"/>
<path d="M494.613 60.8187C494.613 59.4068 494.886 58.1462 495.427 57.0424C495.968 55.9386 496.714 55.0198 497.662 54.2858C498.609 53.5518 499.707 52.9915 500.95 52.6106C502.193 52.2296 503.536 52.0391 504.968 52.0391C506.4 52.0391 507.71 52.2296 508.969 52.6106C510.229 52.9915 511.327 53.5518 512.257 54.2858C513.188 55.0198 513.929 55.9386 514.47 57.0424C515.01 58.1462 515.283 59.4012 515.283 60.8187V73.4307H508.746V62.3259C508.746 60.886 508.423 59.8158 507.771 59.1211C507.119 58.4263 506.188 58.0789 504.968 58.0789C502.421 58.0789 501.15 59.4964 501.15 62.3259V73.4307H494.613V60.8187Z" fill="white"/>
<path d="M520.845 67.0603C521.062 67.2228 521.419 67.4189 521.92 67.6542C522.422 67.8839 523.018 68.1024 523.709 68.3097C524.4 68.517 525.186 68.6907 526.067 68.842C526.947 68.9933 527.872 69.0661 528.848 69.0661C529.957 69.0661 530.798 68.9653 531.367 68.7579C531.935 68.5562 532.219 68.1921 532.219 67.6766C532.219 67.1331 531.98 66.7577 531.506 66.556C531.032 66.3543 530.297 66.1806 529.294 66.0462L527.181 65.7996C526.128 65.6652 525.108 65.4691 524.139 65.2057C523.163 64.948 522.305 64.567 521.558 64.0628C520.811 63.5585 520.226 62.9142 519.792 62.1242C519.357 61.3342 519.14 60.3425 519.14 59.1435C519.14 58.135 519.323 57.2049 519.686 56.3477C520.054 55.4904 520.628 54.7396 521.413 54.1009C522.199 53.4622 523.202 52.9579 524.417 52.5881C525.638 52.2184 527.081 52.0391 528.764 52.0391C530.447 52.0391 531.935 52.1511 533.172 52.364C534.404 52.5825 535.468 52.9243 536.36 53.3837C536.873 53.6583 537.285 53.9889 537.597 54.3867C537.909 54.7845 538.065 55.2663 538.065 55.8378C538.065 56.2748 537.976 56.6614 537.803 57.0032C537.625 57.345 537.424 57.6363 537.196 57.8828C536.967 58.1294 536.75 58.3199 536.544 58.4543C536.343 58.5888 536.21 58.6728 536.159 58.7008C536.076 58.6168 535.853 58.4711 535.491 58.2526C535.123 58.0341 534.638 57.8268 534.031 57.6195C533.423 57.4178 532.693 57.2329 531.84 57.0704C530.988 56.9079 530.018 56.8239 528.937 56.8239C527.716 56.8239 526.869 56.964 526.401 57.2497C525.933 57.5355 525.693 57.9108 525.693 58.3703C525.693 58.8297 525.911 59.1603 526.345 59.3508C526.78 59.5413 527.427 59.7038 528.296 59.8438L531.991 60.3761C532.91 60.5106 533.796 60.7067 534.649 60.97C535.502 61.2333 536.26 61.6031 536.923 62.0906C537.586 62.5836 538.116 63.2055 538.506 63.9675C538.896 64.7295 539.096 65.654 539.096 66.7465C539.096 69.0325 538.233 70.8142 536.499 72.0916C534.766 73.3691 532.37 74.0078 529.31 74.0078C527.711 74.0078 526.301 73.8958 525.069 73.6828C523.838 73.4643 522.773 73.2122 521.881 72.9265C520.99 72.6407 520.265 72.3438 519.708 72.03C519.151 71.7163 518.766 71.4809 518.549 71.3128L520.862 67.0659L520.845 67.0603Z" fill="white"/>
<path d="M542.162 81.5919V63.9541C542.162 62.2116 542.34 60.7045 542.692 59.4214C543.043 58.144 543.544 57.0682 544.196 56.1942C545.227 54.8327 546.537 53.8017 548.136 53.0902C549.736 52.3842 551.508 52.0312 553.453 52.0312C555.052 52.0312 556.529 52.2946 557.9 52.8269C559.266 53.3591 560.453 54.0987 561.456 55.0512C562.459 56.0037 563.245 57.1635 563.813 58.5193C564.382 59.8808 564.666 61.3768 564.666 63.0072C564.666 64.6377 564.404 66.1672 563.874 67.4951C563.345 68.8286 562.632 69.9716 561.723 70.924C560.815 71.8765 559.756 72.6105 558.536 73.126C557.315 73.6414 556.017 73.8992 554.64 73.8992C553.124 73.8992 551.87 73.6582 550.884 73.1876C549.897 72.7114 549.156 72.2295 548.671 71.7365V81.575H542.173L542.162 81.5919ZM553.286 67.9994C554.64 67.9994 555.755 67.5287 556.635 66.593C557.516 65.6518 557.956 64.4472 557.956 62.9792C557.956 61.5113 557.516 60.3235 556.635 59.427C555.755 58.5306 554.64 58.0823 553.286 58.0823C551.932 58.0823 550.817 58.5193 549.936 59.3878C549.056 60.2618 548.616 61.4552 548.616 62.9792C548.616 63.6852 548.733 64.3463 548.961 64.957C549.19 65.5677 549.518 66.1 549.936 66.5482C550.354 66.9964 550.85 67.3494 551.419 67.6072C551.987 67.8649 552.611 67.9938 553.286 67.9938V67.9994Z" fill="white"/>
<path d="M568.148 47.0175C568.148 45.981 568.494 45.1126 569.185 44.4066C569.876 43.7006 570.734 43.3477 571.765 43.3477C572.796 43.3477 573.66 43.7006 574.362 44.4066C575.064 45.1126 575.416 45.9866 575.416 47.0175C575.416 48.0484 575.064 48.9169 574.362 49.6116C573.66 50.3064 572.791 50.6538 571.765 50.6538C570.74 50.6538 569.876 50.3064 569.185 49.6116C568.494 48.9169 568.148 48.054 568.148 47.0175ZM568.516 55.5114C568.516 54.4525 568.828 53.7017 569.453 53.2647C570.077 52.8277 570.901 52.6092 571.927 52.6092C572.657 52.6092 573.32 52.6988 573.916 52.8725C574.513 53.0518 574.892 53.1638 575.053 53.2199V73.4293H568.516V55.5058V55.5114Z" fill="white"/>
<path d="M579.718 60.3649C579.718 59.0314 579.941 57.8492 580.387 56.8127C580.833 55.7762 581.451 54.9077 582.232 54.2018C583.017 53.4958 583.965 52.9579 585.074 52.5881C586.183 52.2184 587.403 52.0391 588.73 52.0391C590.351 52.0391 591.616 52.2184 592.525 52.5713C593.433 52.9243 594.091 53.3053 594.492 53.7143C594.737 53.9889 594.927 54.2746 595.061 54.5715C595.194 54.8741 595.261 55.2271 595.261 55.6305C595.261 56.0339 595.2 56.4205 595.077 56.7735C594.955 57.1264 594.804 57.4402 594.631 57.7147C594.453 57.9893 594.286 58.219 594.124 58.4095C593.963 58.6 593.84 58.7345 593.757 58.8185C593.294 58.6 592.742 58.3983 592.09 58.2078C591.438 58.0173 590.725 57.922 589.939 57.922C588.908 57.922 588.039 58.2246 587.32 58.8185C586.601 59.418 586.244 60.4097 586.244 61.7992V73.4363H579.707V60.3705L579.718 60.3649Z" fill="white"/>
<path d="M603.231 65.7548C603.287 66.0798 603.426 66.3992 603.655 66.7129C603.883 67.0267 604.212 67.318 604.63 67.5926C605.048 67.8671 605.583 68.08 606.235 68.2481C606.887 68.4106 607.667 68.4946 608.592 68.4946C609.295 68.4946 609.958 68.433 610.582 68.3097C611.206 68.1865 611.747 68.0576 612.209 67.9231C612.672 67.7887 613.045 67.6486 613.346 67.5141C613.642 67.3797 613.82 67.2844 613.876 67.2284L616.149 71.8003C615.932 71.9348 615.575 72.1253 615.074 72.3718C614.572 72.6183 613.943 72.8592 613.185 73.1058C612.427 73.3523 611.541 73.5596 610.526 73.7389C609.512 73.9182 608.392 74.0022 607.177 74.0022C605.661 74.0022 604.24 73.7557 602.914 73.2682C601.587 72.7752 600.428 72.0636 599.442 71.1223C598.455 70.1811 597.675 69.0325 597.107 67.671C596.538 66.3095 596.254 64.7575 596.254 63.015C596.254 61.3846 596.538 59.8886 597.107 58.5272C597.675 57.1657 598.461 56.0115 599.464 55.059C600.467 54.1065 601.643 53.3669 602.997 52.8347C604.351 52.3024 605.812 52.0391 607.383 52.0391C608.843 52.0391 610.158 52.2352 611.323 52.633C612.488 53.0308 613.469 53.563 614.266 54.2466C615.063 54.9245 615.676 55.7033 616.094 56.5718C616.512 57.4402 616.723 58.3423 616.723 59.2667C616.723 60.2752 616.545 61.1773 616.194 61.9841C615.843 62.7853 615.213 63.4689 614.305 64.0235C613.396 64.5838 612.165 65.0096 610.61 65.3122C609.055 65.6092 607.071 65.7604 604.664 65.7604H603.242L603.231 65.7548ZM602.908 61.5079C604.719 61.5079 606.129 61.4406 607.132 61.3062C608.135 61.1717 608.877 60.9924 609.367 60.7739C609.858 60.5554 610.153 60.3089 610.259 60.0399C610.365 59.7654 610.42 59.4964 610.42 59.2219C610.42 58.6504 610.164 58.1518 609.651 57.7316C609.139 57.3113 608.364 57.0984 607.339 57.0984C606.608 57.0984 605.973 57.2273 605.433 57.485C604.892 57.7428 604.435 58.0789 604.073 58.4879C603.705 58.8969 603.432 59.3676 603.242 59.8942C603.053 60.4265 602.941 60.9644 602.919 61.5079H602.908Z" fill="white"/>
<path d="M620.084 46.2382C620.084 45.1793 620.396 44.4285 621.02 43.9915C621.644 43.5544 622.469 43.3359 623.495 43.3359C624.225 43.3359 624.888 43.4256 625.484 43.5993C626.081 43.7786 626.459 43.8906 626.621 43.9466V73.4232H620.084V46.2382Z" fill="white"/>
<path d="M633.687 75.6741C633.793 75.7301 634.033 75.8141 634.395 75.9374C634.763 76.0607 635.214 76.1839 635.755 76.3072C636.296 76.4305 636.914 76.5369 637.6 76.6322C638.291 76.7274 638.998 76.7722 639.734 76.7722C641.818 76.7722 643.323 76.324 644.243 75.4276C645.162 74.5311 645.625 73.0463 645.625 70.9789C645.112 71.6064 644.326 72.0995 643.267 72.4692C642.214 72.839 641.155 73.0183 640.102 73.0183C638.859 73.0183 637.7 72.8615 636.63 72.5477C635.56 72.2339 634.624 71.7521 633.827 71.0966C633.03 70.441 632.406 69.623 631.96 68.6257C631.514 67.634 631.291 66.4574 631.291 65.0959V55.5038C631.291 54.4449 631.603 53.6941 632.227 53.2571C632.851 52.8201 633.676 52.6016 634.702 52.6016C635.432 52.6016 636.095 52.6912 636.691 52.8649C637.288 53.0442 637.667 53.1562 637.828 53.2123V63.7456C637.828 65.0511 638.135 65.9924 638.742 66.5639C639.35 67.1353 640.303 67.4211 641.607 67.4211C642.827 67.4211 643.769 67.0681 644.449 66.3621C645.123 65.6562 645.463 64.5636 645.463 63.0957V55.5038C645.463 54.4449 645.775 53.6941 646.399 53.2571C647.024 52.8201 647.848 52.6016 648.874 52.6016C649.604 52.6016 650.267 52.6912 650.863 52.8649C651.46 53.0442 651.839 53.1562 652 53.2123V70.5195C652 72.5869 651.727 74.3518 651.187 75.8085C650.646 77.2653 649.871 78.4475 648.874 79.3608C647.871 80.274 646.684 80.9408 645.301 81.361C643.919 81.7812 642.376 81.9941 640.67 81.9941C639.478 81.9941 638.38 81.9269 637.382 81.7924C636.379 81.6579 635.499 81.501 634.741 81.3217C633.983 81.1425 633.375 80.9744 632.913 80.8119C632.45 80.6494 632.183 80.5373 632.099 80.4869L633.682 75.6685L633.687 75.6741Z" fill="white"/>
</g>
<path d="M431.864 128L430.892 125.246H425.672L424.718 128H422.45L427.22 115.22H429.344L434.132 128H431.864ZM426.338 123.374H430.244L428.3 117.83H428.264L426.338 123.374ZM442.328 114.752H444.326V128H442.4V126.83H442.364C441.692 127.706 440.744 128.144 439.52 128.144C438.284 128.144 437.264 127.73 436.46 126.902C435.656 126.074 435.254 124.988 435.254 123.644C435.254 122.324 435.656 121.238 436.46 120.386C437.276 119.522 438.29 119.09 439.502 119.09C440.678 119.09 441.608 119.486 442.292 120.278H442.328V114.752ZM438.008 125.57C438.488 126.062 439.094 126.308 439.826 126.308C440.558 126.308 441.17 126.062 441.662 125.57C442.154 125.078 442.4 124.442 442.4 123.662C442.4 122.87 442.16 122.216 441.68 121.7C441.2 121.172 440.588 120.908 439.844 120.908C439.124 120.908 438.518 121.16 438.026 121.664C437.546 122.168 437.306 122.834 437.306 123.662C437.306 124.442 437.54 125.078 438.008 125.57ZM452.789 119.216H454.805V128H452.789V126.848C452.069 127.712 451.163 128.144 450.071 128.144C447.875 128.144 446.777 126.95 446.777 124.562V119.216H448.793V124.022C448.793 124.874 448.925 125.468 449.189 125.804C449.465 126.14 449.915 126.308 450.539 126.308C451.163 126.308 451.691 126.056 452.123 125.552C452.567 125.036 452.789 124.328 452.789 123.428V119.216ZM461.323 128.144C460.015 128.144 458.941 127.724 458.101 126.884C457.261 126.044 456.841 124.958 456.841 123.626C456.841 122.282 457.267 121.19 458.119 120.35C458.971 119.51 460.063 119.09 461.395 119.09C462.103 119.09 462.787 119.234 463.447 119.522C464.107 119.798 464.653 120.2 465.085 120.728L463.717 121.916C463.141 121.244 462.403 120.908 461.503 120.908C460.723 120.908 460.093 121.16 459.613 121.664C459.133 122.156 458.893 122.804 458.893 123.608C458.893 124.412 459.133 125.066 459.613 125.57C460.093 126.062 460.723 126.308 461.503 126.308C462.415 126.308 463.159 125.996 463.735 125.372L465.121 126.596C464.725 127.052 464.191 127.424 463.519 127.712C462.859 128 462.127 128.144 461.323 128.144ZM474.971 123.5C474.971 123.716 474.953 123.986 474.917 124.31H468.509C468.641 124.934 468.929 125.426 469.373 125.786C469.817 126.134 470.363 126.308 471.011 126.308C471.923 126.308 472.655 125.966 473.207 125.282L474.611 126.488C473.759 127.592 472.523 128.144 470.903 128.144C469.607 128.144 468.533 127.73 467.681 126.902C466.841 126.062 466.421 124.964 466.421 123.608C466.421 122.276 466.823 121.19 467.627 120.35C468.443 119.51 469.469 119.09 470.705 119.09C471.989 119.09 473.021 119.504 473.801 120.332C474.581 121.148 474.971 122.204 474.971 123.5ZM472.199 121.394C471.839 121.07 471.377 120.908 470.813 120.908C470.249 120.908 469.763 121.064 469.355 121.376C468.959 121.688 468.689 122.126 468.545 122.69H472.937C472.805 122.138 472.559 121.706 472.199 121.394ZM484.675 128.144C483.271 128.144 482.089 127.718 481.129 126.866L482.137 125.354C482.833 126.038 483.679 126.38 484.675 126.38C485.059 126.38 485.359 126.302 485.575 126.146C485.791 125.99 485.899 125.78 485.899 125.516C485.899 125.312 485.773 125.144 485.521 125.012C485.281 124.868 484.831 124.682 484.171 124.454C483.307 124.154 482.641 123.794 482.173 123.374C481.717 122.954 481.489 122.354 481.489 121.574C481.489 120.854 481.777 120.26 482.353 119.792C482.941 119.324 483.685 119.09 484.585 119.09C485.749 119.09 486.781 119.456 487.681 120.188L486.673 121.772C486.013 121.148 485.281 120.836 484.477 120.836C484.237 120.836 484.015 120.902 483.811 121.034C483.619 121.154 483.523 121.34 483.523 121.592C483.523 121.952 483.985 122.306 484.909 122.654C486.049 123.098 486.763 123.422 487.051 123.626C487.651 124.046 487.951 124.664 487.951 125.48C487.951 126.26 487.669 126.902 487.105 127.406C486.553 127.898 485.743 128.144 484.675 128.144ZM495.785 119.216H497.801V128H495.785V126.848C495.065 127.712 494.159 128.144 493.067 128.144C490.871 128.144 489.773 126.95 489.773 124.562V119.216H491.789V124.022C491.789 124.874 491.921 125.468 492.185 125.804C492.461 126.14 492.911 126.308 493.535 126.308C494.159 126.308 494.687 126.056 495.119 125.552C495.563 125.036 495.785 124.328 495.785 123.428V119.216ZM504.319 128.144C503.011 128.144 501.937 127.724 501.097 126.884C500.257 126.044 499.837 124.958 499.837 123.626C499.837 122.282 500.263 121.19 501.115 120.35C501.967 119.51 503.059 119.09 504.391 119.09C505.099 119.09 505.783 119.234 506.443 119.522C507.103 119.798 507.649 120.2 508.081 120.728L506.713 121.916C506.137 121.244 505.399 120.908 504.499 120.908C503.719 120.908 503.089 121.16 502.609 121.664C502.129 122.156 501.889 122.804 501.889 123.608C501.889 124.412 502.129 125.066 502.609 125.57C503.089 126.062 503.719 126.308 504.499 126.308C505.411 126.308 506.155 125.996 506.731 125.372L508.117 126.596C507.721 127.052 507.187 127.424 506.515 127.712C505.855 128 505.123 128.144 504.319 128.144ZM513.899 128.144C512.591 128.144 511.517 127.724 510.677 126.884C509.837 126.044 509.417 124.958 509.417 123.626C509.417 122.282 509.843 121.19 510.695 120.35C511.547 119.51 512.639 119.09 513.971 119.09C514.679 119.09 515.363 119.234 516.023 119.522C516.683 119.798 517.229 120.2 517.661 120.728L516.293 121.916C515.717 121.244 514.979 120.908 514.079 120.908C513.299 120.908 512.669 121.16 512.189 121.664C511.709 122.156 511.469 122.804 511.469 123.608C511.469 124.412 511.709 125.066 512.189 125.57C512.669 126.062 513.299 126.308 514.079 126.308C514.991 126.308 515.735 125.996 516.311 125.372L517.697 126.596C517.301 127.052 516.767 127.424 516.095 127.712C515.435 128 514.703 128.144 513.899 128.144ZM527.547 123.5C527.547 123.716 527.529 123.986 527.493 124.31H521.085C521.217 124.934 521.505 125.426 521.949 125.786C522.393 126.134 522.939 126.308 523.587 126.308C524.499 126.308 525.231 125.966 525.783 125.282L527.187 126.488C526.335 127.592 525.099 128.144 523.479 128.144C522.183 128.144 521.109 127.73 520.257 126.902C519.417 126.062 518.997 124.964 518.997 123.608C518.997 122.276 519.399 121.19 520.203 120.35C521.019 119.51 522.045 119.09 523.281 119.09C524.565 119.09 525.597 119.504 526.377 120.332C527.157 121.148 527.547 122.204 527.547 123.5ZM524.775 121.394C524.415 121.07 523.953 120.908 523.389 120.908C522.825 120.908 522.339 121.064 521.931 121.376C521.535 121.688 521.265 122.126 521.121 122.69H525.513C525.381 122.138 525.135 121.706 524.775 121.394ZM532.435 128.144C531.031 128.144 529.849 127.718 528.889 126.866L529.897 125.354C530.593 126.038 531.439 126.38 532.435 126.38C532.819 126.38 533.119 126.302 533.335 126.146C533.551 125.99 533.659 125.78 533.659 125.516C533.659 125.312 533.533 125.144 533.281 125.012C533.041 124.868 532.591 124.682 531.931 124.454C531.067 124.154 530.401 123.794 529.933 123.374C529.477 122.954 529.249 122.354 529.249 121.574C529.249 120.854 529.537 120.26 530.113 119.792C530.701 119.324 531.445 119.09 532.345 119.09C533.509 119.09 534.541 119.456 535.441 120.188L534.433 121.772C533.773 121.148 533.041 120.836 532.237 120.836C531.997 120.836 531.775 120.902 531.571 121.034C531.379 121.154 531.283 121.34 531.283 121.592C531.283 121.952 531.745 122.306 532.669 122.654C533.809 123.098 534.523 123.422 534.811 123.626C535.411 124.046 535.711 124.664 535.711 125.48C535.711 126.26 535.429 126.902 534.865 127.406C534.313 127.898 533.503 128.144 532.435 128.144ZM543.544 119.216H545.56V128H543.544V126.848C542.824 127.712 541.918 128.144 540.826 128.144C538.63 128.144 537.532 126.95 537.532 124.562V119.216H539.548V124.022C539.548 124.874 539.68 125.468 539.944 125.804C540.22 126.14 540.67 126.308 541.294 126.308C541.918 126.308 542.446 126.056 542.878 125.552C543.322 125.036 543.544 124.328 543.544 123.428V119.216ZM548.245 128V114.752H550.261V128H548.245ZM558.973 116.678H558.937L557.947 118.028H555.985L558.019 115.382H559.819L561.943 118.028H559.963L558.973 116.678ZM557.965 128V119.216H559.981V128H557.965ZM567.73 119.09C568.738 119.09 569.524 119.396 570.088 120.008C570.664 120.62 570.952 121.562 570.952 122.834V128H568.936V123.356C568.936 122.468 568.774 121.838 568.45 121.466C568.138 121.094 567.664 120.908 567.028 120.908C566.332 120.908 565.78 121.142 565.372 121.61C564.964 122.078 564.76 122.738 564.76 123.59V128H562.744V119.216H564.76V120.44H564.778C565.534 119.54 566.518 119.09 567.73 119.09ZM584.008 119.216H586.168L582.694 128H580.768L577.276 119.216H579.418L581.722 125.48H581.74L584.008 119.216ZM589.933 117.524C589.669 117.788 589.351 117.92 588.979 117.92C588.607 117.92 588.289 117.788 588.025 117.524C587.761 117.26 587.629 116.942 587.629 116.57C587.629 116.21 587.761 115.898 588.025 115.634C588.289 115.37 588.607 115.238 588.979 115.238C589.351 115.238 589.669 115.37 589.933 115.634C590.209 115.898 590.347 116.21 590.347 116.57C590.347 116.942 590.209 117.26 589.933 117.524ZM587.971 128V119.216H589.987V128H587.971ZM599.194 119.216H601.21V128H599.284V126.83H599.248C598.6 127.706 597.67 128.144 596.458 128.144C595.222 128.144 594.202 127.73 593.398 126.902C592.606 126.074 592.21 124.988 592.21 123.644C592.21 122.324 592.612 121.238 593.416 120.386C594.22 119.522 595.228 119.09 596.44 119.09C597.592 119.09 598.498 119.486 599.158 120.278H599.194V119.216ZM596.782 126.308C597.478 126.308 598.066 126.062 598.546 125.57C599.038 125.078 599.284 124.442 599.284 123.662C599.284 122.882 599.044 122.228 598.564 121.7C598.096 121.172 597.502 120.908 596.782 120.908C596.062 120.908 595.462 121.16 594.982 121.664C594.502 122.168 594.262 122.834 594.262 123.662C594.262 124.442 594.496 125.078 594.964 125.57C595.432 126.062 596.038 126.308 596.782 126.308ZM606.363 128.144C605.595 128.144 604.995 127.898 604.563 127.406C604.131 126.914 603.915 126.188 603.915 125.228V120.926H602.835V119.216H603.915V116.3L605.931 116.084V119.216H608.505V120.926H605.931V125.03C605.931 125.474 605.997 125.792 606.129 125.984C606.261 126.164 606.477 126.254 606.777 126.254C607.173 126.254 607.605 126.128 608.073 125.876L608.595 127.622C607.959 127.97 607.215 128.144 606.363 128.144ZM604.905 131.942L604.437 130.772C604.797 130.64 605.049 130.49 605.193 130.322C605.349 130.166 605.427 129.944 605.427 129.656C605.427 129.488 605.391 129.254 605.319 128.954H607.155C607.203 129.194 607.227 129.476 607.227 129.8C607.227 130.448 607.005 130.946 606.561 131.294C606.129 131.654 605.577 131.87 604.905 131.942ZM616.385 119.216H618.401V128H616.475V126.83H616.439C615.791 127.706 614.861 128.144 613.649 128.144C612.413 128.144 611.393 127.73 610.589 126.902C609.797 126.074 609.401 124.988 609.401 123.644C609.401 122.324 609.803 121.238 610.607 120.386C611.411 119.522 612.419 119.09 613.631 119.09C614.783 119.09 615.689 119.486 616.349 120.278H616.385V119.216ZM613.973 126.308C614.669 126.308 615.257 126.062 615.737 125.57C616.229 125.078 616.475 124.442 616.475 123.662C616.475 122.882 616.235 122.228 615.755 121.7C615.287 121.172 614.693 120.908 613.973 120.908C613.253 120.908 612.653 121.16 612.173 121.664C611.693 122.168 611.453 122.834 611.453 123.662C611.453 124.442 611.687 125.078 612.155 125.57C612.623 126.062 613.229 126.308 613.973 126.308ZM628.371 128.144C627.603 128.144 627.003 127.898 626.571 127.406C626.139 126.914 625.923 126.188 625.923 125.228V120.926H624.843V119.216H625.923V116.3L627.939 116.084V119.216H630.513V120.926H627.939V125.03C627.939 125.474 628.005 125.792 628.137 125.984C628.269 126.164 628.485 126.254 628.785 126.254C629.181 126.254 629.613 126.128 630.081 125.876L630.603 127.622C629.967 127.97 629.223 128.144 628.371 128.144ZM638.393 119.216H640.409V128H638.483V126.83H638.447C637.799 127.706 636.869 128.144 635.657 128.144C634.421 128.144 633.401 127.73 632.597 126.902C631.805 126.074 631.409 124.988 631.409 123.644C631.409 122.324 631.811 121.238 632.615 120.386C633.419 119.522 634.427 119.09 635.639 119.09C636.791 119.09 637.697 119.486 638.357 120.278H638.393V119.216ZM635.981 126.308C636.677 126.308 637.265 126.062 637.745 125.57C638.237 125.078 638.483 124.442 638.483 123.662C638.483 122.882 638.243 122.228 637.763 121.7C637.295 121.172 636.701 120.908 635.981 120.908C635.261 120.908 634.661 121.16 634.181 121.664C633.701 122.168 633.461 122.834 633.461 123.662C633.461 124.442 633.695 125.078 634.163 125.57C634.631 126.062 635.237 126.308 635.981 126.308Z" fill="white"/>
<circle cx="906" cy="313" r="12" fill="#FF800A"/>
<rect x="749" y="315" width="314" height="120" rx="21" fill="#001757" stroke="#FF800A" stroke-width="4"/>
<rect x="783" y="415" width="246" height="44" rx="12" fill="#FF800A"/>
<path d="M819.664 426.52L818.674 427.87H816.712L818.746 425.224H820.546L822.67 427.87H820.69L819.7 426.52H819.664ZM818.638 442V429.22H820.816V442H818.638ZM826.391 442.144C825.623 442.144 825.023 441.898 824.591 441.406C824.159 440.914 823.943 440.188 823.943 439.228V434.926H822.863V433.216H823.943V430.3L825.959 430.084V433.216H828.533V434.926H825.959V439.03C825.959 439.474 826.025 439.792 826.157 439.984C826.289 440.164 826.505 440.254 826.805 440.254C827.201 440.254 827.633 440.128 828.101 439.876L828.623 441.622C827.987 441.97 827.243 442.144 826.391 442.144ZM824.933 445.942L824.465 444.772C824.825 444.64 825.077 444.49 825.221 444.322C825.377 444.166 825.455 443.944 825.455 443.656C825.455 443.488 825.419 443.254 825.347 442.954H827.183C827.231 443.194 827.255 443.476 827.255 443.8C827.255 444.448 827.033 444.946 826.589 445.294C826.157 445.654 825.605 445.87 824.933 445.942ZM832.373 431.524C832.109 431.788 831.791 431.92 831.419 431.92C831.047 431.92 830.729 431.788 830.465 431.524C830.201 431.26 830.069 430.942 830.069 430.57C830.069 430.21 830.201 429.898 830.465 429.634C830.729 429.37 831.047 429.238 831.419 429.238C831.791 429.238 832.109 429.37 832.373 429.634C832.649 429.898 832.787 430.21 832.787 430.57C832.787 430.942 832.649 431.26 832.373 431.524ZM830.411 442V433.216H832.427V442H830.411ZM840.329 442V434.926H839.357V433.216H840.329V431.614C840.329 430.63 840.557 429.886 841.013 429.382C841.469 428.866 842.129 428.608 842.993 428.608C843.833 428.608 844.565 428.812 845.189 429.22L844.739 430.912C844.103 430.612 843.617 430.462 843.281 430.462C842.657 430.462 842.345 430.918 842.345 431.83V433.216H844.505V434.926H842.345V442H840.329ZM848.263 431.524C847.999 431.788 847.681 431.92 847.309 431.92C846.937 431.92 846.619 431.788 846.355 431.524C846.091 431.26 845.959 430.942 845.959 430.57C845.959 430.21 846.091 429.898 846.355 429.634C846.619 429.37 846.937 429.238 847.309 429.238C847.681 429.238 847.999 429.37 848.263 429.634C848.539 429.898 848.677 430.21 848.677 430.57C848.677 430.942 848.539 431.26 848.263 431.524ZM846.301 442V433.216H848.317V442H846.301ZM856.066 433.09C857.074 433.09 857.86 433.396 858.424 434.008C859 434.62 859.288 435.562 859.288 436.834V442H857.272V437.356C857.272 436.468 857.11 435.838 856.786 435.466C856.474 435.094 856 434.908 855.364 434.908C854.668 434.908 854.116 435.142 853.708 435.61C853.3 436.078 853.096 436.738 853.096 437.59V442H851.08V433.216H853.096V434.44H853.114C853.87 433.54 854.854 433.09 856.066 433.09ZM868.194 433.216H870.21V442H868.284V440.83H868.248C867.6 441.706 866.67 442.144 865.458 442.144C864.222 442.144 863.202 441.73 862.398 440.902C861.606 440.074 861.21 438.988 861.21 437.644C861.21 436.324 861.612 435.238 862.416 434.386C863.22 433.522 864.228 433.09 865.44 433.09C866.592 433.09 867.498 433.486 868.158 434.278H868.194V433.216ZM865.782 440.308C866.478 440.308 867.066 440.062 867.546 439.57C868.038 439.078 868.284 438.442 868.284 437.662C868.284 436.882 868.044 436.228 867.564 435.7C867.096 435.172 866.502 434.908 865.782 434.908C865.062 434.908 864.462 435.16 863.982 435.664C863.502 436.168 863.262 436.834 863.262 437.662C863.262 438.442 863.496 439.078 863.964 439.57C864.432 440.062 865.038 440.308 865.782 440.308ZM877.739 433.09C878.747 433.09 879.533 433.396 880.097 434.008C880.673 434.62 880.961 435.562 880.961 436.834V442H878.945V437.356C878.945 436.468 878.783 435.838 878.459 435.466C878.147 435.094 877.673 434.908 877.037 434.908C876.341 434.908 875.789 435.142 875.381 435.61C874.973 436.078 874.769 436.738 874.769 437.59V442H872.753V433.216H874.769V434.44H874.787C875.543 433.54 876.527 433.09 877.739 433.09ZM886.033 442.144C885.265 442.144 884.665 441.898 884.233 441.406C883.801 440.914 883.585 440.188 883.585 439.228V434.926H882.505V433.216H883.585V430.3L885.601 430.084V433.216H888.175V434.926H885.601V439.03C885.601 439.474 885.667 439.792 885.799 439.984C885.931 440.164 886.147 440.254 886.447 440.254C886.843 440.254 887.275 440.128 887.743 439.876L888.265 441.622C887.629 441.97 886.885 442.144 886.033 442.144ZM884.575 445.942L884.107 444.772C884.467 444.64 884.719 444.49 884.863 444.322C885.019 444.166 885.097 443.944 885.097 443.656C885.097 443.488 885.061 443.254 884.989 442.954H886.825C886.873 443.194 886.897 443.476 886.897 443.8C886.897 444.448 886.675 444.946 886.231 445.294C885.799 445.654 885.247 445.87 884.575 445.942ZM897.604 437.5C897.604 437.716 897.586 437.986 897.55 438.31H891.142C891.274 438.934 891.562 439.426 892.006 439.786C892.45 440.134 892.996 440.308 893.644 440.308C894.556 440.308 895.288 439.966 895.84 439.282L897.244 440.488C896.392 441.592 895.156 442.144 893.536 442.144C892.24 442.144 891.166 441.73 890.314 440.902C889.474 440.062 889.054 438.964 889.054 437.608C889.054 436.276 889.456 435.19 890.26 434.35C891.076 433.51 892.102 433.09 893.338 433.09C894.622 433.09 895.654 433.504 896.434 434.332C897.214 435.148 897.604 436.204 897.604 437.5ZM894.832 435.394C894.472 435.07 894.01 434.908 893.446 434.908C892.882 434.908 892.396 435.064 891.988 435.376C891.592 435.688 891.322 436.126 891.178 436.69H895.57C895.438 436.138 895.192 435.706 894.832 435.394ZM906.127 433.216H908.143V442H906.217V440.83H906.181C905.533 441.706 904.603 442.144 903.391 442.144C902.155 442.144 901.135 441.73 900.331 440.902C899.539 440.074 899.143 438.988 899.143 437.644C899.143 436.324 899.545 435.238 900.349 434.386C901.153 433.522 902.161 433.09 903.373 433.09C904.525 433.09 905.431 433.486 906.091 434.278H906.127V433.216ZM903.715 440.308C904.411 440.308 904.999 440.062 905.479 439.57C905.971 439.078 906.217 438.442 906.217 437.662C906.217 436.882 905.977 436.228 905.497 435.7C905.029 435.172 904.435 434.908 903.715 434.908C902.995 434.908 902.395 435.16 901.915 435.664C901.435 436.168 901.195 436.834 901.195 437.662C901.195 438.442 901.429 439.078 901.897 439.57C902.365 440.062 902.971 440.308 903.715 440.308ZM917.383 434.602L912.793 440.272V440.29H917.311V442H910.093V440.578L914.611 434.98V434.926H910.399V433.216H917.383V434.602ZM923.353 432.082C922.597 432.082 921.955 431.854 921.427 431.398C920.899 430.93 920.605 430.282 920.545 429.454H922.129C922.153 429.814 922.273 430.108 922.489 430.336C922.705 430.564 922.993 430.678 923.353 430.678C923.701 430.678 923.989 430.57 924.217 430.354C924.445 430.126 924.565 429.826 924.577 429.454H926.161C926.101 430.234 925.813 430.87 925.297 431.362C924.793 431.842 924.145 432.082 923.353 432.082ZM925.621 433.216H927.637V442H925.711V440.83H925.675C925.027 441.706 924.097 442.144 922.885 442.144C921.649 442.144 920.629 441.73 919.825 440.902C919.033 440.074 918.637 438.988 918.637 437.644C918.637 436.324 919.039 435.238 919.843 434.386C920.647 433.522 921.655 433.09 922.867 433.09C924.019 433.09 924.925 433.486 925.585 434.278H925.621V433.216ZM923.209 440.308C923.905 440.308 924.493 440.062 924.973 439.57C925.465 439.078 925.711 438.442 925.711 437.662C925.711 436.882 925.471 436.228 924.991 435.7C924.523 435.172 923.929 434.908 923.209 434.908C922.489 434.908 921.889 435.16 921.409 435.664C920.929 436.168 920.689 436.834 920.689 437.662C920.689 438.442 920.923 439.078 921.391 439.57C921.859 440.062 922.465 440.308 923.209 440.308ZM939.984 433.09C940.992 433.09 941.778 433.396 942.342 434.008C942.918 434.62 943.206 435.562 943.206 436.834V442H941.19V437.356C941.19 436.468 941.028 435.838 940.704 435.466C940.392 435.094 939.918 434.908 939.282 434.908C938.586 434.908 938.034 435.142 937.626 435.61C937.218 436.078 937.014 436.738 937.014 437.59V442H934.998V433.216H937.014V434.44H937.032C937.788 433.54 938.772 433.09 939.984 433.09ZM953.696 437.5C953.696 437.716 953.678 437.986 953.642 438.31H947.234C947.366 438.934 947.654 439.426 948.098 439.786C948.542 440.134 949.088 440.308 949.736 440.308C950.648 440.308 951.38 439.966 951.932 439.282L953.336 440.488C952.484 441.592 951.248 442.144 949.628 442.144C948.332 442.144 947.258 441.73 946.406 440.902C945.566 440.062 945.146 438.964 945.146 437.608C945.146 436.276 945.548 435.19 946.352 434.35C947.168 433.51 948.194 433.09 949.43 433.09C950.714 433.09 951.746 433.504 952.526 434.332C953.306 435.148 953.696 436.204 953.696 437.5ZM950.924 435.394C950.564 435.07 950.102 434.908 949.538 434.908C948.974 434.908 948.488 435.064 948.08 435.376C947.684 435.688 947.414 436.126 947.27 436.69H951.662C951.53 436.138 951.284 435.706 950.924 435.394ZM961.061 433.216H963.221L959.747 442H957.821L954.329 433.216H956.471L958.775 439.48H958.793L961.061 433.216ZM968.439 442.144C967.071 442.144 965.961 441.718 965.109 440.866C964.257 440.014 963.831 438.934 963.831 437.626C963.831 436.318 964.257 435.238 965.109 434.386C965.961 433.522 967.071 433.09 968.439 433.09C969.795 433.09 970.899 433.51 971.751 434.35C972.615 435.19 973.047 436.282 973.047 437.626C973.047 438.958 972.615 440.044 971.751 440.884C970.899 441.724 969.795 442.144 968.439 442.144ZM968.439 440.308C969.159 440.308 969.765 440.056 970.257 439.552C970.749 439.048 970.995 438.406 970.995 437.626C970.995 436.822 970.749 436.168 970.257 435.664C969.777 435.16 969.171 434.908 968.439 434.908C967.683 434.908 967.065 435.166 966.585 435.682C966.117 436.198 965.883 436.846 965.883 437.626C965.883 438.382 966.123 439.018 966.603 439.534C967.083 440.05 967.695 440.308 968.439 440.308ZM977.234 431.524C976.97 431.788 976.652 431.92 976.28 431.92C975.908 431.92 975.59 431.788 975.326 431.524C975.062 431.26 974.93 430.942 974.93 430.57C974.93 430.21 975.062 429.898 975.326 429.634C975.59 429.37 975.908 429.238 976.28 429.238C976.652 429.238 976.97 429.37 977.234 429.634C977.51 429.898 977.648 430.21 977.648 430.57C977.648 430.942 977.51 431.26 977.234 431.524ZM975.272 442V433.216H977.288V442H975.272ZM980.176 442V428.752H982.192V442H980.176ZM992.983 437.5C992.983 437.716 992.965 437.986 992.929 438.31H986.521C986.653 438.934 986.941 439.426 987.385 439.786C987.829 440.134 988.375 440.308 989.023 440.308C989.935 440.308 990.667 439.966 991.219 439.282L992.623 440.488C991.771 441.592 990.535 442.144 988.915 442.144C987.619 442.144 986.545 441.73 985.693 440.902C984.853 440.062 984.433 438.964 984.433 437.608C984.433 436.276 984.835 435.19 985.639 434.35C986.455 433.51 987.481 433.09 988.717 433.09C990.001 433.09 991.033 433.504 991.813 434.332C992.593 435.148 992.983 436.204 992.983 437.5ZM990.211 435.394C989.851 435.07 989.389 434.908 988.825 434.908C988.261 434.908 987.775 435.064 987.367 435.376C986.971 435.688 986.701 436.126 986.557 436.69H990.949C990.817 436.138 990.571 435.706 990.211 435.394Z" fill="white"/>
<path d="M892.303 368.067C892.046 370.232 891.037 371.901 889.275 373.075C887.532 374.249 885.164 374.836 882.173 374.836C879.916 374.836 877.934 374.487 876.227 373.79C874.539 373.093 873.218 372.057 872.263 370.681C871.327 369.305 870.859 367.618 870.859 365.618C870.859 363.619 871.327 361.922 872.263 360.528C873.218 359.134 874.539 358.088 876.227 357.391C877.934 356.676 879.916 356.318 882.173 356.318C885.164 356.318 887.541 356.923 889.303 358.134C891.064 359.345 892.065 361.032 892.303 363.197H888.67C888.284 362.023 887.55 361.115 886.467 360.473C885.385 359.831 883.953 359.51 882.173 359.51C879.861 359.51 878.026 360.042 876.668 361.106C875.31 362.151 874.631 363.655 874.631 365.618C874.631 367.581 875.31 369.094 876.668 370.158C878.026 371.222 879.861 371.754 882.173 371.754C883.935 371.754 885.357 371.433 886.44 370.791C887.523 370.149 888.266 369.241 888.67 368.067H892.303Z" fill="white"/>
<path d="M898.903 364.903C899.252 363.784 899.858 362.775 900.72 361.876C901.583 360.959 902.73 360.5 904.161 360.5V363.747C902.73 363.747 901.592 364.096 900.748 364.793C899.903 365.49 899.289 366.233 898.903 367.022V374.478H895.325V360.803H898.903V364.903Z" fill="white"/>
<path d="M922.206 369.938C921.967 371.406 921.178 372.589 919.839 373.488C918.517 374.368 916.737 374.808 914.498 374.808C912.737 374.808 911.186 374.524 909.846 373.955C908.507 373.387 907.461 372.57 906.708 371.507C905.974 370.443 905.607 369.168 905.607 367.682C905.607 366.196 905.965 364.912 906.681 363.83C907.415 362.747 908.442 361.922 909.764 361.353C911.085 360.785 912.626 360.5 914.388 360.5C917.104 360.5 919.123 361.142 920.444 362.426C921.784 363.692 922.39 365.618 922.261 368.205H909.213C909.36 369.379 909.883 370.323 910.782 371.039C911.7 371.736 912.911 372.084 914.416 372.084C915.535 372.084 916.48 371.892 917.251 371.507C918.022 371.103 918.517 370.58 918.738 369.938H922.206ZM914.223 363.197C912.957 363.197 911.892 363.481 911.03 364.05C910.186 364.6 909.644 365.325 909.406 366.224H918.71C918.618 365.288 918.178 364.554 917.389 364.022C916.6 363.472 915.544 363.197 914.223 363.197Z" fill="white"/>
<path d="M941.578 355.3V374.478H938.247C938.082 373.157 937.999 371.983 937.999 370.956V370.103C937.577 371.479 936.825 372.607 935.742 373.488C934.678 374.35 933.292 374.781 931.586 374.781C930.209 374.781 928.961 374.487 927.842 373.9C926.741 373.295 925.869 372.451 925.227 371.369C924.584 370.287 924.263 369.049 924.263 367.654C924.263 366.242 924.575 364.995 925.199 363.912C925.823 362.83 926.686 361.995 927.787 361.408C928.906 360.803 930.172 360.5 931.586 360.5C933.347 360.5 934.751 360.886 935.797 361.656C936.862 362.426 937.596 363.5 937.999 364.875V355.3H941.578ZM932.742 372.029C934.357 372.029 935.632 371.635 936.568 370.846C937.522 370.039 937.999 368.975 937.999 367.654C937.999 366.26 937.531 365.178 936.595 364.408C935.66 363.637 934.375 363.252 932.742 363.252C931.237 363.252 930.053 363.655 929.191 364.463C928.346 365.251 927.924 366.315 927.924 367.654C927.924 368.975 928.365 370.039 929.246 370.846C930.127 371.635 931.292 372.029 932.742 372.029Z" fill="white"/>
<path d="M949.537 357.941H945.38V354.805H949.537V357.941ZM949.261 360.803V374.478H945.683V360.803H949.261Z" fill="white"/>
<path d="M962.408 363.527H958.884V374.478H955.306V363.527H951.782V360.803H955.306V357.061H958.884V360.803H962.408V363.527Z" fill="white"/>
<path d="M972.94 358.189C972.059 358.171 971.408 358.327 970.986 358.657C970.582 358.987 970.38 359.602 970.38 360.5V361.051H974.729V363.775H970.38V374.478H966.802V363.775H963.691V361.051H966.802V360.06C966.802 358.428 967.242 357.226 968.123 356.456C969.004 355.685 970.316 355.3 972.059 355.3H974.922V358.189H972.94Z" fill="white"/>
<path d="M992.439 360.803L982.969 379.981H979.253L982.254 374.341L975.702 360.803H979.501L984.043 370.819L988.612 360.803H992.439Z" fill="white"/>
<path d="M836.996 367.766C837.024 366.895 837.733 366.185 838.604 366.157C839.566 366.126 840.353 366.912 840.322 367.874C840.295 368.745 839.585 369.455 838.714 369.483C837.752 369.513 836.967 368.728 836.997 367.766H836.996Z" fill="url(#paint0_linear_96_2781)"/>
<path d="M832.208 362.984H854.456L853.748 369.103L853.058 375.062C853.011 375.468 852.666 375.775 852.257 375.775H831.63C831.148 375.775 830.774 375.355 830.83 374.876L831.321 370.631H838.66C839.436 370.631 840.138 370.316 840.647 369.808C841.155 369.299 841.47 368.598 841.47 367.821C841.47 366.27 840.212 365.013 838.66 365.013H831.972L832.207 362.984H832.208Z" fill="url(#paint1_linear_96_2781)"/>
<path d="M854.788 360.125L854.651 361.305H832.402L832.56 359.939C832.608 359.533 832.952 359.227 833.362 359.227H853.988C854.47 359.227 854.844 359.646 854.788 360.125H854.788Z" fill="url(#paint2_linear_96_2781)"/>
<path d="M852.859 381.321L847.407 386.774C847.262 386.919 847.066 387 846.861 387H838.5C832.489 387 827.113 384.281 823.537 380.004C820.704 376.618 819 372.258 819 367.5C819 362.742 820.704 358.382 823.537 354.996C827.113 350.719 832.489 348 838.5 348H854.808C855.496 348 855.84 348.831 855.354 349.317L851.608 353.063L849.901 354.77C849.756 354.915 849.56 354.996 849.355 354.996H838.625C831.702 354.996 826 360.57 825.996 367.493C825.994 370.61 827.133 373.462 829.018 375.653C831.31 378.318 834.708 380.005 838.499 380.005H852.313C853 380.005 853.345 380.836 852.859 381.322L852.859 381.321Z" fill="url(#paint3_linear_96_2781)"/>
<circle cx="532" cy="361" r="12" fill="#0CFF00"/>
<rect x="375" y="363" width="314" height="120" rx="21" fill="#001757" stroke="#0CFF00" stroke-width="4"/>
<rect x="409" y="463" width="246" height="44" rx="12" fill="#0CFF00"/>
<path d="M438.664 474.52L437.674 475.87H435.712L437.746 473.224H439.546L441.67 475.87H439.69L438.7 474.52H438.664ZM437.638 490V477.22H439.816V490H437.638ZM445.391 490.144C444.623 490.144 444.023 489.898 443.591 489.406C443.159 488.914 442.943 488.188 442.943 487.228V482.926H441.863V481.216H442.943V478.3L444.959 478.084V481.216H447.533V482.926H444.959V487.03C444.959 487.474 445.025 487.792 445.157 487.984C445.289 488.164 445.505 488.254 445.805 488.254C446.201 488.254 446.633 488.128 447.101 487.876L447.623 489.622C446.987 489.97 446.243 490.144 445.391 490.144ZM443.933 493.942L443.465 492.772C443.825 492.64 444.077 492.49 444.221 492.322C444.377 492.166 444.455 491.944 444.455 491.656C444.455 491.488 444.419 491.254 444.347 490.954H446.183C446.231 491.194 446.255 491.476 446.255 491.8C446.255 492.448 446.033 492.946 445.589 493.294C445.157 493.654 444.605 493.87 443.933 493.942ZM451.373 479.524C451.109 479.788 450.791 479.92 450.419 479.92C450.047 479.92 449.729 479.788 449.465 479.524C449.201 479.26 449.069 478.942 449.069 478.57C449.069 478.21 449.201 477.898 449.465 477.634C449.729 477.37 450.047 477.238 450.419 477.238C450.791 477.238 451.109 477.37 451.373 477.634C451.649 477.898 451.787 478.21 451.787 478.57C451.787 478.942 451.649 479.26 451.373 479.524ZM449.411 490V481.216H451.427V490H449.411ZM459.329 490V482.926H458.357V481.216H459.329V479.614C459.329 478.63 459.557 477.886 460.013 477.382C460.469 476.866 461.129 476.608 461.993 476.608C462.833 476.608 463.565 476.812 464.189 477.22L463.739 478.912C463.103 478.612 462.617 478.462 462.281 478.462C461.657 478.462 461.345 478.918 461.345 479.83V481.216H463.505V482.926H461.345V490H459.329ZM471.461 481.216H473.477V490H471.551V488.83H471.515C470.867 489.706 469.937 490.144 468.725 490.144C467.489 490.144 466.469 489.73 465.665 488.902C464.873 488.074 464.477 486.988 464.477 485.644C464.477 484.324 464.879 483.238 465.683 482.386C466.487 481.522 467.495 481.09 468.707 481.09C469.859 481.09 470.765 481.486 471.425 482.278H471.461V481.216ZM469.049 488.308C469.745 488.308 470.333 488.062 470.813 487.57C471.305 487.078 471.551 486.442 471.551 485.662C471.551 484.882 471.311 484.228 470.831 483.7C470.363 483.172 469.769 482.908 469.049 482.908C468.329 482.908 467.729 483.16 467.249 483.664C466.769 484.168 466.529 484.834 466.529 485.662C466.529 486.442 466.763 487.078 467.231 487.57C467.699 488.062 468.305 488.308 469.049 488.308ZM479.981 490.144C478.673 490.144 477.599 489.724 476.759 488.884C475.919 488.044 475.499 486.958 475.499 485.626C475.499 484.282 475.925 483.19 476.777 482.35C477.629 481.51 478.721 481.09 480.053 481.09C480.761 481.09 481.445 481.234 482.105 481.522C482.765 481.798 483.311 482.2 483.743 482.728L482.375 483.916C481.799 483.244 481.061 482.908 480.161 482.908C479.381 482.908 478.751 483.16 478.271 483.664C477.791 484.156 477.551 484.804 477.551 485.608C477.551 486.412 477.791 487.066 478.271 487.57C478.751 488.062 479.381 488.308 480.161 488.308C481.073 488.308 481.817 487.996 482.393 487.372L483.779 488.596C483.383 489.052 482.849 489.424 482.177 489.712C481.517 490 480.785 490.144 479.981 490.144ZM493.629 485.5C493.629 485.716 493.611 485.986 493.575 486.31H487.167C487.299 486.934 487.587 487.426 488.031 487.786C488.475 488.134 489.021 488.308 489.669 488.308C490.581 488.308 491.313 487.966 491.865 487.282L493.269 488.488C492.417 489.592 491.181 490.144 489.561 490.144C488.265 490.144 487.191 489.73 486.339 488.902C485.499 488.062 485.079 486.964 485.079 485.608C485.079 484.276 485.481 483.19 486.285 482.35C487.101 481.51 488.127 481.09 489.363 481.09C490.647 481.09 491.679 481.504 492.459 482.332C493.239 483.148 493.629 484.204 493.629 485.5ZM490.857 483.394C490.497 483.07 490.035 482.908 489.471 482.908C488.907 482.908 488.421 483.064 488.013 483.376C487.617 483.688 487.347 484.126 487.203 484.69H491.595C491.463 484.138 491.217 483.706 490.857 483.394ZM506.969 481.216H508.985V490H507.059V488.83H507.023C506.375 489.706 505.445 490.144 504.233 490.144C502.997 490.144 501.977 489.73 501.173 488.902C500.381 488.074 499.985 486.988 499.985 485.644C499.985 484.324 500.387 483.238 501.191 482.386C501.995 481.522 503.003 481.09 504.215 481.09C505.367 481.09 506.273 481.486 506.933 482.278H506.969V481.216ZM504.557 488.308C505.253 488.308 505.841 488.062 506.321 487.57C506.813 487.078 507.059 486.442 507.059 485.662C507.059 484.882 506.819 484.228 506.339 483.7C505.871 483.172 505.277 482.908 504.557 482.908C503.837 482.908 503.237 483.16 502.757 483.664C502.277 484.168 502.037 484.834 502.037 485.662C502.037 486.442 502.271 487.078 502.739 487.57C503.207 488.062 503.813 488.308 504.557 488.308ZM511.818 490V482.926H510.846V481.216H511.818V479.614C511.818 478.63 512.046 477.886 512.502 477.382C512.958 476.866 513.618 476.608 514.482 476.608C515.322 476.608 516.054 476.812 516.678 477.22L516.228 478.912C515.592 478.612 515.106 478.462 514.77 478.462C514.146 478.462 513.834 478.918 513.834 479.83V481.216H515.994V482.926H513.834V490H511.818ZM523.949 481.216H525.965V490H524.039V488.83H524.003C523.355 489.706 522.425 490.144 521.213 490.144C519.977 490.144 518.957 489.73 518.153 488.902C517.361 488.074 516.965 486.988 516.965 485.644C516.965 484.324 517.367 483.238 518.171 482.386C518.975 481.522 519.983 481.09 521.195 481.09C522.347 481.09 523.253 481.486 523.913 482.278H523.949V481.216ZM521.537 488.308C522.233 488.308 522.821 488.062 523.301 487.57C523.793 487.078 524.039 486.442 524.039 485.662C524.039 484.882 523.799 484.228 523.319 483.7C522.851 483.172 522.257 482.908 521.537 482.908C520.817 482.908 520.217 483.16 519.737 483.664C519.257 484.168 519.017 484.834 519.017 485.662C519.017 486.442 519.251 487.078 519.719 487.57C520.187 488.062 520.793 488.308 521.537 488.308ZM532.469 490.144C531.161 490.144 530.087 489.724 529.247 488.884C528.407 488.044 527.987 486.958 527.987 485.626C527.987 484.282 528.413 483.19 529.265 482.35C530.117 481.51 531.209 481.09 532.541 481.09C533.249 481.09 533.933 481.234 534.593 481.522C535.253 481.798 535.799 482.2 536.231 482.728L534.863 483.916C534.287 483.244 533.549 482.908 532.649 482.908C531.869 482.908 531.239 483.16 530.759 483.664C530.279 484.156 530.039 484.804 530.039 485.608C530.039 486.412 530.279 487.066 530.759 487.57C531.239 488.062 531.869 488.308 532.649 488.308C533.561 488.308 534.305 487.996 534.881 487.372L536.267 488.596C535.871 489.052 535.337 489.424 534.665 489.712C534.005 490 533.273 490.144 532.469 490.144ZM546.117 485.5C546.117 485.716 546.099 485.986 546.063 486.31H539.655C539.787 486.934 540.075 487.426 540.519 487.786C540.963 488.134 541.509 488.308 542.157 488.308C543.069 488.308 543.801 487.966 544.353 487.282L545.757 488.488C544.905 489.592 543.669 490.144 542.049 490.144C540.753 490.144 539.679 489.73 538.827 488.902C537.987 488.062 537.567 486.964 537.567 485.608C537.567 484.276 537.969 483.19 538.773 482.35C539.589 481.51 540.615 481.09 541.851 481.09C543.135 481.09 544.167 481.504 544.947 482.332C545.727 483.148 546.117 484.204 546.117 485.5ZM543.345 483.394C542.985 483.07 542.523 482.908 541.959 482.908C541.395 482.908 540.909 483.064 540.501 483.376C540.105 483.688 539.835 484.126 539.691 484.69H544.083C543.951 484.138 543.705 483.706 543.345 483.394ZM552.967 481.09H553.219V483.34C552.907 483.316 552.703 483.304 552.607 483.304C551.863 483.304 551.275 483.544 550.843 484.024C550.423 484.492 550.213 485.098 550.213 485.842V490H548.197V481.216H550.213V482.548H550.231C550.939 481.576 551.851 481.09 552.967 481.09ZM562.676 485.5C562.676 485.716 562.658 485.986 562.622 486.31H556.214C556.346 486.934 556.634 487.426 557.078 487.786C557.522 488.134 558.068 488.308 558.716 488.308C559.628 488.308 560.36 487.966 560.912 487.282L562.316 488.488C561.464 489.592 560.228 490.144 558.608 490.144C557.312 490.144 556.238 489.73 555.386 488.902C554.546 488.062 554.126 486.964 554.126 485.608C554.126 484.276 554.528 483.19 555.332 482.35C556.148 481.51 557.174 481.09 558.41 481.09C559.694 481.09 560.726 481.504 561.506 482.332C562.286 483.148 562.676 484.204 562.676 485.5ZM559.904 483.394C559.544 483.07 559.082 482.908 558.518 482.908C557.954 482.908 557.468 483.064 557.06 483.376C556.664 483.688 556.394 484.126 556.25 484.69H560.642C560.51 484.138 560.264 483.706 559.904 483.394ZM571.199 481.216H573.215V490H571.289V488.83H571.253C570.605 489.706 569.675 490.144 568.463 490.144C567.227 490.144 566.207 489.73 565.403 488.902C564.611 488.074 564.215 486.988 564.215 485.644C564.215 484.324 564.617 483.238 565.421 482.386C566.225 481.522 567.233 481.09 568.445 481.09C569.597 481.09 570.503 481.486 571.163 482.278H571.199V481.216ZM568.787 488.308C569.483 488.308 570.071 488.062 570.551 487.57C571.043 487.078 571.289 486.442 571.289 485.662C571.289 484.882 571.049 484.228 570.569 483.7C570.101 483.172 569.507 482.908 568.787 482.908C568.067 482.908 567.467 483.16 566.987 483.664C566.507 484.168 566.267 484.834 566.267 485.662C566.267 486.442 566.501 487.078 566.969 487.57C567.437 488.062 568.043 488.308 568.787 488.308ZM586.354 481.216H588.514L585.04 490H583.114L579.622 481.216H581.764L584.068 487.48H584.086L586.354 481.216ZM592.279 479.524C592.015 479.788 591.697 479.92 591.325 479.92C590.953 479.92 590.635 479.788 590.371 479.524C590.107 479.26 589.975 478.942 589.975 478.57C589.975 478.21 590.107 477.898 590.371 477.634C590.635 477.37 590.953 477.238 591.325 477.238C591.697 477.238 592.015 477.37 592.279 477.634C592.555 477.898 592.693 478.21 592.693 478.57C592.693 478.942 592.555 479.26 592.279 479.524ZM590.317 490V481.216H592.333V490H590.317ZM599.865 481.09H600.117V483.34C599.805 483.316 599.601 483.304 599.505 483.304C598.761 483.304 598.173 483.544 597.741 484.024C597.321 484.492 597.111 485.098 597.111 485.842V490H595.095V481.216H597.111V482.548H597.129C597.837 481.576 598.749 481.09 599.865 481.09ZM607.99 481.216H610.006V490H608.08V488.83H608.044C607.396 489.706 606.466 490.144 605.254 490.144C604.018 490.144 602.998 489.73 602.194 488.902C601.402 488.074 601.006 486.988 601.006 485.644C601.006 484.324 601.408 483.238 602.212 482.386C603.016 481.522 604.024 481.09 605.236 481.09C606.388 481.09 607.294 481.486 607.954 482.278H607.99V481.216ZM605.578 488.308C606.274 488.308 606.862 488.062 607.342 487.57C607.834 487.078 608.08 486.442 608.08 485.662C608.08 484.882 607.84 484.228 607.36 483.7C606.892 483.172 606.298 482.908 605.578 482.908C604.858 482.908 604.258 483.16 603.778 483.664C603.298 484.168 603.058 484.834 603.058 485.662C603.058 486.442 603.292 487.078 603.76 487.57C604.228 488.062 604.834 488.308 605.578 488.308ZM612.676 490V476.752H614.692V490H612.676ZM621.631 480.082C620.875 480.082 620.233 479.854 619.705 479.398C619.177 478.93 618.883 478.282 618.823 477.454H620.407C620.431 477.814 620.551 478.108 620.767 478.336C620.983 478.564 621.271 478.678 621.631 478.678C621.979 478.678 622.267 478.57 622.495 478.354C622.723 478.126 622.843 477.826 622.855 477.454H624.439C624.379 478.234 624.091 478.87 623.575 479.362C623.071 479.842 622.423 480.082 621.631 480.082ZM623.899 481.216H625.915V490H623.989V488.83H623.953C623.305 489.706 622.375 490.144 621.163 490.144C619.927 490.144 618.907 489.73 618.103 488.902C617.311 488.074 616.915 486.988 616.915 485.644C616.915 484.324 617.317 483.238 618.121 482.386C618.925 481.522 619.933 481.09 621.145 481.09C622.297 481.09 623.203 481.486 623.863 482.278H623.899V481.216ZM621.487 488.308C622.183 488.308 622.771 488.062 623.251 487.57C623.743 487.078 623.989 486.442 623.989 485.662C623.989 484.882 623.749 484.228 623.269 483.7C622.801 483.172 622.207 482.908 621.487 482.908C620.767 482.908 620.167 483.16 619.687 483.664C619.207 484.168 618.967 484.834 618.967 485.662C618.967 486.442 619.201 487.078 619.669 487.57C620.137 488.062 620.743 488.308 621.487 488.308Z" fill="black"/>
<path d="M474.85 424.94C474.07 426.92 472.31 427.37 469.57 426.29C466.53 425.09 464.25 422.51 462.73 418.55L455.19 422.8C455.12 422.85 455.06 422.89 455 422.96V403C455 399.69 457.69 397 461 397H469.57C467.28 398.22 465.65 400.06 464.67 402.54C464 404.25 463.69 405.87 463.76 407.4C463.83 408.93 464.26 410.38 465.06 411.76C465.87 413.11 466.72 414.27 467.59 415.25C468.5 416.24 469.67 417.34 471.1 418.53C472.93 420.09 474.11 421.31 474.63 422.18C475.17 423.03 475.24 423.95 474.85 424.94Z" fill="#0CFF00"/>
<path d="M491.689 405.472V427.692C491.689 431.002 488.999 433.692 485.689 433.692H479.099C479.979 433.182 480.819 432.512 481.609 431.692C482.689 430.542 483.559 429.152 484.209 427.512C484.519 426.722 484.739 425.962 484.869 425.222C485.009 424.482 485.089 423.822 485.119 423.242C485.189 422.682 485.099 422.052 484.859 421.362C484.629 420.642 484.459 420.082 484.339 419.682C484.219 419.272 483.879 418.722 483.329 418.032C482.819 417.322 482.449 416.812 482.209 416.522C482.009 416.212 481.509 415.672 480.709 414.922C479.939 414.152 479.429 413.652 479.159 413.422C478.909 413.162 478.319 412.612 477.389 411.772C475.609 410.162 474.459 408.932 473.919 408.092C473.419 407.262 473.339 406.462 473.679 405.692C474.019 404.832 474.579 404.262 475.369 403.982C476.179 403.712 477.109 403.782 478.129 404.182C480.219 405.012 482.249 407.152 484.239 410.632L491.689 405.472Z" fill="#0CFF00"/>
<path d="M474.85 424.94C474.07 426.92 472.31 427.37 469.57 426.29C466.53 425.09 464.25 422.51 462.73 418.55L455.19 422.8C455.12 422.85 455.06 422.89 455 422.96V403C455 399.69 457.69 397 461 397H469.57C467.28 398.22 465.65 400.06 464.67 402.54C464 404.25 463.69 405.87 463.76 407.4C463.83 408.93 464.26 410.38 465.06 411.76C465.87 413.11 466.72 414.27 467.59 415.25C468.5 416.24 469.67 417.34 471.1 418.53C472.93 420.09 474.11 421.31 474.63 422.18C475.17 423.03 475.24 423.95 474.85 424.94Z" fill="#0CFF00"/>
<path d="M491.689 405.472V427.692C491.689 431.002 488.999 433.692 485.689 433.692H479.099C479.979 433.182 480.819 432.512 481.609 431.692C482.689 430.542 483.559 429.152 484.209 427.512C484.519 426.722 484.739 425.962 484.869 425.222C485.009 424.482 485.089 423.822 485.119 423.242C485.189 422.682 485.099 422.052 484.859 421.362C484.629 420.642 484.459 420.082 484.339 419.682C484.219 419.272 483.879 418.722 483.329 418.032C482.819 417.322 482.449 416.812 482.209 416.522C482.009 416.212 481.509 415.672 480.709 414.922C479.939 414.152 479.429 413.652 479.159 413.422C478.909 413.162 478.319 412.612 477.389 411.772C475.609 410.162 474.459 408.932 473.919 408.092C473.419 407.262 473.339 406.462 473.679 405.692C474.019 404.832 474.579 404.262 475.369 403.982C476.179 403.712 477.109 403.782 478.129 404.182C480.219 405.012 482.249 407.152 484.239 410.632L491.689 405.472Z" fill="#0CFF00"/>
<path d="M511.149 426.898C508.729 426.898 506.669 426.288 504.969 425.058C503.269 423.828 502.099 422.328 501.449 420.538L505.389 419.358C505.829 420.508 506.609 421.488 507.629 422.178C508.689 422.908 509.949 423.278 511.399 423.278C512.589 423.278 513.549 423.018 514.299 422.488C515.049 421.958 515.409 421.348 515.409 420.628C515.409 420.358 515.359 420.088 515.249 419.838C515.139 419.588 514.979 419.368 514.779 419.178C514.359 418.768 513.639 418.408 512.629 418.098L507.269 416.418C505.799 415.968 504.649 415.278 503.779 414.368C502.909 413.458 502.489 412.368 502.509 411.068C502.499 409.418 503.209 407.998 504.649 406.828C506.089 405.658 507.889 405.078 510.039 405.078C512.189 405.078 514.129 405.588 515.759 406.608C517.389 407.628 518.499 408.898 519.099 410.438L515.269 411.548C514.829 410.688 514.139 409.998 513.219 409.468C512.269 408.938 511.189 408.658 510.099 408.678C509.099 408.678 508.299 408.898 507.669 409.338C507.039 409.778 506.729 410.318 506.729 410.948C506.729 411.868 507.399 412.528 508.739 412.918L513.959 414.598C515.789 415.158 517.199 415.858 518.169 416.698C519.139 417.548 519.619 418.758 519.619 420.338C519.619 422.168 518.839 423.698 517.289 424.958C515.739 426.218 513.709 426.848 511.239 426.848L511.169 426.888L511.149 426.898Z" fill="white"/>
<path d="M529.86 426.851C527.51 426.851 525.58 426.091 524.04 424.561C522.5 423.031 521.74 421.131 521.74 418.851C521.74 416.571 522.52 414.671 524.06 413.151C525.6 411.631 527.53 410.871 529.88 410.871C532.23 410.871 534.16 411.631 535.7 413.151C537.24 414.671 538 416.571 538 418.851C538 421.131 537.24 423.031 535.7 424.561C534.16 426.091 532.23 426.851 529.9 426.851H529.87H529.86ZM532.94 422.011C533.73 421.181 534.13 420.121 534.13 418.851C534.13 417.581 533.73 416.531 532.94 415.691C532.15 414.861 531.12 414.451 529.86 414.451C528.6 414.451 527.57 414.861 526.78 415.691C525.99 416.521 525.59 417.581 525.59 418.851C525.59 420.121 525.99 421.171 526.78 422.011C527.57 422.841 528.6 423.251 529.86 423.251C531.12 423.251 532.15 422.841 532.94 422.011Z" fill="white"/>
<path d="M548.07 426.899C545.74 426.899 543.82 426.129 542.3 424.589C540.78 423.059 540.01 421.139 540.01 418.859C540.01 416.579 540.77 414.679 542.3 413.159C543.82 411.639 545.74 410.879 548.04 410.879C549.99 410.879 551.63 411.389 552.96 412.409C554.29 413.429 555.13 414.569 555.47 415.839L551.78 416.889C551.6 416.199 551.18 415.619 550.5 415.119C549.83 414.619 549.02 414.369 548.07 414.369C546.85 414.369 545.86 414.809 545.09 415.669C544.33 416.529 543.95 417.579 543.95 418.829C543.93 419.989 544.34 421.119 545.11 421.989C545.89 422.879 546.88 423.319 548.1 423.319C549.04 423.319 549.84 423.089 550.53 422.599C551.22 422.119 551.64 421.549 551.82 420.889L555.51 421.909C555.17 423.209 554.35 424.349 553.03 425.339C551.71 426.329 550.08 426.829 548.14 426.829L548.07 426.869V426.899Z" fill="white"/>
<path d="M560.4 409.18C560.09 409.18 559.78 409.13 559.49 409.02C559.2 408.9 558.94 408.73 558.72 408.51C558.5 408.29 558.32 408.03 558.2 407.75C558.08 407.46 558.02 407.16 558.03 406.85C558.03 406.55 558.08 406.25 558.2 405.97C558.32 405.69 558.5 405.44 558.72 405.23C559.17 404.81 559.77 404.57 560.39 404.57C561.01 404.57 561.61 404.81 562.06 405.23C562.28 405.44 562.46 405.69 562.58 405.97C562.7 406.25 562.76 406.55 562.75 406.85C562.75 407.16 562.7 407.46 562.58 407.75C562.46 408.03 562.29 408.29 562.06 408.5C561.84 408.72 561.58 408.88 561.29 409C561 409.11 560.7 409.17 560.39 409.16V409.19L560.4 409.18ZM558.35 411.31H562.34V426.45H558.35V411.31Z" fill="white"/>
<path d="M572.871 426.871C570.751 426.871 568.971 426.111 567.541 424.581C566.101 423.051 565.391 421.151 565.391 418.881C565.391 416.611 566.111 414.671 567.541 413.151C568.981 411.631 570.761 410.871 572.891 410.871C575.021 410.871 576.601 411.621 577.771 413.121V411.291H581.771V426.431H577.771V424.571C576.601 426.091 574.971 426.851 572.891 426.851H572.881L572.871 426.871ZM573.561 423.301C574.131 423.311 574.701 423.201 575.231 422.991C575.761 422.771 576.241 422.451 576.631 422.031C577.471 421.181 577.881 420.121 577.881 418.811C577.881 417.501 577.471 416.491 576.631 415.651C576.231 415.241 575.751 414.921 575.221 414.701C574.691 414.481 574.121 414.381 573.551 414.391C572.311 414.391 571.281 414.801 570.471 415.631C569.661 416.461 569.271 417.531 569.271 418.831C569.271 420.131 569.671 421.231 570.471 422.061C571.281 422.891 572.301 423.321 573.551 423.321V423.291L573.561 423.301Z" fill="white"/>
<path d="M589.61 404.578H585.65V426.428H589.61V404.578Z" fill="white"/>
<path d="M608.99 411.289L599.86 432.719H595.79L598.54 426.099L591.67 411.289H596.02L600.52 421.519L604.76 411.289H609H608.99Z" fill="white"/>
<defs>
<linearGradient id="paint0_linear_96_2781" x1="837.941" y1="366.257" x2="839.435" y2="369.251" gradientUnits="userSpaceOnUse">
<stop stop-color="#FF7A00"/>
<stop offset="1" stop-color="#FFC58F"/>
</linearGradient>
<linearGradient id="paint1_linear_96_2781" x1="837.539" y1="363.371" x2="841.155" y2="376.768" gradientUnits="userSpaceOnUse">
<stop stop-color="#FF7A00"/>
<stop offset="1" stop-color="#FFC58F"/>
</linearGradient>
<linearGradient id="paint2_linear_96_2781" x1="838.765" y1="359.289" x2="838.872" y2="361.62" gradientUnits="userSpaceOnUse">
<stop stop-color="#FF7A00"/>
<stop offset="1" stop-color="#FFC58F"/>
</linearGradient>
<linearGradient id="paint3_linear_96_2781" x1="829.394" y1="349.18" x2="847.559" y2="383.346" gradientUnits="userSpaceOnUse">
<stop stop-color="#FF7A00"/>
<stop offset="1" stop-color="#FFC58F"/>
</linearGradient>
<clipPath id="clip0_96_2781">
<rect width="240" height="52" fill="white" transform="translate(412 36)"/>
</clipPath>
</defs>
</svg>
