<svg width="1080" height="1080" viewBox="0 0 1080 1080" fill="none" xmlns="http://www.w3.org/2000/svg">
<path d="M229.918 605.871C210.027 585.944 210.027 553.668 229.918 533.741L534.082 228.945C553.973 209.018 586.189 209.018 606.079 228.945C625.969 248.872 625.969 281.148 606.079 301.075L301.914 605.871C282.024 625.798 249.808 625.798 229.918 605.871V605.871Z" fill="#01EA88"/>
<path d="M440.095 640.601C420.205 620.674 420.205 588.398 440.095 568.471L568.75 439.579C588.64 419.652 620.857 419.652 640.747 439.579C660.637 459.505 660.637 491.781 640.747 511.708L512.091 640.601C492.201 660.528 459.985 660.528 440.095 640.601Z" fill="#FFCE00"/>
<path d="M473.921 850.255C454.031 830.328 454.031 798.053 473.921 778.126L778.086 473.4C797.976 453.473 830.193 453.473 850.083 473.4C869.973 493.327 869.973 525.602 850.083 545.529L545.918 850.255C526.028 870.182 493.812 870.182 473.921 850.255V850.255Z" fill="#1C7CFF"/>
</svg>
