<svg width="1080" height="1080" viewBox="0 0 1080 1080" fill="none" xmlns="http://www.w3.org/2000/svg">
<path d="M566.662 709.984C552.844 745.062 521.663 753.034 473.122 733.901C419.265 712.642 378.873 666.934 351.944 596.779L218.366 672.072C217.126 672.958 216.063 673.666 215 674.907V321.296C215 262.656 262.656 215 321.296 215H473.122C432.552 236.613 403.675 269.211 386.313 313.146C374.444 343.441 368.952 372.141 370.192 399.246C371.432 426.352 379.05 452.04 393.223 476.488C407.573 500.404 422.631 520.955 438.044 538.316C454.166 555.855 474.893 575.343 500.227 596.425C532.647 624.062 553.552 645.675 562.764 661.088C572.331 676.147 573.571 692.445 566.662 709.984Z" fill="#9A9A9A"/>
<path d="M865 365.055V758.704C865 817.344 817.345 865 758.705 865H641.956C657.546 855.965 672.428 844.095 686.424 829.568C705.557 809.195 720.97 784.569 732.485 755.515C737.977 741.52 741.875 728.055 744.178 714.946C746.658 701.836 748.075 690.143 748.607 679.868C749.847 669.947 748.252 658.786 744 646.562C739.926 633.806 736.914 623.886 734.788 616.799C732.662 609.536 726.639 599.792 716.895 587.568C707.86 574.989 701.305 565.954 697.053 560.817C693.51 555.325 684.652 545.758 670.479 532.471C656.838 518.83 647.803 509.972 643.019 505.897C638.59 501.291 628.138 491.547 611.662 476.666C580.128 448.143 559.754 426.352 550.188 411.471C541.33 396.767 539.912 382.594 545.936 368.953C551.959 353.717 561.88 343.619 575.876 338.658C590.226 333.875 606.702 335.115 624.772 342.202C661.798 356.906 697.762 394.818 733.017 456.47L865 365.055Z" fill="#9A9A9A"/>
<path d="M566.662 709.984C552.844 745.062 521.663 753.034 473.122 733.901C419.265 712.642 378.873 666.934 351.944 596.779L218.366 672.072C217.126 672.958 216.063 673.666 215 674.907V321.296C215 262.656 262.656 215 321.296 215H473.122C432.552 236.613 403.675 269.211 386.313 313.146C374.444 343.441 368.952 372.141 370.192 399.246C371.432 426.352 379.05 452.04 393.223 476.488C407.573 500.404 422.631 520.955 438.044 538.316C454.166 555.855 474.893 575.343 500.227 596.425C532.647 624.062 553.552 645.675 562.764 661.088C572.331 676.147 573.571 692.445 566.662 709.984Z" fill="#9A9A9A"/>
<path d="M865 365.055V758.704C865 817.344 817.345 865 758.705 865H641.956C657.546 855.965 672.428 844.095 686.424 829.568C705.557 809.195 720.97 784.569 732.485 755.515C737.977 741.52 741.875 728.055 744.178 714.946C746.658 701.836 748.075 690.143 748.607 679.868C749.847 669.947 748.252 658.786 744 646.562C739.926 633.806 736.914 623.886 734.788 616.799C732.662 609.536 726.639 599.792 716.895 587.568C707.86 574.989 701.305 565.954 697.053 560.817C693.51 555.325 684.652 545.758 670.479 532.471C656.838 518.83 647.803 509.972 643.019 505.897C638.59 501.291 628.138 491.547 611.662 476.666C580.128 448.143 559.754 426.352 550.188 411.471C541.33 396.767 539.912 382.594 545.936 368.953C551.959 353.717 561.88 343.619 575.876 338.658C590.226 333.875 606.702 335.115 624.772 342.202C661.798 356.906 697.762 394.818 733.017 456.47L865 365.055Z" fill="#9A9A9A"/>
</svg>
