<svg width="1080" height="1080" viewBox="0 0 1080 1080" fill="none" xmlns="http://www.w3.org/2000/svg">
<path fill-rule="evenodd" clip-rule="evenodd" d="M603.664 731.056L604.012 731.404C622.601 750.032 613.185 781.819 587.46 787.37C551.03 795.231 512.237 794.766 473.774 784.434C344.018 749.576 267.657 616.528 302.988 486.902C338.32 357.276 470.625 282.11 599.499 316.781C638.887 327.378 673.385 347.105 701.316 373.068C720.491 390.892 712.617 422.828 687.322 429.577L686.849 429.703C675.817 432.647 664.052 429.716 655.678 421.95C635.487 403.223 610.57 388.994 582.127 381.342C489.218 356.347 393.652 410.914 367.801 503.363C341.668 596.818 396.01 693.362 489.487 719.421C517.722 727.291 546.235 727.79 573.006 722.079C584.103 719.712 595.651 723.03 603.664 731.061V731.056Z" fill="#3D3D3D"/>
<path d="M770.424 613.494C758.641 657.285 735.579 695.027 705.198 724.43C692.082 737.125 671.196 736.913 658.305 723.996C645.154 710.819 645.254 689.39 658.631 676.443C680.629 655.157 697.333 627.835 705.863 596.125C714.241 564.989 713.68 533.558 705.754 504.55C700.877 486.695 711.522 468.293 729.407 463.52C747.123 458.795 765.403 469.197 770.246 486.882C781.225 526.982 782.007 570.449 770.424 613.498V613.494Z" fill="#8E8E8E"/>
<path d="M409.397 502.862C419.76 473.115 437.641 448.138 460.177 429.31C469.845 421.232 484.234 422.496 492.464 432.029C500.89 441.793 499.804 456.624 489.911 464.894C473.611 478.518 460.677 496.59 453.181 518.11C445.815 539.257 444.633 561.064 448.685 581.551C451.165 594.098 442.84 606.246 430.275 608.643L430.223 608.652C417.671 611.045 405.601 602.81 403.139 590.267C397.597 562.033 399.247 531.991 409.397 502.857V502.862Z" fill="#515151"/>
<path d="M651.674 821.62H437.113C419.363 821.62 404.974 836.009 404.974 853.759C404.974 871.509 419.363 885.898 437.113 885.898H651.674C669.424 885.898 683.813 871.509 683.813 853.759C683.813 836.009 669.424 821.62 651.674 821.62Z" fill="#8E8E8E"/>
<path d="M347.489 304.516L284.905 229.879C273.5 216.277 253.229 214.497 239.628 225.902C226.026 237.306 224.246 257.578 235.65 271.179L298.234 345.817C309.639 359.418 329.91 361.199 343.512 349.794C357.113 338.389 358.894 318.118 347.489 304.516Z" fill="#3D3D3D"/>
<path d="M781.766 345.807L844.35 271.17C855.755 257.569 853.974 237.297 840.373 225.892C826.771 214.488 806.5 216.268 795.095 229.87L732.511 304.507C721.107 318.108 722.887 338.38 736.488 349.784C750.09 361.189 770.361 359.409 781.766 345.807Z" fill="#3D3D3D"/>
<path d="M568.718 241.543V144.139C568.718 126.389 554.329 112 536.579 112C518.829 112 504.44 126.389 504.44 144.139V241.543C504.44 259.293 518.829 273.682 536.579 273.682C554.329 273.682 568.718 259.293 568.718 241.543Z" fill="#3D3D3D"/>
<path d="M444.681 915.869H646.425C649.443 915.869 651.893 918.318 651.893 921.337C651.893 947.326 630.794 968.421 604.809 968.421H486.306C460.316 968.421 439.222 947.322 439.222 921.337C439.222 918.318 441.671 915.869 444.69 915.869H444.681Z" fill="#515151"/>
</svg>
