<svg width="806" height="182" viewBox="0 0 806 182" fill="none" xmlns="http://www.w3.org/2000/svg">
<path d="M340.653 93.6328C339.459 103.692 334.768 111.449 326.581 116.905C318.479 122.361 307.478 125.089 293.577 125.089C283.087 125.089 273.877 123.469 265.945 120.23C258.099 116.99 251.959 112.174 247.524 105.78C243.175 99.3869 241 91.5443 241 82.2525C241 72.9606 243.175 65.0754 247.524 58.5967C251.959 52.118 258.099 47.259 265.945 44.0197C273.877 40.6951 283.087 39.0328 293.577 39.0328C307.478 39.0328 318.522 41.8459 326.709 47.4721C334.896 53.0984 339.544 60.941 340.653 71H323.767C321.976 65.5443 318.565 61.3246 313.533 58.341C308.501 55.3574 301.849 53.8656 293.577 53.8656C282.831 53.8656 274.303 56.3377 267.992 61.282C261.681 66.141 258.526 73.1311 258.526 82.2525C258.526 91.3738 261.681 98.4066 267.992 103.351C274.303 108.295 282.831 110.767 293.577 110.767C301.764 110.767 308.373 109.275 313.405 106.292C318.437 103.308 321.891 99.0885 323.767 93.6328H340.653Z" fill="white"/>
<path d="M371.325 78.9279C372.945 73.7279 375.759 69.0393 379.768 64.8623C383.776 60.6 389.106 58.4689 395.758 58.4689V73.5574C389.106 73.5574 383.819 75.1771 379.896 78.4164C375.973 81.6557 373.116 85.1082 371.325 88.7738V123.426H354.695V59.8754H371.325V78.9279Z" fill="white"/>
<path d="M479.617 102.328C478.508 109.148 474.841 114.646 468.615 118.823C462.475 122.915 454.202 124.961 443.798 124.961C435.611 124.961 428.404 123.639 422.179 120.997C415.953 118.354 411.092 114.561 407.595 109.616C404.184 104.672 402.478 98.7475 402.478 91.8426C402.478 84.9377 404.141 78.9705 407.467 73.941C410.879 68.9115 415.654 65.0754 421.795 62.4328C427.935 59.7902 435.099 58.4689 443.286 58.4689C455.908 58.4689 465.289 61.4525 471.429 67.4197C477.655 73.3016 480.469 82.2525 479.872 94.2721H419.236C419.919 99.7279 422.349 104.118 426.528 107.443C430.792 110.682 436.421 112.302 443.414 112.302C448.616 112.302 453.008 111.407 456.59 109.616C460.172 107.741 462.475 105.311 463.498 102.328H479.617ZM442.519 71C436.634 71 431.688 72.3213 427.679 74.9639C423.756 77.5213 421.24 80.8885 420.132 85.0656H463.37C462.944 80.718 460.897 77.3082 457.23 74.8361C453.563 72.2787 448.659 71 442.519 71Z" fill="white"/>
<path d="M569.641 34.3016V123.426H554.162C553.395 117.289 553.011 111.833 553.011 107.059V103.095C551.049 109.489 547.553 114.731 542.521 118.823C537.575 122.83 531.136 124.833 523.205 124.833C516.808 124.833 511.009 123.469 505.807 120.741C500.69 117.928 496.639 114.007 493.654 108.977C490.669 103.948 489.177 98.1934 489.177 91.7148C489.177 85.1508 490.627 79.3541 493.526 74.3246C496.426 69.2951 500.434 65.4164 505.551 62.6885C510.753 59.8754 516.638 58.4689 523.205 58.4689C531.392 58.4689 537.916 60.259 542.777 63.8393C547.723 67.4197 551.135 72.4066 553.011 78.8V34.3016H569.641ZM528.577 112.046C536.082 112.046 542.01 110.213 546.359 106.548C550.794 102.797 553.011 97.8525 553.011 91.7148C553.011 85.2361 550.836 80.2066 546.487 76.6262C542.137 73.0459 536.168 71.2557 528.577 71.2557C521.584 71.2557 516.084 73.1311 512.075 76.882C508.152 80.5475 506.191 85.4918 506.191 91.7148C506.191 97.8525 508.238 102.797 512.331 106.548C516.425 110.213 521.84 112.046 528.577 112.046Z" fill="white"/>
<path d="M606.626 46.5771H587.31V32H606.626V46.5771ZM605.347 59.8754V123.426H588.717V59.8754H605.347Z" fill="white"/>
<path d="M666.441 72.5344H650.066V123.426H633.436V72.5344H617.062V59.8754H633.436V42.4852H650.066V59.8754H666.441V72.5344Z" fill="white"/>
<path d="M715.387 47.7279C711.293 47.6426 708.266 48.3672 706.304 49.9016C704.428 51.4361 703.49 54.2918 703.49 58.4689V61.0262H723.702V73.6852H703.49V123.426H686.86V73.6852H672.404V61.0262H686.86V56.4229C686.86 48.8361 688.906 43.2525 693 39.6721C697.094 36.0918 703.191 34.3016 711.293 34.3016H724.597V47.7279H715.387Z" fill="white"/>
<path d="M806 59.8754L761.994 149H744.724L758.668 122.787L728.222 59.8754H745.876L766.983 106.42L788.219 59.8754H806Z" fill="white"/>
<path d="M83.6317 91.8573C83.7597 87.8072 87.054 84.5098 91.1011 84.3788C95.5748 84.2325 99.2318 87.8864 99.0885 92.3571C98.9605 96.4072 95.6601 99.7045 91.6131 99.8325C87.1455 99.9727 83.4946 96.3249 83.6348 91.8573H83.6317Z" fill="url(#paint0_linear_283_1008)"/>
<path d="M61.3776 69.626H164.772L161.481 98.0589L158.272 125.754C158.053 127.641 156.453 129.064 154.551 129.064H58.6958C56.4559 129.064 54.7158 127.114 54.9748 124.889L57.2574 105.16H91.3648C94.9699 105.16 98.2307 103.697 100.596 101.338C102.96 98.9732 104.42 95.7124 104.42 92.1042C104.42 84.8938 98.5751 79.0518 91.3648 79.0518H60.2835L61.3745 69.626H61.3776Z" fill="url(#paint1_linear_283_1008)"/>
<path d="M166.312 56.3479L165.675 61.8334H62.2832L63.0176 55.4855C63.2401 53.596 64.837 52.1729 66.7417 52.1729H162.594C164.834 52.1729 166.574 54.1232 166.315 56.3479H166.312Z" fill="url(#paint2_linear_283_1008)"/>
<path d="M157.35 154.848L132.011 180.188C131.337 180.862 130.426 181.24 129.475 181.24H90.6198C62.6866 181.24 37.7034 168.602 21.0825 148.729C7.9204 132.992 0 112.729 0 90.6198C0 68.5104 7.9204 48.2446 21.0825 32.5105C37.7034 12.6379 62.6866 0 90.6198 0H166.408C169.601 0 171.201 3.86116 168.943 6.11934L151.533 23.5296L143.6 31.4622C142.927 32.1357 142.016 32.5135 141.065 32.5135H91.1988C59.0266 32.5135 32.5288 58.4141 32.5105 90.5863C32.5014 105.074 37.7948 118.324 46.5533 128.506C57.2073 140.891 72.9993 148.732 90.6168 148.732H154.812C158.006 148.732 159.606 152.593 157.347 154.852L157.35 154.848Z" fill="url(#paint3_linear_283_1008)"/>
<defs>
<linearGradient id="paint0_linear_283_1008" x1="88.024" y1="84.8425" x2="94.9629" y2="98.7562" gradientUnits="userSpaceOnUse">
<stop stop-color="#FF7A00"/>
<stop offset="1" stop-color="#FFC58F"/>
</linearGradient>
<linearGradient id="paint1_linear_283_1008" x1="86.1536" y1="71.4249" x2="102.956" y2="133.679" gradientUnits="userSpaceOnUse">
<stop stop-color="#FF7A00"/>
<stop offset="1" stop-color="#FFC58F"/>
</linearGradient>
<linearGradient id="paint2_linear_283_1008" x1="91.8493" y1="52.4652" x2="92.3508" y2="63.2973" gradientUnits="userSpaceOnUse">
<stop stop-color="#FF7A00"/>
<stop offset="1" stop-color="#FFC58F"/>
</linearGradient>
<linearGradient id="paint3_linear_283_1008" x1="48.3025" y1="5.48546" x2="132.718" y2="164.259" gradientUnits="userSpaceOnUse">
<stop stop-color="#FF7A00"/>
<stop offset="1" stop-color="#FFC58F"/>
</linearGradient>
</defs>
</svg>
