<svg width="16" height="16" viewBox="0 0 16 16" fill="none" xmlns="http://www.w3.org/2000/svg">
<g clip-path="url(#clip0_96_10885)">
<path d="M15.5315 6.02267C15.1515 5.58467 14.6008 5.33333 14.0201 5.33333H13.9628C13.6301 2.33733 11.0835 0 8.00014 0C4.91681 0 2.37015 2.33733 2.03748 5.33333H2.00015C1.42015 5.33333 0.870145 5.58467 0.489479 6.02267C0.108812 6.46067 -0.0618547 7.04133 0.0201453 7.61667L0.727479 12.566C1.00748 14.524 2.71015 16 4.68748 16H11.3335C13.3108 16 15.0135 14.5233 15.2935 12.566L16.0008 7.61667C16.0828 7.042 15.9115 6.46133 15.5315 6.02267ZM8.00014 1.33333C10.3468 1.33333 12.2941 3.07533 12.6188 5.33333H3.38148C3.70615 3.07533 5.65348 1.33333 8.00014 1.33333ZM5.33348 12.6667C5.33348 13.0353 5.03548 13.3333 4.66681 13.3333C4.29815 13.3333 4.00015 13.0353 4.00015 12.6667V8.66667C4.00015 8.298 4.29815 8 4.66681 8C5.03548 8 5.33348 8.298 5.33348 8.66667V12.6667ZM8.66681 12.6667C8.66681 13.0353 8.36881 13.3333 8.00014 13.3333C7.63148 13.3333 7.33348 13.0353 7.33348 12.6667V8.66667C7.33348 8.298 7.63148 8 8.00014 8C8.36881 8 8.66681 8.298 8.66681 8.66667V12.6667ZM12.0001 12.6667C12.0001 13.0353 11.7021 13.3333 11.3335 13.3333C10.9648 13.3333 10.6668 13.0353 10.6668 12.6667V8.66667C10.6668 8.298 10.9648 8 11.3335 8C11.7021 8 12.0001 8.298 12.0001 8.66667V12.6667Z" fill="#0F52FF"/>
</g>
<defs>
<clipPath id="clip0_96_10885">
<rect width="16" height="16" fill="white"/>
</clipPath>
</defs>
</svg>
